<?xml version="1.0" encoding="utf-8"?>
<!-- Generator: Adobe Illustrator 18.1.1, SVG Export Plug-In . SVG Version: 6.00 Build 0)  -->
<svg version="1.1" id="Layer_1" xmlns="http://www.w3.org/2000/svg" xmlns:xlink="http://www.w3.org/1999/xlink" x="0px" y="0px"
	 viewBox="0 0 612 792" enable-background="new 0 0 612 792" xml:space="preserve">
<path fill="none" stroke="#000000" stroke-miterlimit="10" d="M117.4,389.6l-0.3,4.2h-15.9l-2.9-1.3c0,0-2.6-0.8-2.6,1.3
	s0,10.3,0,10.3s-0.2,1.2,2.2,1.2s26.6,0,26.6,0s7.3-1.4,8.1-7.5s4.1-33.3,4.1-33.3s0.8-3.4,2.5-6.2s-1.9-2.4-3-2.4s-12.8,0-12.8,0
	s-1.8-0.5-2.2,3.6s-2.8,20.5-2.8,20.5s-0.1,0.2-2.8,0.2s-3,0.3-3,0.3l3.3-22.4c0,0,0.9-1.7-1.9-1.8s-14.5,0-14.5,0s-2.2,1.9,0.4,3.2
	L97,381.6c0,0-0.5,6.7,3.5,7.5S117.4,389.6,117.4,389.6z"/>
<path fill="none" stroke="#000000" stroke-miterlimit="10" d="M133.8,397.3l4.5-32.8c0,0,1.8-8.5,6.8-8.6s25.3,0,25.3,0
	s5.5,1.2,5.1,7.8c-0.4,6.6-4.1,31.8-4.1,31.8s-1.2,9.1-7.3,9.1s-25.5,0-25.5,0S133.8,403.3,133.8,397.3z"/>
<path fill="none" stroke="#000000" stroke-miterlimit="10" d="M192.8,360.2l-4.2,32.1c0,0,0.1,2.5,1.4,2.4c1.3-0.1,3.2-0.8,3.7-4.3
	c0.5-3.6,4.3-30.2,4.3-30.2l-0.4-3.1c0,0-0.3-1.2,1.9-1.2s14.8,0,14.8,0s1.8,1.5,0,3.1l-0.5,0.4l-5,36.9c0,0-1.2,7.4-8.8,8.2
	c-7.7,0.8-18.8,0.8-20,0.4s-8.3-1.6-7.7-8.4c0.7-6.8,4.9-36.4,4.9-36.4s-0.8-1.6-0.8-2.2c0-0.7,0.2-2,1.9-2c1.7,0,14.7,0,14.7,0
	s1.4,1,0.7,2.3S192.8,360.2,192.8,360.2z"/>
<path fill="none" stroke="#000000" stroke-miterlimit="10" d="M154,367.9h5c0,0,0.1,0.3,0,0.8s-3.2,23.8-3.2,23.8h-5.8l2.9-22.5
	C152.9,369.9,152.6,367.9,154,367.9z"/>
<path fill="none" stroke="#000000" stroke-miterlimit="10" d="M211.8,400.1l5.3-39.2c0,0,0.2-1.2,0-1.5s-2.1-3.3,0.6-3.4
	s15.9,0,15.9,0l11.6,22.1l2.1-18.2c0,0-1.9-3.9,0.6-3.9s16.9,0,16.9,0s1.9,0.7,0.6,3.2s-1.3,2.4-1.3,2.4l-5.2,38.6
	c0,0,0.1,1.1,0.2,1.8s1.5,3.1-1.2,3.2c-2.7,0.1-16.5,0-16.5,0s-1.9-1.1-0.6-3.2s1.4-4.1,1.4-4.8S231,375.5,231,375.5l-3.8,24.8
	l0.6,2.6c0,0,0.7,2.2-2.1,2.2s-15,0-15,0s-1.8-1.5-0.6-2.6S211.8,400.5,211.8,400.1z"/>
<path fill="none" stroke="#000000" stroke-miterlimit="10" d="M275.7,391.7l3.2-22.8c0,0,0.2-1,1-1s14.5,0,14.5,0s1.1,1.9,2.2,1.8
	s1.8-2.2,1.7-3.1s1-9.4,1-9.4s0.6-1-1.9-1.2c-2.6-0.2-25.8,0-25.8,0s-6.6,1.4-7.7,9.4s-3.6,27.6-3.6,27.6s-0.3,6.4,0.4,8.4
	s2.8,3.8,4.6,3.9s30.1,0,30.1,0s1.2,0.5,1.6-3.7s1.9-16.6,1.7-18.3s-1.2-4.5-2.4-4.8s-16,0-16,0s-0.9,0.1-1.1,2.1
	c-0.2,2-1.1,8.5-1.1,8.5s-0.1,2.3,1.7,1.9s2.1-1.2,2.1-1.2l1.2-0.1l-0.3,3.4l-5.9,0.1C277.1,393,275.5,392.9,275.7,391.7z"/>
<path fill="none" stroke="#000000" stroke-miterlimit="10" d="M308.8,399.7l5.4-39.6c0,0-0.8-2.3-0.5-3c0.3-0.7,0.9-1,1.8-1
	c0.9,0,14.7,0,14.7,0s2,0.1,1.1,2.3c-0.9,2.2-0.9,2.2-0.9,2.2l-2.3,14.4h5l2.2-14.8l-1-2.4c0,0-0.8-1.3,1.7-1.8s16,0,16,0
	s1.2,2.1,0,3.8c-1.2,1.7-1.4,1.2-1.4,1.2l-4.9,39.3c0,0,0.6,2.8,0.6,3.1s0.8,1.8-2.6,1.7c-3.3-0.1-14.8,0-14.8,0s-0.5-1.8,0.4-3.2
	c0.9-1.5,1.1-2.4,1.1-2.4l1.2-12.3h-4.8l-0.5,0.1l-1.4,14.2c0,0,1.6,2.7,0.3,3.2s-17,0-17,0s-1.7-1.5,0-2.9
	C309.8,400.4,308.8,399.7,308.8,399.7z"/>
<path fill="none" stroke="#000000" stroke-miterlimit="10" d="M354.1,355.9h13.7c0,0,2.1,0.9,1.2,2.5c-0.9,1.6-1.2,2-1.2,2l-4.1,32
	c0,0,0.5,2.7,1.5,2.5c1-0.2,3.3-0.6,4-6.7c0.7-6.1,4-28.8,4-28.8l-0.8-1.9c0,0-0.3-1.7,1.7-1.7c1.9,0,15.4,0,15.4,0s0.9,1.7,0,2.6
	c-0.9,0.9-0.9,2.3-0.9,2.3l-4.8,36.8c0,0-1.8,6.5-10.2,7.2s-19.3,0-19.3,0s-7.9-1.2-7-8.8c0.9-7.6,4.9-36.1,4.9-36.1
	S350.3,355.1,354.1,355.9z"/>
<path fill="none" stroke="#000000" stroke-miterlimit="10" d="M425.1,372.3"/>
<path fill="none" stroke="#000000" stroke-miterlimit="10" d="M423.4,370.5h5.1l-3.9,30.2c0,0-2.3,2.6-1.5,3.5
	c0.8,0.9,15.9,0.9,15.9,0.9s2.1,0.1,1.7-2.1s-0.5-4.2-0.5-4.2l3.8-28.2l1.5-0.3c0,0,2.9-1.2,3.1-2.2c0.2-0.9,1.3-8.4,1.3-8.4
	l-1.9-3.1h-25.8c0,0-1.6,0.2-1.6,0.6c0,0.4-1.8,15.2-1.6,15.2s1.8,1.8,3.2,0C423.4,370.5,423.4,370.5,423.4,370.5z"/>
<path fill="none" stroke="#000000" stroke-miterlimit="10" d="M461.4,392.2l4.2-31.9c0,0,2.5-3.1,0.8-3.8s-15-0.6-15-0.6l-5.7,34.1
	l-1.2,11c0,0-0.5,3.8,3.3,4c3.8,0.2,24.8,0,24.8,0s1.9,0.2,2.1-3.8s0.6-6.4,0.6-6.4s0.1-2.3-2.7-1.6s-5.9,1.9-6.8,1.9
	C464.8,395.2,462.4,396,461.4,392.2z"/>
<path fill="none" stroke="#000000" stroke-miterlimit="10" d="M469.5,415l16.7-36.8l8.8-19.1l15.2-9.9c0,0,1.6-0.2,1.8,1.4
	c0.2,1.6,3.6,51.7,3.6,51.7s1.1,0.3,0.8,1.4c-0.3,1.1-0.6,1.1-1.2,1.4c-0.6,0.3-17,0.6-17,0.6s-2.5-1-0.4-3.4l0.9-0.3l-0.8-4.1
	l-10.9-0.2l-7.6,17.9l-0.3,3.5c0,0,0.2,1-2.4,1.2c-2.6,0.2-8.4,0-8.4,0s-1.9-1.1-0.7-2.4C468.6,416.6,469.5,415,469.5,415z"/>
<polygon fill="none" stroke="#000000" stroke-miterlimit="10" points="490.1,389.1 497.2,389.1 496.5,377.1 "/>
<path fill="none" stroke="#FFFFFF" stroke-miterlimit="10" d="M117.4,389.6l-0.3,4.2h-15.9l-2.9-1.3c0,0-2.6-0.8-2.6,1.3
	s0,10.3,0,10.3s-0.2,1.2,2.2,1.2s26.6,0,26.6,0s7.3-1.4,8.1-7.5s4.1-33.3,4.1-33.3s0.8-3.4,2.5-6.2s-1.9-2.4-3-2.4s-12.8,0-12.8,0
	s-1.8-0.5-2.2,3.6s-2.8,20.5-2.8,20.5s-0.1,0.2-2.8,0.2s-3,0.3-3,0.3l3.3-22.4c0,0,0.9-1.7-1.9-1.8s-14.5,0-14.5,0s-2.2,1.9,0.4,3.2
	L97,381.6c0,0-0.5,6.7,3.5,7.5S117.4,389.6,117.4,389.6z"/>
<path fill="none" stroke="#FFFFFF" stroke-miterlimit="10" d="M133.8,397.3l4.5-32.8c0,0,1.8-8.5,6.8-8.6s25.3,0,25.3,0
	s5.5,1.2,5.1,7.8c-0.4,6.6-4.1,31.8-4.1,31.8s-1.2,9.1-7.3,9.1s-25.5,0-25.5,0S133.8,403.3,133.8,397.3z"/>
<path fill="none" stroke="#FFFFFF" stroke-miterlimit="10" d="M192.8,360.2l-4.2,32.1c0,0,0.1,2.5,1.4,2.4c1.3-0.1,3.2-0.8,3.7-4.3
	c0.5-3.6,4.3-30.2,4.3-30.2l-0.4-3.1c0,0-0.3-1.2,1.9-1.2s14.8,0,14.8,0s1.8,1.5,0,3.1l-0.5,0.4l-5,36.9c0,0-1.2,7.4-8.8,8.2
	c-7.7,0.8-18.8,0.8-20,0.4s-8.3-1.6-7.7-8.4c0.7-6.8,4.9-36.4,4.9-36.4s-0.8-1.6-0.8-2.2c0-0.7,0.2-2,1.9-2c1.7,0,14.7,0,14.7,0
	s1.4,1,0.7,2.3S192.8,360.2,192.8,360.2z"/>
<path fill="none" stroke="#FFFFFF" stroke-miterlimit="10" d="M154,367.9h5c0,0,0.1,0.3,0,0.8s-3.2,23.8-3.2,23.8h-5.8l2.9-22.5
	C152.9,369.9,152.6,367.9,154,367.9z"/>
<path fill="none" stroke="#FFFFFF" stroke-miterlimit="10" d="M211.8,400.1l5.3-39.2c0,0,0.2-1.2,0-1.5s-2.1-3.3,0.6-3.4
	s15.9,0,15.9,0l11.6,22.1l2.1-18.2c0,0-1.9-3.9,0.6-3.9s16.9,0,16.9,0s1.9,0.7,0.6,3.2s-1.3,2.4-1.3,2.4l-5.2,38.6
	c0,0,0.1,1.1,0.2,1.8s1.5,3.1-1.2,3.2c-2.7,0.1-16.5,0-16.5,0s-1.9-1.1-0.6-3.2s1.4-4.1,1.4-4.8S231,375.5,231,375.5l-3.8,24.8
	l0.6,2.6c0,0,0.7,2.2-2.1,2.2s-15,0-15,0s-1.8-1.5-0.6-2.6S211.8,400.5,211.8,400.1z"/>
<path fill="none" stroke="#FFFFFF" stroke-miterlimit="10" d="M275.7,391.7l3.2-22.8c0,0,0.2-1,1-1s14.5,0,14.5,0s1.1,1.9,2.2,1.8
	s1.8-2.2,1.7-3.1s1-9.4,1-9.4s0.6-1-1.9-1.2c-2.6-0.2-25.8,0-25.8,0s-6.6,1.4-7.7,9.4s-3.6,27.6-3.6,27.6s-0.3,6.4,0.4,8.4
	s2.8,3.8,4.6,3.9s30.1,0,30.1,0s1.2,0.5,1.6-3.7s1.9-16.6,1.7-18.3s-1.2-4.5-2.4-4.8s-16,0-16,0s-0.9,0.1-1.1,2.1
	c-0.2,2-1.1,8.5-1.1,8.5s-0.1,2.3,1.7,1.9s2.1-1.2,2.1-1.2l1.2-0.1l-0.3,3.4l-5.9,0.1C277.1,393,275.5,392.9,275.7,391.7z"/>
<path fill="none" stroke="#FFFFFF" stroke-miterlimit="10" d="M308.8,399.7l5.4-39.6c0,0-0.8-2.3-0.5-3c0.3-0.7,0.9-1,1.8-1
	c0.9,0,14.7,0,14.7,0s2,0.1,1.1,2.3c-0.9,2.2-0.9,2.2-0.9,2.2l-2.3,14.4h5l2.2-14.8l-1-2.4c0,0-0.8-1.3,1.7-1.8s16,0,16,0
	s1.2,2.1,0,3.8c-1.2,1.7-1.4,1.2-1.4,1.2l-4.9,39.3c0,0,0.6,2.8,0.6,3.1s0.8,1.8-2.6,1.7c-3.3-0.1-14.8,0-14.8,0s-0.5-1.8,0.4-3.2
	c0.9-1.5,1.1-2.4,1.1-2.4l1.2-12.3h-4.8l-0.5,0.1l-1.4,14.2c0,0,1.6,2.7,0.3,3.2s-17,0-17,0s-1.7-1.5,0-2.9
	C309.8,400.4,308.8,399.7,308.8,399.7z"/>
<path fill="none" stroke="#FFFFFF" stroke-miterlimit="10" d="M354.1,355.9h13.7c0,0,2.1,0.9,1.2,2.5c-0.9,1.6-1.2,2-1.2,2l-4.1,32
	c0,0,0.5,2.7,1.5,2.5c1-0.2,3.3-0.6,4-6.7c0.7-6.1,4-28.8,4-28.8l-0.8-1.9c0,0-0.3-1.7,1.7-1.7c1.9,0,15.4,0,15.4,0s0.9,1.7,0,2.6
	c-0.9,0.9-0.9,2.3-0.9,2.3l-4.8,36.8c0,0-1.8,6.5-10.2,7.2s-19.3,0-19.3,0s-7.9-1.2-7-8.8c0.9-7.6,4.9-36.1,4.9-36.1
	S350.3,355.1,354.1,355.9z"/>
<path fill="none" stroke="#FFFFFF" stroke-miterlimit="10" d="M425.1,372.3"/>
<path fill="none" stroke="#FFFFFF" stroke-miterlimit="10" d="M423.4,370.5h5.1l-3.9,30.2c0,0-2.3,2.6-1.5,3.5
	c0.8,0.9,15.9,0.9,15.9,0.9s2.1,0.1,1.7-2.1s-0.5-4.2-0.5-4.2l3.8-28.2l1.5-0.3c0,0,2.9-1.2,3.1-2.2c0.2-0.9,1.3-8.4,1.3-8.4
	l-1.9-3.1h-25.8c0,0-1.6,0.2-1.6,0.6c0,0.4-1.8,15.2-1.6,15.2s1.8,1.8,3.2,0C423.4,370.5,423.4,370.5,423.4,370.5z"/>
<path fill="none" stroke="#FFFFFF" stroke-miterlimit="10" d="M461.4,392.2l4.2-31.9c0,0,2.5-3.1,0.8-3.8s-15-0.6-15-0.6l-5.7,34.1
	l-1.2,11c0,0-0.5,3.8,3.3,4c3.8,0.2,24.8,0,24.8,0s1.9,0.2,2.1-3.8s0.6-6.4,0.6-6.4s0.1-2.3-2.7-1.6s-5.9,1.9-6.8,1.9
	C464.8,395.2,462.4,396,461.4,392.2z"/>
<path fill="none" stroke="#FFFFFF" stroke-miterlimit="10" d="M469.5,415l16.7-36.8l8.8-19.1l15.2-9.9c0,0,1.6-0.2,1.8,1.4
	c0.2,1.6,3.6,51.7,3.6,51.7s1.1,0.3,0.8,1.4c-0.3,1.1-0.6,1.1-1.2,1.4c-0.6,0.3-17,0.6-17,0.6s-2.5-1-0.4-3.4l0.9-0.3l-0.8-4.1
	l-10.9-0.2l-7.6,17.9l-0.3,3.5c0,0,0.2,1-2.4,1.2c-2.6,0.2-8.4,0-8.4,0s-1.9-1.1-0.7-2.4C468.6,416.6,469.5,415,469.5,415z"/>
<polygon fill="none" stroke="#FFFFFF" stroke-miterlimit="10" points="490.1,389.1 497.2,389.1 496.5,377.1 "/>
<text transform="matrix(1 0 0 1 382.498 399.6523)" fill="#D6D6D6" font-family="'ComicSansMS-Bold'" font-size="63.274">$</text>
</svg>
