<?xml version="1.0" encoding="utf-8"?>
<!-- Generator: Adobe Illustrator 18.1.1, SVG Export Plug-In . SVG Version: 6.00 Build 0)  -->
<svg version="1.1" id="Layer_1" xmlns="http://www.w3.org/2000/svg" xmlns:xlink="http://www.w3.org/1999/xlink" x="0px" y="0px"
	 viewBox="0 0 660.8 291.7" enable-background="new 0 0 660.8 291.7" xml:space="preserve">
<g>
	<path fill="#F6F6F6" stroke="#E21F26" stroke-width="0" stroke-linecap="round" stroke-linejoin="round" d="M296.5,230.3
		C296.5,230.3,296.5,230.3,296.5,230.3"/>
	
		<line fill="#F6F6F6" stroke="#E21F26" stroke-width="0" stroke-linecap="round" stroke-linejoin="round" x1="296.5" y1="230.3" x2="296.5" y2="230.3"/>
	<path fill="#F6F6F6" d="M435.3,257.4c-0.3-7.7,0.6-16.2-0.8-23.8c0-0.1-0.3-0.1-0.3,0c-1.3,7.6-0.1,16.1,0.2,23.8
		c0.3,8.5,0.7,16.9,1.2,25.4c0,0.6,0.9,0.6,0.9,0C435.9,274.3,435.6,265.9,435.3,257.4z"/>
	<path fill="#F6F6F6" d="M621.8,252.3c-6,0.1-12.1,0.4-18,0.9c-0.1-2.6-0.1-5.2-0.1-7.8c-0.2-12.6-1.3-25.5,0.7-38
		c0-0.3-0.2-0.4-0.4-0.4c0,0-0.1,0-0.1,0c-8.2-0.4-16.6,0.5-24.7-1c-0.2,0-0.3,0.1-0.3,0.3c0,0,0,0.1,0,0.1c0,15.3,0.5,30.7,1.1,46
		c-1.7-0.1-3.4-0.2-5.1-0.2c-1.5-0.1-3.1-0.3-4.6,0.1c-0.2-4.7-0.4-9.3-0.9-13.9c0-0.3-0.5-0.3-0.5,0c0,0,0,0,0,0
		c-2.8,0-5.7-0.1-8.5-0.1c-0.1-1.9-0.3-3.8-0.5-5.7c-0.1-1.4-0.1-3-0.8-4.2c0,0-0.1,0-0.1,0c-0.5,1.4-0.1,3.1,0,4.6
		c0.1,1.8,0.3,3.5,0.5,5.3c-1.1,0-2.2,0-3.2,0c-1.8,0-5.2-0.7-6.5,0.8c-0.1,0.1-0.1,0.1-0.1,0.2c-0.2-0.2-0.6-0.1-0.6,0.3
		c0.4,7,0.9,13.9,0.9,20.9c0.1,6.8-0.9,14-0.2,20.8c0.1,0.5,0.9,0.5,0.8,0c-0.7-6.8,0.3-13.9,0.2-20.8c0-7-0.3-14-1.1-20.9
		c0,0,0,0,0-0.1c0.1,0.1,0.2,0.1,0.3,0c1.4-1.2,7.3-0.1,9.1-0.1c3.2,0,6.4,0,9.7,0c0,6.9,0.5,13.9,0.8,20.8
		c0.4,7.3,0.5,14.6,1.1,21.8c0,0.5,0.7,0.5,0.7,0c-0.1-7.3-0.6-14.5-1-21.8c-0.1-2.5-0.2-5-0.3-7.4c1.4,0.5,3.1,0.4,4.6,0.5
		c1.7,0.1,3.4,0.2,5.1,0.2c0.4,9.4,0.8,18.8,1.2,28.2c0,0.5,0.8,0.5,0.8,0c-0.4-24.9-0.7-50.2-2.5-75c7.7,2,16.4,1.5,24.3,1.2
		c-2.4,11.7-1.1,24.1-0.9,36c0.1,3.2,0.1,6.4,0.2,9.5c-0.3,0.1-0.3,0.5,0,0.6c0.2,9.5,0.3,18.9,0.5,28.4c0,0.5,0.9,0.6,0.9,0
		c-0.1-9.5-0.3-18.9-0.5-28.4c6,0,12-0.2,18-0.6C622.4,253.2,622.4,252.2,621.8,252.3z"/>
	<path fill="#F6F6F6" d="M622.9,253.1c0-0.3-0.4-0.3-0.4,0c-1.2,9.2-0.4,19-0.3,28.3c0,0.6,0.9,0.6,0.9,0
		C623,272.1,623.9,262.3,622.9,253.1z"/>
	<path fill="#F6F6F6" d="M618.7,256.7c-4-0.5-8.3,0-12.3,0.6c-0.2,0-0.2,0.4,0.1,0.4c4.1-0.4,8.1-0.4,12.2-0.4
		C619.1,257.3,619.1,256.7,618.7,256.7z"/>
	<path fill="#F6F6F6" d="M619.3,258.8c-4.6,0-9.3,0.6-13.9,1.4c-0.2,0-0.1,0.3,0,0.3c4.6-0.4,9.2-0.7,13.9-1
		C619.7,259.4,619.7,258.8,619.3,258.8z"/>
	<path fill="#F6F6F6" d="M618.7,260.5c-4,0.2-8,1-11.9,1.5c-0.2,0-0.2,0.4,0,0.4c4-0.2,8.1-0.4,12-1.4
		C619,260.9,619,260.5,618.7,260.5z"/>
	<path fill="#F6F6F6" d="M618.7,263.4c-4-0.1-8,1-11.9-0.2c-0.2-0.1-0.3,0.3-0.1,0.4c3.6,1.3,8.2,0.8,12,0.3
		C619.1,263.9,619.1,263.4,618.7,263.4z"/>
	<path fill="#F6F6F6" d="M619,266.7c-3.7-0.4-7.7,0.1-11.4,0.6c-0.3,0-0.2,0.5,0.1,0.5c3.8-0.4,7.6-0.3,11.4-0.5
		C619.3,267.2,619.3,266.7,619,266.7z"/>
	<path fill="#F6F6F6" d="M619,269.4c-4.1-0.2-8.4,0.4-12.5,0.9c-0.3,0-0.3,0.5,0,0.4c4.2-0.4,8.3-0.5,12.5-0.8
		C619.3,269.9,619.3,269.5,619,269.4z"/>
	<path fill="#F6F6F6" d="M619.3,273.4c-4.1-0.1-8.1,0.2-12.2-0.1c-0.2,0-0.2,0.3,0,0.3c4,0.5,8.3,1,12.3,0.2
		C619.5,273.7,619.5,273.4,619.3,273.4z"/>
	<path fill="#F6F6F6" d="M619.3,276.4c-3.9-0.2-7.8-0.1-11.7,0.3c-0.2,0-0.2,0.3,0,0.3c3.9-0.1,7.8-0.1,11.7,0
		C619.7,277,619.7,276.4,619.3,276.4z"/>
	<path fill="#F6F6F6" d="M619.8,277.9c-4.3,0.4-8.5,0.8-12.8,0.6c-0.2,0-0.2,0.3,0,0.4c4.3,0.4,8.6,0.4,12.8-0.4
		C620.2,278.5,620.2,277.9,619.8,277.9z"/>
	<path fill="#F6F6F6" d="M584.4,244.8c-0.2-11.4-0.5-22.9-1.6-34.3c0-0.3-0.5-0.3-0.4,0c0.5,11.4,1.3,22.8,1.5,34.3
		c0.2,11.4-0.2,22.9-0.1,34.3c0,0.2,0.4,0.2,0.4,0C584.9,267.8,584.6,256.2,584.4,244.8z"/>
	<path fill="#F6F6F6" d="M585.5,210.9c0-0.2-0.4-0.2-0.4,0c0,23.4,0.9,46.8,1.5,70.2c0,0.4,0.6,0.4,0.6,0
		C586.8,257.7,586.6,234.3,585.5,210.9z"/>
	<path fill="#F6F6F6" d="M588.4,210.3c0-0.2-0.3-0.2-0.3,0c0.4,23.1,1.3,46.3,2.6,69.4c0,0.3,0.5,0.3,0.5,0
		C590.7,256.6,589.8,233.4,588.4,210.3z"/>
	<path fill="#F6F6F6" d="M594.3,244.4c0.2-11,0.5-22.5-2.2-33.3c0-0.1-0.2-0.1-0.2,0c1.4,11.4,1.9,22.6,1.7,34.1
		c-0.2,11.4-0.6,22.9,0.6,34.3c0,0.4,0.7,0.4,0.6,0C593.8,267.8,594.1,256.1,594.3,244.4z"/>
	<path fill="#F6F6F6" d="M596.4,211.4c0-0.2-0.3-0.2-0.3,0c-0.1,23.3,0.7,46.7,1.3,69.9c0,0.4,0.6,0.4,0.6,0
		C597.6,258.1,597.5,234.7,596.4,211.4z"/>
	<path fill="#F6F6F6" d="M599.9,210c0-0.2-0.4-0.2-0.4,0c0.5,23.4,1.5,46.8,1.8,70.2c0,0.4,0.6,0.4,0.6,0
		C601.7,256.9,601.5,233.4,599.9,210z"/>
	<path fill="#F6F6F6" d="M567.9,266.8c-0.3,0-0.6,0-0.9,0c0-1.7-0.1-3.4-0.1-5.1c0.2-0.1,0.2-0.4,0-0.5c0-1.4-0.1-2.9-0.2-4.3
		c0,0,0.1,0,0.1,0c0.3,0,0.3-0.5,0-0.5c0,0-0.1,0-0.1,0c0-0.8-0.1-1.5-0.1-2.3c0.2-0.1,0.2-0.4,0-0.5c0-0.8-0.1-1.7-0.1-2.5
		c0,0,0,0,0,0c-0.1-3.2-0.2-6.3-0.3-9.5c0.1-0.1,0.1-0.3,0-0.4c0-0.1,0-0.2,0-0.3c0-0.3-0.4-0.3-0.4,0c0,0.1,0,0.2,0,0.3
		c-3.2-0.1-6.5-0.1-9.7,0c-1,0-3.4-0.5-3.9,0.5c0,0,0,0.1,0,0.1c0.1,0,0.1,0.1,0.2,0.1c0,0,0.1,0,0.1,0l0.1-0.1c0,0,0-0.1-0.1-0.1
		c0.2-0.2,1.1-0.1,1.8,0c0,0.9,0,1.9,0,2.8c-0.5,0-1.1,0-1.6,0c-0.2,0-0.2,0.4,0,0.4c0.5,0,1.1,0.1,1.6,0.1c0,1.1,0,2.3,0,3.4
		c-0.3,0-0.7,0-1-0.1c0.2,0,0.2-0.2,0.1-0.3c0,0-0.1,0-0.1,0c-0.1,0-0.1,0-0.2,0.1c0,0.1-0.1,0.1-0.1,0.2c0,0.1,0,0.1,0,0.2
		c0.3,0.3,0.7,0.4,1.3,0.4c0,0.7,0,1.3,0,2c-0.5,0-0.9,0-1.4,0c-0.2,0-0.2,0.3,0,0.3c0.5,0,1,0.1,1.4,0.1c0,1,0.1,2,0.1,3
		c-0.6,0.1-1.2,0.1-1.8,0.2c-0.2,0-0.2,0.3,0,0.3c0.6,0,1.2,0,1.8,0c0,0.7,0.1,1.4,0.1,2.2c-0.6,0-1.3,0.1-1.9,0.1
		c-0.2,0-0.2,0.3,0,0.3c0.6,0,1.3,0,1.9,0c0.1,1.3,0.1,2.6,0.2,3.9c-0.2,0-0.5,0-0.7,0c-0.2,0-0.2,0.2,0,0.3c0.2,0,0.5,0,0.7,0.1
		c0,1,0.1,1.9,0.2,2.9c-0.4,0-0.8,0-1.1,0.1c-0.2,0-0.2,0.3,0,0.3c0.4,0,0.8,0,1.2,0c0,0.8,0.1,1.5,0.1,2.3c-0.7,0-1.4,0-2.1,0.1
		c-0.2,0-0.2,0.3,0,0.3c0.7,0,1.4,0,2.1,0c0.1,1.1,0.1,2.2,0.2,3.2c-0.7,0-1.4,0-2.1,0c-0.2,0-0.1,0.2,0,0.2c0.7,0,1.4,0.1,2.1,0.1
		c0.1,0.8,0.1,1.6,0.2,2.4c-0.6,0-1.1,0-1.7,0c-0.2,0-0.2,0.3,0,0.3c0.6,0,1.1,0.1,1.7,0.1c0,0.7,0.1,1.3,0.1,2c-0.8,0-1.6,0-2.4,0
		c-0.2,0-0.2,0.3,0,0.3c0.8,0.1,1.6,0.1,2.5,0.1c0,0.7,0.1,1.4,0.2,2.1c-1,0-1.9-0.1-2.9-0.2c-0.2,0-0.2,0.3,0,0.3
		c1,0.1,1.9,0.2,2.9,0.3c0,0.4,0.1,0.9,0.1,1.3c0,0.3,0.5,0.3,0.5,0c0-0.4,0-0.9,0-1.3c0.9,0.1,1.7,0.1,2.6,0.1
		c0,0.9,0.1,1.9,0.1,2.8c0,0.4,0.5,0.4,0.6,0c0-0.9,0-1.9,0.1-2.8c1.1,0,2.1,0,3.2,0c0,0.5,0,1,0,1.5c0,0.4,0.6,0.4,0.6,0
		c0-0.5,0-1,0-1.5c1,0,1.9-0.1,2.9-0.2c0,0.4,0,0.7,0.1,1.1c0,0.4,0.6,0.4,0.6,0c0-0.4,0-0.8,0-1.1c0.2,0,0.3,0,0.5,0
		c0.4,0,0.4-0.6,0-0.6c-0.2,0-0.3,0-0.5,0c0-0.8,0-1.6,0-2.5c0.1,0,0.2,0,0.2,0c0.2,0,0.1-0.3,0-0.3c-0.1,0-0.1,0-0.2,0
		c0-0.5,0-1.1,0-1.6c0.1,0,0.2,0,0.2,0c0.2,0,0.2-0.4,0-0.4c-0.1,0-0.2,0-0.2,0c0-1,0-1.9,0-2.9c0.2,0,0.4-0.1,0.6-0.1
		c0.2,0,0.2-0.4-0.1-0.4c-0.2,0-0.4,0-0.5,0c0-0.8,0-1.7-0.1-2.5c0.3,0,0.6,0,0.9,0C568.2,267.2,568.2,266.8,567.9,266.8z
		 M554.9,244.9c1.3,0.1,2.6,0.1,4,0.2c0,1,0,1.9,0,2.9c0,0,0,0-0.1,0c-1.1,0-2.4,0.3-3.6,0.3C555.1,247.2,555,246.1,554.9,244.9z
		 M555.2,248.8c0.9,0,1.8-0.2,2.3-0.2c0.5,0,0.9,0,1.4,0c0,0.7,0,1.4,0,2.2c-1.2,0-2.3,0-3.5,0C555.3,250.1,555.2,249.5,555.2,248.8
		z M555.3,251.2c1.1,0.1,2.3,0.2,3.4,0.2c0,0.8,0,1.6,0,2.4c-1.1,0.1-2.2,0.1-3.2,0.2C555.5,253.1,555.4,252.2,555.3,251.2z
		 M555.7,256.7c0-0.7-0.1-1.4-0.1-2.1c1.1,0,2.1,0,3.2,0c0,0.7,0,1.3,0,2C557.7,256.6,556.7,256.7,555.7,256.7z M555.7,257.1
		c1,0,2,0,3,0c0,1.3,0,2.5,0,3.8c-1,0-1.9,0-2.8,0C555.8,259.7,555.7,258.4,555.7,257.1z M555.9,261.4c0.9,0.1,1.9,0.1,2.8,0.2
		c0,0.8,0,1.6,0,2.4c-0.9,0-1.8,0.1-2.7,0.1C556,263.3,555.9,262.4,555.9,261.4z M556,264.6c0.9,0,1.8,0,2.7,0c0,0.7,0,1.5,0,2.2
		c-0.9,0-1.8,0-2.6,0.1C556.1,266.1,556,265.4,556,264.6z M556.1,267.3c0.9,0,1.8,0,2.6,0c0,1,0,2,0,3.1c-0.9,0-1.7,0.1-2.6,0.1
		C556.2,269.4,556.1,268.3,556.1,267.3z M556.2,270.8c0.9,0,1.7,0,2.6,0c0,0.8,0,1.5,0,2.3c-0.9,0-1.7,0-2.6,0
		C556.2,272.4,556.2,271.6,556.2,270.8z M556.3,273.6c0.9,0,1.7,0.1,2.6,0.1c0,0.6,0,1.2,0,1.8c-0.9,0-1.7,0.1-2.6,0.1
		C556.3,274.9,556.3,274.3,556.3,273.6z M556.4,278.3c0-0.7,0-1.4,0-2.1c0.9,0,1.7,0.1,2.6,0.1c0,0.7,0.1,1.4,0.1,2.1
		C558.1,278.3,557.2,278.3,556.4,278.3z M559.3,245.1c0.9,0,1.8,0,2.6,0c0,0.9,0,1.8,0,2.6c-0.9,0-1.7,0.1-2.6,0.2
		C559.3,247,559.3,246.1,559.3,245.1z M559.4,248.6c0.9,0,1.7,0,2.6-0.1c0,0.7,0,1.5,0,2.2c-0.9,0-1.7,0-2.6,0
		C559.4,250.1,559.4,249.3,559.4,248.6z M559.4,251.5c0.9,0,1.7,0.1,2.6,0.1c0,0.7,0,1.4,0.1,2.1c-0.9,0-1.7,0.1-2.6,0.1
		C559.5,253,559.5,252.3,559.4,251.5z M559.5,254.6c0.9,0,1.7-0.1,2.6-0.1c0,0.7,0,1.3,0.1,2c-0.9,0-1.7,0-2.6,0.1
		C559.6,255.9,559.5,255.2,559.5,254.6z M559.6,257.2c0.9,0,1.7,0,2.6,0c0,1.3,0.1,2.6,0.1,3.9c-0.9,0-1.7,0-2.6,0
		C559.7,259.7,559.6,258.4,559.6,257.2z M559.7,261.7c0.9,0,1.8,0.1,2.6,0.1c0,0.7,0.1,1.4,0.1,2.2c-0.9,0-1.8,0-2.7,0.1
		C559.7,263.2,559.7,262.4,559.7,261.7z M559.8,273.2c0-0.8,0-1.5,0-2.3c1,0,1.9-0.1,2.9-0.1c0,0.8,0,1.6,0.1,2.4
		C561.8,273.2,560.8,273.2,559.8,273.2z M562.8,273.7c0,0.5,0,1.1,0,1.6c-1,0-2,0.1-3,0.1c0-0.6,0-1.2,0-1.7
		C560.8,273.7,561.8,273.7,562.8,273.7z M559.8,270.3c0-1,0-2,0-3c0.9,0,1.8,0,2.8,0c0,0.9,0.1,1.9,0.1,2.8
		C561.7,270.2,560.7,270.3,559.8,270.3z M559.8,266.8c0-0.7,0-1.4,0-2.2c0.9,0,1.8,0,2.7,0c0,0.7,0.1,1.5,0.1,2.2
		C561.6,266.8,560.7,266.8,559.8,266.8z M559.7,278.3c0-0.7,0-1.4,0-2.1c1,0,2-0.1,3.1-0.1c0,0.7,0,1.5,0,2.2
		C561.8,278.3,560.8,278.3,559.7,278.3z M562.7,248.5c0.7-0.1,1.5-0.1,2.2-0.3c0.3-0.1,0.2-0.4-0.1-0.4c-0.7,0-1.5,0-2.2,0
		c-0.1-0.9-0.2-1.7-0.3-2.6c1,0,2-0.1,3-0.2c0.4,0,0.4-0.5,0-0.6c-1,0-2.1-0.1-3.1-0.1c-0.1-0.7-0.2-1.4-0.3-2.2c0-0.1-0.1,0-0.1,0
		c0,0.7,0,1.4,0,2.1c-0.9,0-1.8,0-2.7,0c0-0.7,0-1.4-0.1-2.1c0-0.2-0.3-0.2-0.3,0c0,0.7,0,1.4,0,2.1c-1.3,0-2.7,0-4,0
		c-0.1-0.9-0.2-1.9-0.2-2.8c0.1,0,0.3,0,0.4,0c1.3,0,2.6,0,3.9,0.1c2.3,0,4.6,0.1,6.9,0c0,3,0,6.1-0.1,9.1c-0.9,0-1.8-0.1-2.7-0.1
		C562.9,250,562.8,249.3,562.7,248.5z M563,251.6c0.9,0,1.8-0.1,2.7-0.1c0,0.7,0,1.5,0,2.2c-0.8,0-1.7,0-2.5,0
		C563.1,252.9,563,252.2,563,251.6z M563.2,254.4c0.8,0,1.7-0.1,2.5-0.2c0,0.7,0,1.5,0,2.2c-0.8,0-1.6,0-2.4,0
		C563.3,255.7,563.2,255.1,563.2,254.4z M563.3,257.1c0.8,0,1.6-0.1,2.4-0.1c0,1.4,0,2.8,0,4.2c-0.7,0-1.5-0.1-2.2-0.1
		C563.4,259.7,563.4,258.4,563.3,257.1z M563.5,261.8c0.7,0,1.5,0,2.2,0c0,0.7,0,1.4,0,2.2c-0.7,0-1.5,0-2.2,0
		C563.5,263.2,563.5,262.5,563.5,261.8z M563.5,264.6c0.7,0,1.5-0.1,2.2-0.1c0,0.8,0,1.6,0.1,2.4c-0.8,0-1.5,0-2.3,0
		C563.5,266,563.5,265.3,563.5,264.6z M566.4,278c-0.9,0.1-1.9,0.1-2.8,0.2c0-0.7,0-1.5,0-2.2c0.9-0.1,1.8-0.2,2.6-0.3
		C566.2,276.5,566.3,277.3,566.4,278z M566.2,275.2c-0.9,0-1.7,0.1-2.6,0.1c0-0.5,0-1,0-1.6c0.8,0,1.7-0.1,2.5-0.1
		C566.1,274.1,566.1,274.7,566.2,275.2z M566.1,273.1c-0.8,0-1.7,0-2.5,0c0-0.8,0-1.6,0-2.4c0.8-0.1,1.6-0.2,2.4-0.3
		C566,271.3,566,272.2,566.1,273.1z M565.9,269.9c-0.8,0.1-1.6,0.1-2.3,0.2c0-0.9,0-1.8,0-2.7c0.8,0,1.5,0,2.3,0
		C565.9,268.1,565.9,269,565.9,269.9z"/>
	<path fill="#F6F6F6" d="M535.8,245.8c0-0.2-0.4-0.2-0.4,0c0.3,11.6,1.1,23.1,1.5,34.7c0,0.4,0.6,0.4,0.6,0
		C537.5,269,537.2,257.3,535.8,245.8z"/>
	<path fill="#F6F6F6" d="M535.1,275.1c-0.1-3.5-0.3-6.9-0.4-10.4c-0.2-3.2-0.3-6.4-0.6-9.6c-0.2-2.5,0-5.8-1-8.2c0,0,0,0,0,0
		c0.8,5.5,0.7,11.4,1,17c0.1,2.7,0.2,5.3,0.3,8c0.1,1.3,0.1,2.7,0.2,4c0,1.2,0.8,4.1,0.4,5.1c0.1-0.2-0.3-0.4-0.4-0.2
		c0,0-0.1,0.1-0.1,0.1c-0.1,0.1,0,0.2,0.1,0.3c0.1,0,0.1,0.1,0.2,0.1c0.1,0.1,0.3,0,0.3-0.1C535.8,279.5,535.1,276.9,535.1,275.1z"
		/>
	<path fill="#F6F6F6" d="M530.5,245.8c0-0.2-0.3-0.1-0.3,0c0.9,11.8,1.7,23.4,1.9,35.2c0,0.3,0.5,0.3,0.5,0
		C532.7,269.4,532.2,257.4,530.5,245.8z"/>
	<path fill="#F6F6F6" d="M527.8,246.4c0-0.2-0.3-0.2-0.3,0c0.6,11.8,0.8,23.7,1.7,35.5c0,0.3,0.4,0.3,0.4,0
		C529.9,270.2,528.9,258.1,527.8,246.4z"/>
	<path fill="#F6F6F6" d="M524.8,245.9c0-0.2-0.3-0.2-0.3,0c0.1,12.3,0.9,24.8,2.9,36.9c0,0.2,0.5,0.2,0.4-0.1
		C526.3,270.4,525.2,258.2,524.8,245.9z"/>
	<path fill="#F6F6F6" d="M518.5,253.9c-3.9-0.2-7.8-0.2-11.7,0.2c-0.2,0-0.2,0.2,0,0.2c3.9,0.1,7.8,0.1,11.7,0.1
		C518.9,254.5,518.9,253.9,518.5,253.9z"/>
	<path fill="#F6F6F6" d="M519.9,255.9c-3.8,0-7.6,0.4-11.4,0.6c-0.2,0-0.2,0.4,0,0.4c3.8-0.2,7.6-0.2,11.4-0.6
		C520.2,256.3,520.2,255.9,519.9,255.9z"/>
	<path fill="#F6F6F6" d="M519.6,258.3c-4.2,0.2-8.3,0.3-12.5-0.1c-0.2,0-0.2,0.3,0,0.3c4.1,0.6,8.4,0.8,12.5,0.3
		C520,258.8,520,258.3,519.6,258.3z"/>
	<path fill="#F6F6F6" d="M519.6,261.3c-3.9-0.1-7.8,0.1-11.6,0.4c-0.2,0-0.2,0.3,0,0.3c3.9,0,7.8,0.1,11.6-0.3
		C519.9,261.7,519.9,261.4,519.6,261.3z"/>
	<path fill="#F6F6F6" d="M519.1,263.9c-3.8-0.2-7.8-0.1-11.7,0.4c-0.2,0-0.2,0.3,0,0.3c3.9,0,7.8-0.1,11.7-0.2
		C519.4,264.4,519.4,263.9,519.1,263.9z"/>
	<path fill="#F6F6F6" d="M519.6,266.7c-2.6,0-5.3,0.1-7.9,0.3c-0.9,0-2.8-0.4-3.4,0.4c0,0.1,0,0.1,0,0.2c0,0,0.1,0.1,0.1,0.1
		c0.1,0.1,0.1,0.1,0.2,0c0,0,0.1-0.1,0.1-0.1c0.1-0.1,0-0.2-0.1-0.2c0.5-0.1,2.3,0.1,2.7,0.1c0.8,0,1.7,0,2.5,0
		c1.9,0,3.9-0.1,5.8-0.2C520,267.2,520,266.7,519.6,266.7z"/>
	<path fill="#F6F6F6" d="M520.2,270.3c-3.9,0-7.8,0.3-11.7,0.6c-0.2,0-0.3,0.4,0,0.4c3.9-0.1,7.8-0.2,11.7-0.5
		C520.5,270.7,520.5,270.3,520.2,270.3z"/>
	<path fill="#F6F6F6" d="M519.6,274.2c-3.6,0.1-7.2,0.3-10.8,0.4c-0.2,0-0.2,0.2,0,0.2c3.6,0.2,7.3,0.2,10.8-0.2
		C519.9,274.6,520,274.2,519.6,274.2z"/>
	<path fill="#F6F6F6" d="M520.1,277c-4.2,1.3-8.3,1.8-12.7,0.8c-0.2,0-0.3,0.3-0.1,0.3c4.3,1,8.8,0.9,12.9-0.7
		C520.6,277.4,520.5,276.9,520.1,277z"/>
	<path fill="#F6F6F6" d="M487.2,210.1c-3.8,0.3-7.6,0.6-11.4,0.6c-0.3,0-0.3,0.4,0,0.4c3.8,0.1,7.7,0,11.4-0.6
		C487.5,210.5,487.4,210,487.2,210.1z"/>
	<path fill="#F6F6F6" d="M486.6,213.4c-3.3,0.3-6.6,0.5-10,0.2c-0.2,0-0.2,0.4,0,0.4c3.4,0.3,6.7,0.4,10.1-0.1
		C487,213.8,486.9,213.3,486.6,213.4z"/>
	<path fill="#F6F6F6" d="M487.7,216c-3.1-0.2-6.4,0.3-9.4,0.7c-0.3,0-0.3,0.4,0,0.4c3.1-0.4,6.3-0.4,9.4-0.7
		C488,216.4,488,216,487.7,216z"/>
	<path fill="#F6F6F6" d="M488,218.6c-3.4-0.2-6.9-0.1-10.3,0.2c-0.2,0-0.2,0.3,0,0.3c3.4,0.2,6.9,0.3,10.3,0
		C488.3,219.1,488.3,218.7,488,218.6z"/>
	<path fill="#F6F6F6" d="M487.7,221.5c-3.5,0-7,0.3-10.5,0.3c-0.2,0-0.2,0.4,0,0.4c3.5,0.1,7.1,0.2,10.6-0.3
		C488,221.9,488,221.5,487.7,221.5z"/>
	<path fill="#F6F6F6" d="M487.7,225.4c-3.4,0.2-6.8,0.3-10.3,0c-0.3,0-0.3,0.4,0,0.4c3.4,0.4,6.8,0.4,10.3,0
		C488,225.7,488,225.3,487.7,225.4z"/>
	<path fill="#F6F6F6" d="M488.3,229.4c-3.6-0.3-7.5,0.3-11.1,0.6c-0.3,0-0.3,0.4,0,0.4c3.7-0.3,7.5-0.2,11.1-0.7
		C488.5,229.7,488.5,229.4,488.3,229.4z"/>
	<path fill="#F6F6F6" d="M488,232.3c-3.1-0.1-6.1,0-9.2,0.1c-0.2,0-0.2,0.4,0,0.4c3.1,0,6.1,0.1,9.2,0
		C488.3,232.8,488.3,232.3,488,232.3z"/>
	<path fill="#F6F6F6" d="M488.6,235.7c-3.5-0.4-7.1-0.1-10.5,0.2c-0.2,0-0.2,0.3,0,0.3c3.5-0.2,7-0.1,10.5-0.2
		C488.8,236,488.8,235.7,488.6,235.7z"/>
	<path fill="#F6F6F6" d="M488.8,239.2c-3.5,0.6-6.7,0.7-10.2,0.4c-0.1,0-0.2,0.2,0,0.2c3.4,0.8,7,0.7,10.4-0.2
		C489.2,239.6,489,239.2,488.8,239.2z"/>
	<path fill="#F6F6F6" d="M488.3,242.8c-3.3,0.3-6.7,0.4-10,0.6c-0.2,0-0.2,0.3,0,0.4c3.3,0.2,6.7-0.1,10.1-0.5
		C488.6,243.3,488.6,242.8,488.3,242.8z"/>
	<path fill="#F6F6F6" d="M488.8,246.5c-3.7,0-7.4,0.1-11.1,0.3c-0.2,0-0.2,0.4,0,0.4c3.7,0,7.4,0,11.1-0.2
		C489.1,246.9,489.1,246.5,488.8,246.5z"/>
	<path fill="#F6F6F6" d="M488.8,251.5c-3.8,0.2-7.6,0.3-11.4,0.1c-0.2,0-0.2,0.3,0,0.3c3.8,0.4,7.7,0.5,11.4,0
		C489.1,251.8,489.1,251.5,488.8,251.5z"/>
	<path fill="#F6F6F6" d="M488.3,256.9c-3.3-0.3-6.7-0.3-10-0.3c-0.2,0-0.2,0.4,0,0.4c3.3,0.2,6.7,0.4,10,0.2
		C488.5,257.2,488.5,256.9,488.3,256.9z"/>
	<path fill="#F6F6F6" d="M490,260c-3.8,0-7.6,0.1-11.4,0.2c-0.2,0-0.2,0.3,0,0.3c3.8,0.1,7.6,0.1,11.4-0.1
		C490.2,260.4,490.2,260,490,260z"/>
	<path fill="#F6F6F6" d="M487.2,263.1c-3.4,0.2-6.6,0.3-10,0c-0.2,0-0.2,0.3,0,0.3c3.3,0.4,6.7,0.5,10,0
		C487.4,263.4,487.4,263.1,487.2,263.1z"/>
	<path fill="#F6F6F6" d="M488,267c-3.5,0.6-6.9,0.7-10.5,0.3c-0.1,0-0.2,0.2,0,0.2c3.5,0.5,7.1,0.5,10.6-0.2
		C488.3,267.3,488.2,267,488,267z"/>
	<path fill="#F6F6F6" d="M490,270.9c-3.9,0.5-7.7,0.7-11.7,0.3c-0.2,0-0.2,0.3,0,0.3c3.9,0.5,7.8,0.5,11.7-0.2
		C490.2,271.3,490.2,270.9,490,270.9z"/>
	<path fill="#F6F6F6" d="M489.7,275.1c-3.6,0.2-7.2,0.3-10.8,0c-0.2,0-0.2,0.3,0,0.4c3.6,0.3,7.3,0.4,10.9-0.1
		C489.9,275.4,489.8,275.1,489.7,275.1z"/>
	<path fill="#F6F6F6" d="M490.2,278c-3.8,0.2-7.5,0.6-11.4,0.3c-0.2,0-0.2,0.3,0,0.3c3.7,0.4,7.7,0.7,11.4-0.2
		C490.5,278.3,490.4,277.9,490.2,278z"/>
	<path fill="#F6F6F6" d="M473,269.8c-0.8,0.1-1.6,0.2-2.3,0.3c0-1.3,0-2.7,0-4c0.6-0.2,1.2-0.3,1.8-0.5c0.3-0.1,0.2-0.5-0.1-0.5
		c-0.6,0.1-1.1,0.2-1.7,0.3c0-0.8,0-1.6,0-2.4c0.5-0.1,1-0.2,1.6-0.3c0.2,0,0.2-0.4,0-0.3c-0.5,0-1,0.1-1.5,0.1c0-1,0-2.1,0-3.1
		c0.4-0.1,0.9-0.2,1.3-0.3c0.2-0.1,0.2-0.4-0.1-0.4c-0.4,0.1-0.9,0.1-1.3,0.2c0-1.1,0-2.1,0-3.2c0.2-0.1,0.1-0.3,0-0.3
		c0-0.8,0-1.5,0-2.3c0.3-0.1,0.6-0.1,0.9-0.2c0.3-0.1,0.2-0.5-0.1-0.5c-0.2,0-0.5,0.1-0.7,0.1c0-0.8,0-1.7,0-2.5
		c0.6-0.1,1.2-0.2,1.8-0.3c0.2,0,0.2-0.4-0.1-0.4c-0.6,0-1.1,0.1-1.7,0.2c0-1.9-0.1-3.7-0.1-5.6c0-0.2-0.3-0.2-0.3,0
		c0,0.8,0,1.5,0,2.3c0,0,0,0-0.1,0c-1.3,0-2.6,0-3.9,0c0-0.8-0.1-1.6-0.1-2.5c1.6,0,3.2,0,4.8,0c0.4,0,0.3-0.5,0-0.5
		c-1.6-0.1-3.2-0.2-4.9-0.1c0-0.2,0-0.4,0-0.5c0-0.2-0.3-0.2-0.3,0c0,0.2,0,0.4,0,0.5c-2.1,0-4.3,0.1-6.4,0.3c0-0.8,0-1.7,0-2.5
		c0-0.2-0.3-0.2-0.3,0c-0.1,0.8-0.1,1.7-0.1,2.5c-0.4,0-0.8,0.1-1.2,0.1c-0.2,0-0.2,0.3,0,0.3c0.4,0,0.8,0,1.2,0
		c0,0.8-0.1,1.7-0.1,2.5c-0.3,0-0.5,0-0.8,0c-0.2,0-0.2,0.3,0,0.4c0.3,0,0.5,0,0.8,0c-0.1,2.1-0.2,4.1-0.2,6.2c-0.1,0-0.2,0-0.3,0
		c-0.2,0-0.2,0.2-0.1,0.3c0.1,0,0.2,0,0.4,0.1c-0.2,8.9-0.2,17.8,0.2,26.6c0,0.3,0.5,0.3,0.5,0c0-0.3,0-0.5,0-0.8
		c0,0.1,0.1,0.1,0.2,0.1c0.7,0,1.5,0,2.2,0c0,1.2,0,2.4,0.1,3.7c0,0.3,0.5,0.3,0.5,0c0.1-1.2,0.1-2.4,0.2-3.7c1.3,0,2.6,0,3.9-0.1
		c0.1,2.1,0.1,4.2,0.2,6.3c0,0.4,0.6,0.4,0.6,0c0-2.1,0-4.2,0-6.3c1.1-0.1,2.2-0.2,3.3-0.3c0,1,0,2,0.1,3c0,0.4,0.6,0.4,0.6,0
		c0-1,0-2,0.1-3c0.1,0,0.3,0,0.4,0c0.3,0,0.3-0.4,0-0.4c-0.1,0-0.3,0-0.4,0c0-0.9,0-1.7,0-2.6c0.5-0.1,1-0.3,1.5-0.4
		c0.2-0.1,0.1-0.4-0.1-0.4c-0.5,0.1-1,0.2-1.4,0.3c0-0.5,0-1.1,0-1.6c0.7-0.2,1.4-0.4,2.1-0.6c0.2-0.1,0.1-0.3-0.1-0.3
		c-0.7,0.1-1.3,0.2-2,0.3c0-0.7,0-1.4,0-2.1c0.8-0.1,1.6-0.3,2.4-0.5C473.3,270.2,473.3,269.8,473,269.8z M459.2,278.7
		c-0.1,0-0.1,0.1-0.2,0.1c0-2.6,0.1-5.1,0.1-7.7c0.7,0,1.4,0.1,2.2,0.1c0,0.8,0,1.6,0,2.4c-0.4,0-0.9,0-1.3,0c-0.2,0-0.2,0.3,0,0.3
		c0.4,0,0.9,0.1,1.3,0.1c0,0.6,0,1.1,0,1.7c-0.4,0-0.7,0-1.1-0.1c-0.2,0-0.2,0.3,0,0.4c0.4,0,0.7,0.1,1.1,0.1c0,0.8,0,1.5,0,2.3
		C460.6,278.6,459.9,278.6,459.2,278.7z M461.3,263.2c-0.4,0-0.9,0-1.3,0c-0.2,0-0.2,0.4,0,0.4c0.4,0,0.9,0,1.3,0c0,1.1,0,2.2,0,3.3
		c-0.4,0-0.9,0.1-1.3,0.1c-0.2,0-0.2,0.2,0,0.2c0.4,0,0.9,0,1.3,0c0,1.2,0,2.3,0,3.5c-0.7,0-1.4,0-2.2,0c0-3.4,0.1-6.8,0.1-10.2
		c0.7,0,1.4,0,2.2-0.1C461.4,261.4,461.3,262.3,461.3,263.2z M461.4,259.9c-0.7,0.1-1.4,0.1-2.2,0.1c0-1,0-2,0-3
		c0.7,0,1.5,0,2.2-0.1C461.4,258,461.4,259,461.4,259.9z M461.5,256.5c-0.7,0.1-1.5,0.1-2.2,0.2c0-1.1,0-2.3,0-3.4
		c0.8,0.1,1.5,0.2,2.3,0.3C461.5,254.5,461.5,255.5,461.5,256.5z M461.7,250.5c-0.7,0.1-1.3,0.1-2,0.2c-0.3,0-0.3,0.4,0,0.4
		c0.6,0,1.3-0.1,1.9-0.1c0,0.7-0.1,1.5-0.1,2.2c-0.8,0-1.5-0.1-2.3-0.2c0-2.1,0-4.2,0-6.3c0.9,0,1.7,0.1,2.6,0.1
		C461.8,248,461.7,249.2,461.7,250.5z M461.8,246.2c-0.9,0-1.8,0-2.7,0c0-0.8,0-1.7,0-2.5c0.9,0,1.9-0.1,2.8-0.1
		C461.9,244.5,461.9,245.4,461.8,246.2z M465.8,273.5c-1.2,0.1-2.4,0.2-3.6,0.2c0-0.8,0-1.6,0.1-2.4c1.2,0,2.3,0,3.5-0.1
		C465.8,272,465.8,272.7,465.8,273.5z M462.4,250.4c0-1.2,0-2.4-0.1-3.6c1.1,0,2.2,0,3.3,0c0,1.1,0,2.2,0,3.2
		C464.5,250.2,463.5,250.3,462.4,250.4z M465.6,250.7c0,0.8,0,1.6,0,2.4c-1,0.1-2.1,0.1-3.1,0.1c0-0.8,0-1.5,0-2.3
		C463.5,250.9,464.5,250.8,465.6,250.7z M465.8,270.6c-1.1,0.1-2.3,0.2-3.4,0.2c0-1.2,0.1-2.3,0.1-3.5c1.1,0,2.2-0.1,3.3-0.3
		C465.7,268.2,465.7,269.4,465.8,270.6z M465.7,266.3c-1.1,0.2-2.2,0.3-3.3,0.4c0-1,0-2.1,0-3.1c1.1,0,2.1,0,3.2-0.1
		C465.7,264.5,465.7,265.4,465.7,266.3z M465.6,262.9c-1.1,0.1-2.1,0.2-3.2,0.2c0-0.9,0-1.8,0-2.7c1.1,0,2.1-0.1,3.1-0.2
		C465.6,261.1,465.6,262,465.6,262.9z M465.6,259.5c-1,0.1-2.1,0.2-3.1,0.3c0-1,0-2,0-3c1-0.1,2.1-0.2,3.1-0.3
		C465.6,257.6,465.6,258.6,465.6,259.5z M465.6,256c-1,0.1-2.1,0.3-3.1,0.4c0-0.9,0-1.9,0-2.8c1,0.1,2.1,0.1,3.1,0
		C465.6,254.4,465.6,255.2,465.6,256z M465.6,243.7c0,0.8,0,1.6,0,2.5c-1.1,0-2.2,0-3.3,0.1c0-0.8,0-1.7-0.1-2.5
		C463.4,243.7,464.5,243.7,465.6,243.7z M462.2,274.1c1.2,0.1,2.4,0.1,3.6,0c0,0.5,0,1.1,0,1.6c-1.2,0.1-2.4,0.1-3.7,0.1
		C462.2,275.2,462.2,274.7,462.2,274.1z M462.1,278.4c0-0.7,0.1-1.5,0.1-2.2c1.2,0.1,2.5,0.1,3.7,0c0,0.6,0,1.3,0.1,1.9
		C464.7,278.2,463.4,278.3,462.1,278.4z M466.1,246.8c1.3,0,2.6-0.1,3.9-0.2c0,0,0,0,0.1,0c0,1,0,2,0,3c-1.3,0.1-2.5,0.3-3.8,0.4
		C466.1,248.9,466.1,247.9,466.1,246.8z M466.2,250.6c1.3-0.1,2.5-0.3,3.8-0.5c0,0.8,0,1.7,0,2.5c-1.2,0.2-2.5,0.3-3.7,0.4
		C466.3,252.3,466.2,251.5,466.2,250.6z M466.3,253.6c1.2-0.1,2.4-0.2,3.7-0.4c0,0.7,0,1.5,0,2.2c-1.2,0.2-2.4,0.3-3.6,0.5
		C466.3,255.2,466.3,254.4,466.3,253.6z M466.4,259.4c0-1,0-1.9-0.1-2.9c1.2-0.2,2.4-0.4,3.6-0.6c0,1,0,2.1,0,3.1
		C468.7,259.1,467.6,259.3,466.4,259.4z M466.4,260.1c1.2-0.1,2.3-0.3,3.4-0.5c0,1,0,2,0,3c-1.1,0.1-2.2,0.2-3.4,0.3
		C466.5,261.9,466.5,261,466.4,260.1z M466.5,263.5c1.1-0.1,2.2-0.2,3.3-0.3c0,0.8,0,1.6,0,2.4c-1.1,0.2-2.2,0.4-3.3,0.6
		C466.5,265.3,466.5,264.4,466.5,263.5z M466.6,270.5c0-1.2,0-2.4,0-3.6c1.1-0.2,2.2-0.4,3.3-0.6c0,1.3,0,2.6,0,3.9
		C468.8,270.3,467.7,270.4,466.6,270.5z M469.9,278.1c-1.1,0-2.2,0-3.3,0c0-0.6,0-1.3,0-1.9c1.1-0.1,2.2-0.2,3.2-0.5
		C469.9,276.5,469.9,277.3,469.9,278.1z M469.9,275.2c-1.1,0.2-2.1,0.3-3.2,0.5c0-0.5,0-1,0-1.6c1.1-0.1,2.2-0.2,3.2-0.5
		C469.9,274.1,469.9,274.6,469.9,275.2z M469.9,272.9c-1.1,0.2-2.1,0.3-3.2,0.4c0-0.7,0-1.5,0-2.2c1.1-0.1,2.2-0.2,3.2-0.3
		C469.9,271.5,469.9,272.2,469.9,272.9z"/>
	<path fill="#F6F6F6" d="M430.6,236.2c-2.6,0-5.2,0.2-7.8,0.5c-0.2,0-0.2,0.4,0,0.4c2.6-0.3,5.2-0.4,7.8-0.5
		C430.8,236.6,430.8,236.2,430.6,236.2z"/>
	<path fill="#F6F6F6" d="M431.1,238.2c-2.2,0.2-4.4,0.3-6.7,0.3c-0.2,0-0.2,0.4,0,0.4c2.3,0.1,4.5,0.1,6.7-0.3
		C431.4,238.5,431.3,238.2,431.1,238.2z"/>
	<path fill="#F6F6F6" d="M431.1,241.2c-2,0-4.1,0.2-6.1,0.3c-0.2,0-0.2,0.3,0,0.3c2-0.1,4.1-0.1,6.1-0.3
		C431.4,241.6,431.4,241.2,431.1,241.2z"/>
	<path fill="#F6F6F6" d="M431.1,243.7c-0.9,0.1-1.9,0.2-2.8,0.3c-0.9,0-2.2,0.2-3.1-0.1c0.2,0,0.3-0.2,0.1-0.3
		c-0.5-0.2-0.6,0.3-0.2,0.6c0.5,0.4,2.1,0.2,2.7,0.2c1.1,0,2.3-0.1,3.4-0.3C431.4,244.1,431.4,243.6,431.1,243.7z"/>
	<path fill="#F6F6F6" d="M431.4,246.2c-2.1,0.1-4.3,0-6.4-0.3c-0.2,0-0.3,0.3,0,0.4c2.1,0.3,4.3,0.5,6.4,0.3
		C431.7,246.6,431.7,246.2,431.4,246.2z"/>
	<path fill="#F6F6F6" d="M430.8,248.4c-2.1,0.4-4.2,0.3-6.3-0.5c-0.2-0.1-0.3,0.3-0.1,0.4c2.1,0.8,4.3,1,6.5,0.5
		C431.2,248.7,431,248.4,430.8,248.4z"/>
	<path fill="#F6F6F6" d="M431.1,251.1c-2,0.4-4,0.3-6-0.1c-0.2,0-0.3,0.3-0.1,0.4c2,0.5,4.2,0.6,6.2,0.2
		C431.5,251.5,431.3,251.1,431.1,251.1z"/>
	<path fill="#F6F6F6" d="M432.7,255.1c-2.4,0.4-4.8,0.4-7.1-0.1c-0.2-0.1-0.3,0.3-0.1,0.3c2.4,0.7,4.9,0.8,7.3,0.2
		C433.1,255.4,433,255,432.7,255.1z"/>
	<path fill="#F6F6F6" d="M430.8,258.7c-1.6,0.4-3.3,0.5-5,0.3c-0.2,0-0.2,0.3,0,0.3c1.7,0.2,3.4,0.2,5.1-0.2
		C431.1,259,431,258.7,430.8,258.7z"/>
	<path fill="#F6F6F6" d="M432.5,262.4c-2.5,0.1-5,0.3-7.5,0c-0.1,0-0.2,0.2,0,0.3c2.5,0.4,5.1,0.6,7.6,0.2
		C432.8,262.8,432.8,262.4,432.5,262.4z"/>
	<path fill="#F6F6F6" d="M431.9,265.4c-1.3,0.2-2.5,0.4-3.8,0.4c-0.9,0-2.7,0.2-3.5-0.2c0.1,0.1,0.3-0.1,0.1-0.2c0,0-0.1,0-0.1-0.1
		c0,0-0.1,0-0.2,0c0,0-0.1,0.1-0.1,0.1c0,0-0.1,0.1,0,0.2c0.5,0.7,2,0.5,2.7,0.5c1.7,0.1,3.4-0.1,5-0.5
		C432.3,265.7,432.1,265.3,431.9,265.4z"/>
	<path fill="#F6F6F6" d="M432.5,268.7c-2.5,0.2-5,0.3-7.4,0.3c-0.1,0-0.1,0.1,0,0.1c0.2,0.2,0.4,0.3,0.5,0.5c0,0,0,0,0,0
		c-0.5-0.6,1.6-0.4,1.8-0.4c0.6,0,1.1,0,1.7,0c1.2,0,2.3-0.1,3.5-0.3C432.7,269,432.7,268.7,432.5,268.7z"/>
	<path fill="#F6F6F6" d="M432.2,271.5c-2.2,0.5-4.4,0.8-6.6,0.9c-0.2,0-0.2,0.3,0,0.3c2.3,0,4.5-0.3,6.7-0.9
		C432.5,271.8,432.4,271.4,432.2,271.5z"/>
	<path fill="#F6F6F6" d="M433.1,275c-2.7,0.4-5.3,0.4-8-0.2c-0.2,0-0.3,0.3-0.1,0.3c2.7,0.6,5.5,0.8,8.2,0.2
		C433.3,275.4,433.3,275,433.1,275z"/>
	<path fill="#F6F6F6" d="M433.3,278.8c-2.7-0.2-5.6,0.2-8.3,0.3c-0.2,0-0.2,0.3,0,0.3c2.7-0.1,5.6,0.1,8.3-0.2
		C433.6,279.1,433.6,278.8,433.3,278.8z"/>
	<path fill="#F6F6F6" d="M345.6,278.7c-5,0.2-9.9,0.4-15,0.1c-0.2,0-0.2,0.3,0,0.3c4.9,0.5,10,0.6,15,0
		C345.9,279.1,345.9,278.7,345.6,278.7z"/>
	<path fill="#F6F6F6" d="M345.1,276.6c-2.2,0.2-4.3,0.4-6.4,0.6c-2.2,0.1-5.7,0.8-7.7-0.3c-0.2-0.1-0.3,0.2-0.1,0.2
		c1.8,1.1,4.2,0.6,6.2,0.5c2.7-0.1,5.4-0.3,8.1-0.7C345.3,276.9,345.3,276.6,345.1,276.6z"/>
	<path fill="#F6F6F6" d="M345.6,273.1c-4.6,0.4-9.2,1.1-13.9,1.2c-0.2,0-0.2,0.3,0,0.3c4.6,0,9.4-0.2,13.9-1.2
		C345.9,273.4,345.8,273.1,345.6,273.1z"/>
	<path fill="#F6F6F6" d="M345,269.8c-4.4,0.7-8.6,0.9-13,0.4c-0.2,0-0.2,0.3,0,0.3c4.4,0.7,8.8,0.6,13.1-0.4
		C345.4,270.1,345.3,269.8,345,269.8z"/>
	<path fill="#F6F6F6" d="M345.6,267.3c-5.2,0.2-10.3,0.6-15.5,0.4c-0.3,0-0.3,0.4,0,0.4c5.2,0.3,10.5,0.4,15.6-0.4
		C345.9,267.6,345.9,267.3,345.6,267.3z"/>
	<path fill="#F6F6F6" d="M346.8,263.8c-5.3,0.6-10.5,1.3-15.8,1.4c-0.2,0-0.2,0.3,0,0.3c5.3,0,10.7-0.3,15.9-1.3
		C347,264.1,347,263.7,346.8,263.8z"/>
	<path fill="#F6F6F6" d="M345.9,260.3c-5,0.5-9.9,1.4-15,1.8c-0.2,0-0.2,0.3,0,0.3c4.9,0,10.3-0.4,15-1.7
		C346.2,260.6,346.1,260.3,345.9,260.3z"/>
	<path fill="#F6F6F6" d="M344.5,256.5c-4.6,0.4-9.2,0.9-13.9,1.2c-0.2,0-0.2,0.3,0,0.3c4.6,0.1,9.4-0.1,13.9-1.1
		C344.9,256.9,344.8,256.4,344.5,256.5z"/>
	<path fill="#F6F6F6" d="M345.4,253.6c-4.5,0.3-9,0.7-13.6,0.7c-0.2,0-0.2,0.3,0,0.3c4.5,0.1,9.1,0.1,13.6-0.6
		C345.6,254,345.6,253.6,345.4,253.6z"/>
	<path fill="#F6F6F6" d="M344.8,250.6c-5,0.2-10,0.8-15,1c-0.2,0-0.2,0.3,0,0.3c5-0.1,10.1-0.2,15-0.9
		C345.1,250.9,345,250.6,344.8,250.6z"/>
	<path fill="#F6F6F6" d="M343.4,248.1c-4.6,0-9.3,0.2-13.9,0.4c-0.2,0-0.2,0.3,0,0.3c4.6,0,9.3,0,13.9-0.2
		C343.7,248.5,343.7,248.1,343.4,248.1z"/>
	<path fill="#F6F6F6" d="M344.2,244.8c-4.7,0.8-9.3,1.2-14.1,0.7c-0.2,0-0.2,0.2,0,0.3c4.7,0.6,9.6,0.6,14.2-0.5
		C344.6,245.1,344.5,244.7,344.2,244.8z"/>
	<path fill="#F6F6F6" d="M344.8,242.1c-4.3,0.1-8.5,0.6-12.8,0.6c-0.2,0-0.2,0.4,0,0.4c4.2,0.2,8.7,0.2,12.8-0.6
		C345.1,242.5,345.1,242.1,344.8,242.1z"/>
	<path fill="#F6F6F6" d="M343.7,238.7c-4-0.4-8.2-0.2-12.2,0.1c-0.2,0-0.2,0.3,0,0.3c4,0.1,8.2,0.3,12.2,0
		C344,239.1,344,238.7,343.7,238.7z"/>
	<path fill="#F6F6F6" d="M343.7,237.4c-3.9-0.3-7.9-0.2-11.8-0.6c0.2,0,0.2-0.2,0-0.3c-0.1,0-0.1,0-0.2,0c-0.1,0-0.1,0-0.2,0.1
		c0,0.1-0.1,0.1-0.1,0.2c0,0.1,0,0.1,0,0.2c0.8,0.8,3.1,0.5,4.1,0.5c2.7,0.2,5.4,0.4,8,0.4C344.1,238,344,237.5,343.7,237.4z"/>
	<path fill="#F6F6F6" d="M237.7,276.5c-6.4,0-12.8,0.6-19.2,0.8c-0.2,0-0.2,0.4,0,0.4c6.3,0,12.8,0.1,19.2-0.7
		C238,276.9,238,276.5,237.7,276.5z"/>
	<path fill="#F6F6F6" d="M239.9,272.7c-7.2,0.2-14.4,0.8-21.6,1.2c-0.2,0-0.2,0.4,0,0.4c7.2-0.3,14.4-0.4,21.6-1.1
		C240.2,273.2,240.2,272.7,239.9,272.7z"/>
	<path fill="#F6F6F6" d="M239.3,267.1c-6.3,1.1-12.6,2-19.1,2.3c-0.2,0-0.2,0.4,0,0.4c6.5-0.2,12.9-0.9,19.2-2.3
		C239.7,267.5,239.6,267.1,239.3,267.1z"/>
	<path fill="#F6F6F6" d="M239.1,263.4c-6.1,0.4-12.2,1-18.3,1.4c-0.2,0-0.2,0.3,0,0.3c6.1-0.2,12.2-0.4,18.3-1.2
		C239.4,263.8,239.4,263.4,239.1,263.4z"/>
	<path fill="#F6F6F6" d="M239.1,258.4c-6.2,0.5-12.4,1-18.6,1.3c-0.2,0-0.2,0.3,0,0.3c6.2-0.1,12.5-0.4,18.6-1.2
		C239.4,258.7,239.3,258.3,239.1,258.4z"/>
	<path fill="#F6F6F6" d="M238,253.6c-5.9,0.7-11.8,1.1-17.8,0.7c-0.2,0-0.2,0.3,0,0.3c5.9,0.5,11.9,0.5,17.8-0.5
		C238.3,254,238.2,253.6,238,253.6z"/>
	<path fill="#F6F6F6" d="M236.9,247.3c-5.7,0.3-11.5,0.7-17.2,1.3c-0.2,0-0.2,0.3,0,0.3c5.7-0.2,11.5-0.6,17.2-1.1
		C237.2,247.7,237.2,247.2,236.9,247.3z"/>
	<path fill="#F6F6F6" d="M236.6,242.3c-5.7,0.4-11.4,0.8-17.2,0.8c-0.2,0-0.2,0.3,0,0.3c5.7,0.2,11.5,0.1,17.2-0.6
		C236.9,242.7,236.9,242.2,236.6,242.3z"/>
	<path fill="#F6F6F6" d="M235.8,237.8c-5.7,0.2-11.5,0.5-17.2,0.4c-0.2,0-0.2,0.3,0,0.4c5.7,0.2,11.5,0.3,17.2-0.3
		C236,238.2,236.1,237.8,235.8,237.8z"/>
	<path fill="#F6F6F6" d="M234.9,232.9c-5.5,0.1-10.9,0.4-16.4,0.5c-0.2,0-0.2,0.3,0,0.3c5.5,0,10.9,0,16.4-0.4
		C235.2,233.2,235.2,232.9,234.9,232.9z"/>
	<path fill="#F6F6F6" d="M238.3,228.9c-6,0-12,0-18-0.2c-0.2,0-0.2,0.4,0,0.4c6,0.4,12,0.5,18,0.3
		C238.6,229.4,238.6,228.9,238.3,228.9z"/>
	<path fill="#F6F6F6" d="M235.8,225.3c-5.5-0.1-11.1,0.1-16.6,0.5c-0.2,0-0.2,0.4,0,0.4c5.5,0.1,11.1,0,16.6-0.3
		C236.1,225.8,236.1,225.3,235.8,225.3z"/>
	<path fill="#F6F6F6" d="M236,220.4c-5.6-0.2-11.3,0.1-16.9,0.3c-0.3,0-0.3,0.4,0,0.4c5.6,0,11.3,0.1,16.9-0.3
		C236.3,220.7,236.3,220.4,236,220.4z"/>
	<path fill="#F6F6F6" d="M233.9,217.4c-2.5-0.4-5-0.6-7.5-0.8c-2.1-0.1-4.9-0.6-6.9,0.1c-0.1,0-0.1,0.1-0.1,0.2c0,0.1,0,0.2,0,0.2
		c0,0.1,0,0.1,0.1,0.1c0.1,0,0.1,0.1,0.2,0.1c0.2,0.1,0.3-0.1,0.1-0.2c0.3,0.2,2.8-0.1,3.5-0.1c1.2,0.1,2.5,0.1,3.7,0.2
		c2.3,0.2,4.6,0.4,6.9,0.6C234.1,217.9,234.1,217.5,233.9,217.4z"/>
	<path fill="#F6F6F6" d="M235.8,213.4c-5.3-0.4-10.7-0.2-16.1,0.1c-0.2,0-0.2,0.4,0,0.4c5.4-0.1,10.7,0.1,16.1,0.1
		C236.1,213.9,236.1,213.5,235.8,213.4z"/>
	<path fill="#F6F6F6" d="M236.3,208.7c-5,0-10,0.2-15,0.4c-0.2,0-0.2,0.3,0,0.3c5,0,10,0,15-0.2
		C236.7,209.2,236.7,208.7,236.3,208.7z"/>
	<path fill="#F6F6F6" d="M236.6,204.3c-5.1-0.1-10.2,0.1-15.3,0.6c-0.2,0-0.3,0.4,0,0.4c5.1-0.4,10.2-0.5,15.3-0.6
		C236.9,204.7,236.9,204.3,236.6,204.3z"/>
	<path fill="#F6F6F6" d="M236.1,200.9c-5.5-0.6-11.1-0.7-16.7-0.4c-0.2,0-0.2,0.3,0,0.3c5.6-0.1,11.1,0.1,16.7,0.5
		C236.3,201.3,236.3,200.9,236.1,200.9z"/>
	<path fill="#F6F6F6" d="M234.4,196.8c-4.7-0.5-9.4-0.7-14.2-0.6c-0.1,0-0.1,0.2,0,0.2c4.7,0.2,9.4,0.5,14.2,0.9
		C234.7,197.2,234.7,196.8,234.4,196.8z"/>
	<path fill="#F6F6F6" d="M235.3,193c-3.1-0.7-6.4-0.9-9.6-0.9c-2.1,0-5.7-0.5-7.5,0.7c-0.1,0-0.1,0.1-0.1,0.2c0,0.1,0,0.2,0.1,0.3
		c0,0.2,0.4,0.1,0.3,0c-0.1-1.5,15.5,0.1,16.7,0.2C235.5,193.6,235.6,193.1,235.3,193z"/>
	<path fill="#F6F6F6" d="M236.1,190.4c-5.8-0.8-11.7-0.8-17.5-0.8c-0.3,0-0.3,0.4,0,0.4c5.8,0.1,11.7,0.7,17.5,0.9
		C236.3,190.9,236.4,190.5,236.1,190.4z"/>
	<path fill="#F6F6F6" d="M186.1,262c-0.1,0-0.3,0-0.4,0.1c0-1.4-0.1-2.8-0.2-4.3c0,0,0.1,0,0.1,0c0.2-0.1,0.2-0.4-0.1-0.4
		c0,0,0,0-0.1,0c-0.1-1.2-0.2-2.3-0.3-3.5c0,0,0.1,0,0.1,0c0.3,0,0.2-0.5-0.1-0.5c0,0-0.1,0-0.1,0c-0.1-1.4-0.3-2.7-0.5-4.1
		c0.2,0,0.4,0,0.6,0c0.4,0,0.4-0.6,0-0.6c-0.2,0-0.5,0-0.7,0c0,0,0-0.1,0-0.1c0-0.3-0.4-0.1-0.4,0.1c0,0,0,0,0,0
		c-1.2,0-2.3,0.1-3.5,0.1c0-0.7,0-1.4,0-2.1c0-0.2-0.3-0.2-0.3,0c0,0.7-0.1,1.4-0.1,2.1c-1.1,0.1-2.2,0.2-3.2,0.2
		c-0.1,0-0.2,0-0.3,0c0,0-0.1,0-0.1,0c-1.2,0-3.1-0.2-3.8,0.5c-0.1,0.1-0.1,0.2,0,0.3l0.1,0.1c0,0.1,0.2,0.1,0.2,0
		c0,0,0.1-0.1,0.1-0.1c0.2-0.1,0-0.4-0.2-0.3c0.4-0.3,2.4,0,3,0c0.1,0,0.3,0,0.4,0c0,1.5-0.1,2.9-0.1,4.4c-1.2,0-2.4,0.1-3.6,0.1
		c-0.2,0-0.2,0.3,0,0.4c1.2,0,2.4,0,3.6,0c0,1.4,0,2.9,0,4.3c-1.1,0.2-2.3,0.4-3.4,0.6c-0.3,0-0.2,0.5,0.1,0.4
		c1.1-0.2,2.2-0.3,3.3-0.4c0,1.3,0,2.6,0,3.8c-1.1,0.1-2.3,0.2-3.4,0.3c-0.2-4.9-0.4-9.8-0.7-14.7c0-0.2-0.3-0.2-0.3,0
		c-0.1,4.9,0,9.9,0.3,14.8c0,0,0,0-0.1,0c-0.3,0-0.3,0.5,0,0.5c0,0,0.1,0,0.1,0c0.1,1.6,0.2,3.2,0.3,4.8c0,0-0.1,0-0.1,0
		c-0.3,0-0.3,0.4,0,0.4c0,0,0.1,0,0.1,0c0.1,1.1,0.2,2.3,0.2,3.4c-0.2,0-0.4,0-0.6,0c-0.2,0-0.2,0.4,0,0.4c0.2,0,0.4,0,0.7,0
		c0.1,1.2,0.2,2.3,0.3,3.5c-0.3,0-0.6,0.1-1,0.1c-0.2,0-0.2,0.2,0,0.3c0.4,0,0.8,0,1.1,0c0,0,0,0,0.1,0c1.3,0,2.5,0,3.8-0.1
		c0.1,0.3,0.2,0.6,0.2,1c0-0.3-0.5-0.2-0.5,0.1c0,0.2,0,0.4,0,0.6c0,0.4,0.6,0.4,0.6,0c0-0.6,0-1.1-0.1-1.7c0.9-0.1,1.8-0.2,2.7-0.3
		c0,0.7,0.1,1.4,0.1,2.1c-2.7,0.3-5.4,0.6-8.1,0.6c-0.2,0-0.2,0.3,0,0.3c2.7,0.1,5.5,0,8.2-0.3c0,0.1,0,0.3,0,0.4
		c0,0.3,0.5,0.3,0.5,0c0-0.2,0-0.3,0-0.5c1.3-0.2,2.6-0.4,3.8-0.7c0.3-0.1,0.2-0.5-0.1-0.5c-1.2,0.2-2.5,0.4-3.7,0.6
		c0-0.7,0-1.4,0-2.1c1.4-0.2,2.7-0.5,4.1-0.8c0,0.2,0,0.5,0,0.7c0,0.4,0.6,0.4,0.6,0c0-0.3,0-0.6,0-0.8c0.1,0,0.2,0,0.3-0.1
		c0.3-0.1,0.2-0.5-0.1-0.4c-0.1,0-0.1,0-0.2,0c0-1.1,0-2.3,0.1-3.5c0.1,0,0.1,0,0.2,0c0.3-0.1,0.2-0.5-0.1-0.5c0,0-0.1,0-0.1,0
		c0-1.3,0-2.6,0-3.9c0.1,0,0.3-0.1,0.4-0.1c0.3-0.1,0.2-0.5-0.1-0.4c-0.1,0-0.2,0-0.3,0.1c0-1.3,0-2.6,0-3.9c0.2,0,0.3-0.1,0.5-0.1
		C186.4,262.4,186.4,261.9,186.1,262z M173,263.8c1.1,0,2.3-0.1,3.4-0.1c0,0,0,0,0,0c0,1.5,0.1,3,0.1,4.4c-1.1,0.2-2.2,0.3-3.3,0.4
		C173.2,267,173.1,265.4,173,263.8z M173.3,269.1c1.1-0.1,2.2-0.1,3.3-0.2c0,0.5,0,0.9,0,1.4c0,0.7,0,1.3,0.1,2
		c-1.1,0.1-2.2,0.2-3.3,0.3C173.4,271.4,173.3,270.3,173.3,269.1z M173.6,276.4c-0.1-1.2-0.1-2.3-0.2-3.5c1.1,0,2.2-0.1,3.3-0.2
		c0,0.5,0,1,0.1,1.6c0,0.7,0.2,1.2,0.3,1.8C175.9,276.2,174.7,276.3,173.6,276.4z M177,258.6c0-1.4,0-2.8-0.1-4.2
		c1.1,0,2.1,0,3.2-0.1c0,1.2-0.1,2.5-0.1,3.7C179,258.2,178,258.4,177,258.6z M179.9,258.8c0,1.3-0.1,2.6-0.1,3.9
		c-0.9,0.1-1.9,0.2-2.8,0.3c0-1.3-0.1-2.6-0.1-3.9C178,259.1,178.9,258.9,179.9,258.8z M177.1,263.7c0.9-0.1,1.9-0.1,2.8-0.2
		c0,1.4,0,2.8,0,4.2c-0.9,0.2-1.8,0.3-2.7,0.5C177.1,266.6,177.1,265.1,177.1,263.7z M177.2,268.8c0.9-0.1,1.8-0.2,2.7-0.4
		c0,1.1,0,2.3,0.1,3.4c-0.9,0.1-1.8,0.3-2.7,0.4C177.3,271,177.2,269.9,177.2,268.8z M177.5,276c0-1.1-0.1-2.2-0.1-3.4
		c0.9-0.1,1.8-0.2,2.7-0.3c0,1.1,0.1,2.2,0.2,3.3C179.3,275.8,178.4,275.9,177.5,276z M180.1,253.7c-1.1,0.1-2.1,0.1-3.2,0.2
		c0-1.5,0-2.9-0.1-4.4c0.8,0,1.7-0.1,2.5-0.1c0.3,0,0.6,0,0.9,0C180.2,250.9,180.1,252.3,180.1,253.7z M180.6,249.4
		c1.2,0,2.4-0.1,3.6-0.2c0.2,1.4,0.3,2.7,0.4,4.1c-1.3,0.1-2.6,0.2-4,0.3C180.6,252.3,180.6,250.9,180.6,249.4z M180.6,254.3
		c1.3-0.1,2.7-0.2,4-0.3c0.1,1.2,0.1,2.3,0.2,3.5c-1.4,0.1-2.8,0.3-4.2,0.5C180.6,256.7,180.6,255.5,180.6,254.3z M180.7,258.7
		c1.4-0.2,2.8-0.5,4.2-0.8c0,1.4,0.1,2.8,0.1,4.2c-1.4,0.2-2.8,0.3-4.2,0.5C180.7,261.3,180.7,260,180.7,258.7z M185,274.9
		c-1.4,0.3-2.7,0.5-4,0.7c0-1.1,0-2.2,0-3.3c1.4-0.2,2.7-0.5,4.1-0.8C184.9,272.6,184.9,273.8,185,274.9z M184.9,271
		c-1.4,0.2-2.7,0.5-4.1,0.7c0-1.1,0-2.3-0.1-3.4c1.4-0.3,2.8-0.6,4.1-1C184.9,268.5,184.9,269.7,184.9,271z M184.9,266.6
		c-1.4,0.3-2.8,0.5-4.1,0.8c0-1.4,0-2.7-0.1-4.1c1.4-0.2,2.8-0.4,4.2-0.7C184.9,264,184.9,265.3,184.9,266.6z"/>
	<path fill="#F6F6F6" d="M118.1,279.1c-1.4,0.1-2.9,0.2-4.3,0.3c-0.4,0-3.7,0.7-4,0.4c0.1,0.1,0.3,0,0.2-0.2c0,0,0-0.1-0.1-0.1
		c0,0-0.1-0.1-0.1-0.1c-0.2,0.1-0.2,0.1-0.3,0.3c0,0.1,0,0.1,0,0.2c0.6,0.7,2.1,0.2,2.9,0.1c1.9-0.1,3.7-0.3,5.6-0.5
		C118.4,279.6,118.4,279.1,118.1,279.1z"/>
	<path fill="#F6F6F6" d="M117.8,276c-3.1,0.5-6,0.6-9.1,0.2c-0.2,0-0.4,0.3-0.1,0.4c3.1,0.5,6.2,0.6,9.3-0.2
		C118.2,276.3,118,275.9,117.8,276z"/>
	<path fill="#F6F6F6" d="M118.6,271.5c-3.1,0.4-6.2,0.7-9.4,0.6c-0.2,0-0.2,0.3,0,0.3c3.2,0.2,6.4,0.2,9.5-0.5
		C119,271.8,118.9,271.4,118.6,271.5z"/>
	<path fill="#F6F6F6" d="M117.8,267.3c-2.9,0.3-5.7,0.7-8.6,0.8c-0.2,0-0.2,0.3,0,0.3c2.9-0.1,5.8-0.2,8.7-0.8
		C118.1,267.6,118,267.3,117.8,267.3z"/>
	<path fill="#F6F6F6" d="M116.4,263.9c-3,0.3-5.9,0.6-8.9,0.7c-0.2,0-0.2,0.3,0,0.3c3,0,6-0.1,8.9-0.5
		C116.8,264.3,116.7,263.8,116.4,263.9z"/>
	<path fill="#F6F6F6" d="M116.4,260.4c-2.9,0-5.7,0.2-8.6,0.3c-0.2,0-0.2,0.4,0,0.4c2.9-0.1,5.7,0,8.6-0.2
		C116.7,260.8,116.7,260.4,116.4,260.4z"/>
	<path fill="#F6F6F6" d="M116.4,256.2c-2.6,0.5-5.1,0.9-7.7,0.8c-0.3,0-0.3,0.4,0,0.5c2.6,0.1,5.4,0,7.9-0.7
		C116.9,256.6,116.7,256.1,116.4,256.2z"/>
	<path fill="#F6F6F6" d="M116.1,252.7c-2.7,0.3-5.3,0.7-8,0.6c-0.2,0-0.2,0.3,0,0.3c2.7,0.2,5.5,0.2,8.1-0.4
		C116.5,253.2,116.4,252.7,116.1,252.7z"/>
	<path fill="#F6F6F6" d="M117.3,249.7c-3.8,0.1-7.6,0.4-11.4,0.5c-0.3,0-0.3,0.4,0,0.4c3.8,0.1,7.6,0,11.4-0.4
		C117.6,250.2,117.6,249.7,117.3,249.7z"/>
	<path fill="#F6F6F6" d="M558.2,228.1c-6.3-0.2-13.1-0.4-19.4,0.4c-0.2-0.3-0.7-0.3-0.7,0.2c0,4.8,0.1,9.7,0.2,14.5
		c-0.1-0.2-0.2-0.3-0.4-0.3c-3.7-0.1-7.4-0.1-11.1-0.2c-3,0-6.1-0.3-9,0.2c0,0,0-0.1,0-0.1c0-0.6-0.9-0.6-0.9,0
		c0.1,2.4,0.3,4.8,0.8,7.1c-3.3-0.2-6.5-0.3-9.8-0.2c0,0,0,0,0,0c-0.3-6.3-0.5-12.6-1.1-18.9c0-0.3-0.5-0.4-0.5-0.1c0,0,0,0,0,0
		c-4.6-0.5-9.5-0.2-14.1,0.1c0-8.1-0.1-16.2-0.9-24.1c0-0.1-0.1-0.2-0.2-0.2c0-0.1-0.2-0.2-0.3-0.3c-3.2-0.3-6.4-0.1-9.7-0.1
		c-2.2,0-5-0.4-7.2,0.2c-0.1-0.2-0.5-0.2-0.5,0.1c0,0,0,0,0,0.1c-0.1,0-0.2,0.1-0.1,0.2c0,0.2,0,0.3,0.1,0.4
		c-0.7,10.4,0.1,21.1,0.5,31.6c-0.1-0.1-0.2-0.1-0.3-0.1c-6.1-0.3-12.3-0.4-18.4-0.3c-0.2-4.5-0.4-9-0.7-13.5c0-0.1-0.1-0.2-0.1-0.3
		c-0.1-0.2-0.2-0.3-0.5-0.3c-7.9,0.1-16,0-23.9,0.9c-0.2,0-0.3,0.3-0.2,0.4c-0.5,2.2-0.2,4.8,0,7c0,0,0,0,0,0.1
		c-2.8,0.1-5.6,0.2-8.4,0.2c-0.1-2-0.2-4.1-0.3-6.1c0,0,0,0,0.1,0c0.7,0,0.7-1,0-1c-6.4-0.3-12.8-0.5-19.2-0.2
		c-0.2-0.1-0.4-0.1-0.6,0c0,0-0.1,0-0.1,0c-0.4,0-0.4,0.6,0,0.6c0,0,0,0,0,0c0.1,6.2,0.2,12.4,0.4,18.5c0,0,0,0,0,0
		c-1.2,0-2.4,0.1-3.5,0.1c0-5.5-0.2-11-0.4-16.5c-0.1-4.8,0.6-10.4-0.8-15.1c0.3,0,0.5-0.3,0.3-0.6c-2.2-4.2-4.6-8.7-7.9-12.2
		c0,0,0,0,0,0c0.2-5.7,0.4-11.5-0.1-17.1c0,0,0,0,0,0c0.1-0.2,0-0.3-0.1-0.4c0,0,0,0,0,0c0-0.3-0.3-0.3-0.4-0.1
		c-0.3,0-0.6,0.2-0.8,0.2c-0.2,0-0.5,0.1-0.7,0.1c-0.2,0-0.4,0.1-0.5,0.1c-0.2,0-0.2,0.2-0.1,0.3c0,0.1-0.1,0.1-0.1,0.2
		c-0.5,5.3-0.7,10.7-0.7,16.1c0,0,0,0,0,0c-2.6,4.4-4.6,9.1-6.2,14c-0.1-0.1-0.2-0.1-0.3-0.1c-3.9,0.3-7.9,0.5-11.8,0.6
		c-3.9,0-7.9-0.5-11.8,0c-0.1,0-0.2,0.2-0.1,0.3c-0.1,0.1-0.1,0.2-0.1,0.3c0.2,3.3,0.2,6.7,0.1,10c-4.3,0-8.6,0.2-12.8,0.6
		c0,0,0,0,0,0c0-0.5-0.8-0.5-0.8,0c-0.1,1.5-0.1,3,0,4.5c0.1,1.1,0,2.3,0.5,3.4c0,0,0,0,0,0c-5.1,0.3-10.1,0.1-15.2,0.5
		c-0.1-6.1-0.3-12.1-0.7-18.1c0.5-0.2,0.5-1-0.1-0.9c0,0,0,0-0.1,0c-0.1-0.1-0.4-0.1-0.5,0c-4.9,0.5-9.8,0.9-14.7,0.9
		c-1.9,0-6.3-1-8,0.2c-0.2-0.1-0.5,0-0.5,0.2c-0.7,4.5-0.7,9.3-0.2,13.9c-2.5-0.1-5-0.1-7.4,0c-0.5-16.5-0.3-33.3-2-49.7
		c0.1,0,0.3,0,0.4,0c0.6,0,0.6-0.9,0-0.9c-5.9,0.1-11.6-0.1-17.5-0.5c-0.4,0-0.4,0.6-0.1,0.6c0,0,0.1,0,0.1,0
		c0.4,8.4,0.8,16.8,0.8,25.2c0.1,8.3-0.5,16.7-0.3,25c-2.8,0.1-5.7,0.2-8.4,0.6c0-0.1,0.1-0.1,0.1-0.2c0.3-8.7,0.5-17.4,0.5-26.1
		c0.1-8.6,0.5-17.5-0.3-26.1c0-0.3-0.5-0.3-0.5,0c0,0,0,0.1,0,0.1c-0.1-0.1-0.1-0.1-0.2-0.1c-6.3-0.4-12.8-0.4-19.1-0.3
		c-0.3,0-0.4,0.3-0.3,0.5c-0.1,0-0.2,0.1-0.2,0.2c-0.9,4.3-1.2,10.1-0.1,14.5c-1.6-0.1-3.1-0.1-4.7-0.1c-0.1-2.3-0.2-4.7-0.3-7
		c0-0.3-0.2-0.5-0.5-0.5c-9.5,0.3-19.3-0.9-28.7-0.3c0,0,0-0.1,0-0.1c0-0.5-0.7-0.5-0.7,0c-0.4,9.1-0.4,18.2-0.3,27.4
		c-0.1,0-0.1,0-0.2,0c-7.8,0.5-15.7,0.8-23.5,0.8c-0.3,0-0.4,0.2-0.5,0.5c-0.4,2.8-0.4,5.5,0,8.3c0,0,0,0,0,0c-2.4,0-4.8,0-7.1,0
		c-0.2,0-0.5,0.2-0.5,0.5c0.2,7.1,0.4,14.2,0.8,21.4c-2.2,0.1-4.5,0.2-6.7,0.2c-0.4-8.2-0.8-16.4-1.3-24.5c0-0.3-0.2-0.5-0.5-0.5
		c-2.4,0-4.7,0.2-7,0.8c0-2.6,0-5.2-0.1-7.8c0-0.3-0.2-0.5-0.5-0.5c-3.6,0-7.2-0.2-10.8,0.1c0-2.6,0-5.3,0-7.9
		c0-0.3-0.2-0.5-0.5-0.5c-2.9,0-5.8-0.2-8.8-0.5c-0.3,0-0.5,0.3-0.5,0.5c-0.1,3.2-0.3,6.3-0.3,9.5c-0.1-0.2-0.2-0.3-0.5-0.3
		c-1.7,0-3.5,0-5.2,0c-0.9,0-2.4-0.2-3.1,0.4c-0.6,0.6-0.4,1.7-0.4,2.4c0,1.5,0.1,3,0.3,4.5c-2.6,0.3-5.2,0.5-7.8,0.5
		c-0.3,0-0.4,0.2-0.3,0.4c0,0.1-0.1,0.1-0.1,0.2c0.4,10.9,0.5,21.9,1.3,32.9c-2.5,0-5,0.1-7.4,0.2c0-1.9,0-3.8-0.2-5.7
		c0.3-0.2,0.3-0.9-0.3-0.9c-5.7-0.1-11.4-0.3-17.1-0.4c-0.3,0-0.5,0.2-0.5,0.5c-0.2,1.9-0.3,3.8-0.2,5.7c-1.6,0.1-3.1,0.2-4.7,0.3
		c0.4-2.5,0.1-5.2,0-7.7c-0.1-2.6-0.1-5.3-0.4-7.9c0.2-0.3,0.1-0.8-0.4-0.8c-8.6,0.3-17.1,0.5-25.7,0.9c-0.3,0-0.4,0.2-0.5,0.5
		c-0.4,3.3-0.6,6.6-0.7,9.9c0,1.5,0,3.1,0,4.6c0,0.8,0,1.5,0.1,2.3c-0.1,1.1,0.1,2.1,0.6,3c-0.1-0.1-0.2-0.1-0.3,0
		c0,0-0.1,0.1-0.1,0.1c0,0-0.1,0.1-0.1,0.1c-3,0.3-6,0.6-9.1,0.2c-0.3-3-0.6-6-1-9c0.2-0.3,0.1-0.9-0.4-0.8
		c-7.2,0.5-14.4,0.9-21.6,1.7c-0.2,0-0.4,0.2-0.4,0.4c0,0.1-0.1,0.1-0.1,0.2c-1.2,10.6-1.1,21.4-0.2,32c0,0.5,0.8,0.5,0.8,0
		c-0.2-10.6-0.8-21.2,0.3-31.8c7-0.3,13.9-0.9,20.9-1.5c0.2,10.2,0.3,20.7,1,30.9c0,0.6,0.8,0.6,0.9,0c0.6-6.9,0.4-14.3-0.2-21.4
		c2.4,0.5,4.7,0.5,7.2,0.3c1.4-0.1,3.1-0.6,4.5-0.5c2.5,0.2,2.6,0.7,3.1,3.1c0.6,3.1,0.3,6.7,0.5,9.9c0.2,3.3,0.3,6.6,0.6,9.9
		c0,0.5,0.9,0.6,0.8,0c0-0.7,0-1.4-0.1-2c0,0,0,0,0,0c0.8,0,1.5,0.1,2.3,0.1c0,0.2,0,0.4,0,0.6c0,0.2,0.3,0.2,0.3,0
		c0-0.2,0-0.4,0-0.6c2.4,0,4.9,0,7.3-0.3c0.2,0,0.2-0.3,0-0.3c-1,0-2,0.1-3,0.1c0-0.7,0-1.4,0-2.1c0.9-0.1,1.7-0.3,2.6-0.4
		c0.1,0.3,0.3,0.7,0.6,1c0.1,0.1,0.3-0.1,0.2-0.2c-0.2-0.2-0.3-0.5-0.5-0.9c0.4-0.1,0.9-0.2,1.3-0.3c0.3-0.1,0.1-0.4-0.1-0.4
		c-0.4,0.1-0.9,0.1-1.3,0.2c-0.2-0.8-0.2-1.7-0.1-2.6c0.6-0.1,1.2-0.2,1.8-0.3c0.2,0,0.1-0.4,0-0.3c-0.6,0.1-1.2,0.1-1.7,0.2
		c0.1-1.6,0.4-3.2,0.4-4.2c0.4-0.1,0.9-0.2,1.3-0.3c0.3-0.1,0.2-0.5-0.1-0.4c-0.4,0.1-0.8,0.1-1.2,0.2c0-0.8,0.1-1.6,0.1-2.4
		c0.5-0.1,1-0.2,1.5-0.3c0.3-0.1,0.2-0.5-0.1-0.4c-0.5,0.1-0.9,0.1-1.4,0.2c0-1.1,0.1-2.2,0.1-3.2c0.1,0,0.1,0,0.2,0
		c0.2,0,0.1-0.3,0-0.3c-0.1,0-0.1,0-0.2,0c0-0.6,0-1.2,0.1-1.8c0-0.3,0-0.7,0-1c0,0,0.1,0,0.1,0c0.3,0,0.2-0.5-0.1-0.4c0,0,0,0,0,0
		c0.1-1.3,0.1-2.5,0.2-3.8c0,0,0.1,0,0.1,0c0.4,0,0.4-0.6,0-0.6c0,0-0.1,0-0.1,0c0-1,0.1-2,0.1-3c0.8-0.1,1.5-0.1,2.3-0.2
		c0,0.4,0,0.8,0,1.2c0,0.3,0.4,0.3,0.4,0c0-0.4,0-0.8,0.1-1.2c0.9-0.1,1.8-0.2,2.7-0.3c0.3,0,0.3-0.5,0-0.5c-0.1,0-0.2,0-0.3,0
		c0.1-2.3,0.3-4.7,0.1-6.9c0-0.3-0.5-0.3-0.5,0c-0.2,2.3,0,4.7,0.1,6.9c-0.6,0-1.3,0.1-1.9,0.1c0-0.8,0.1-1.6,0.1-2.3
		c0.4,0,0.8-0.1,1.1-0.1c0.2,0,0.3-0.4,0-0.4c-0.4,0-0.7,0-1.1,0c0.1-0.8,0.1-1.5,0.1-2.3c0.3,0,0.6,0,1,0c0.4,0,0.4-0.5,0-0.6
		c-0.3,0-0.6,0-0.9,0c0-1,0.1-1.9,0.1-2.9c0.2,0,0.5-0.1,0.7-0.1c0.3,0,0.4-0.5,0-0.5c-0.2,0-0.5,0-0.7,0c0,0,0,0,0-0.1
		c0-0.3-0.5-0.4-0.5-0.1c0,0.1,0,0.1,0,0.2c-5.1,0.3-10.2,1.2-15.3,1.1c-0.2,0-0.2,0.3,0,0.3c1.4,0.1,2.8,0.1,4.2,0.1
		c0,0.8,0,1.5,0,2.3c-0.8,0.1-1.7,0.2-2.5,0.2c0-0.7,0-1.4,0-2.1c0-0.2-0.3-0.2-0.4,0c-0.1,0.7-0.1,1.5-0.2,2.2
		c-0.6,0.1-1.3,0.1-1.9,0.2c-0.2,0-0.3,0.4,0,0.4c0.6-0.1,1.2-0.1,1.8-0.1c-0.1,0.8-0.1,1.6-0.1,2.4c-0.8,0-1.5,0.1-2.3,0.1
		c-0.2,0-0.2,0.4,0,0.4c0.7,0,1.5,0,2.2,0c0,1.1-0.1,2.2-0.1,3.2c-0.8,0.1-1.6,0.2-2.3,0.2c0-3.2-0.1-6.3-0.3-9.5
		c0-0.3-0.5-0.3-0.5,0c0.1,3.2,0.2,6.4,0.3,9.6c-0.2,0-0.5,0-0.7,0.1c-0.2,0-0.2,0.3,0,0.3c0.2,0,0.5,0,0.7-0.1c0,1,0.1,2,0.1,3
		c-0.9,0-1.9-0.2-2.7-0.5c-0.1-1.7-0.4-3.4-0.4-4.6c0-2.7-0.8-9.4,1.2-11.2c1.2-1.1,3.8-0.6,5.5-0.7c2.1-0.1,4.3-0.1,6.4-0.2
		c4.2-0.1,8.4-0.3,12.5-0.4c-0.2,2.7,0.1,5.5,0.2,8.3c0.1,2.4,0,4.8,0.5,7.1c-1.9,0.1-3.8,0.3-5.7,0.5c-0.3,0-0.4,0.3-0.4,0.5
		c-0.2-0.2-0.7-0.1-0.7,0.3c-0.1,9.3-0.5,18.5-0.6,27.7c0,0.5,0.7,0.5,0.8,0c0.7-9.2,0.7-18.5,0.6-27.7c0,0,0,0,0,0
		c0.1,0.1,0.2,0.1,0.3,0.1c4.7-0.1,9.4-0.4,14-0.8c-1.6,3.5-0.6,8-0.5,11.8c0.2,5.5,0.3,11,0.5,16.5c0,0.6,0.9,0.6,0.9,0
		c-0.1-4.7-0.2-9.4-0.4-14.1c-0.1-4.7-1-10.1,0.4-14.7c0.1-0.3-0.3-0.5-0.5-0.3c-0.1-0.1-0.2-0.1-0.3-0.1c-0.9,0-1.8,0.1-2.8,0.1
		c0-1.7-0.1-4.2,1.4-5.1c0.9-0.5,4.2,0.1,5.3,0.1c3.4,0.1,6.7,0.2,10.1,0.2c-0.6,5.5-0.3,11.2-0.2,16.8c0.1,5.8,0.1,11.6,0.7,17.3
		c0,0.5,0.8,0.5,0.8,0c0-5.8-0.4-11.6-0.5-17.3c0-3.5,0.1-7,0.1-10.5c3.1,0.1,6.2,0.1,9.3,0.1c1.2,0,3.6-0.5,4.7,0
		c2.7,1.2,2,3.8,2.1,6.1c0.3,6.9,0.5,13.7,0.8,20.6c0,0.6,0.9,0.6,0.9,0c-0.2-4.7-0.4-9.3-0.5-14c-0.1-2.2-0.2-4.4-0.2-6.6
		c-0.1-1.6,0.4-4.4-0.2-5.9c-0.6-1.4-1.2-1.1-2.9-1.1c-2,0-4,0-6.1,0c0.1-10.9-0.6-21.9-1-32.8c2.7,0.2,5.4,0.1,8-0.4
		c0.5-0.1,0.4-0.9-0.1-1c0-1,0-1.9,0-2.9c0-1-0.3-2.9,0.7-3.3c0.8-0.3,2.4,0,3.3,0c1.3,0,2.6,0,3.9,0c0.2,0,0.4-0.1,0.5-0.3
		c0,0,0,0,0,0.1c0,0.4,0.6,0.4,0.6,0c0.4-3.1,0.5-6.3,0.6-9.4c2.6,0.3,5.2,0.5,7.8,0.5c0,2.5,0,5,0,7.5c0,0,0,0,0,0.1
		c-0.2,0.2-0.1,0.5,0.2,0.5c3.7,0.4,7.4,0.2,11.1,0.2c0,2.6,0,5.2,0.1,7.8c0,0.6,0.7,0.6,1,0.3c0.1,0,0.1,0,0.2,0
		c2.6-0.4,5.7-1.6,6.5,1.4c0.6,2.2,0.3,5.1,0.4,7.4c0.3,4.9,0.5,9.8,0.8,14.7c-2,0.1-4.1,0.2-6.1,0.3c-0.2,0-0.3,0.2-0.3,0.3
		c0,0,0,0,0,0.1c-0.7,12-0.2,24.4,0.6,36.4c0,0.5,0.8,0.5,0.8,0c0.1-11.9,0-24.2-0.9-36.1c6.9,0.5,14.1,0.3,21-0.5
		c-0.1,12.4,0.5,25,1.2,37.4c0,0.5,0.8,0.5,0.8,0c0.1-12.4-0.2-25.2-1.4-37.5c0.5-0.2,0.5-1-0.1-0.9c-2.4,0.1-4.8,0.2-7.2,0.3
		c0-4-0.1-7.9-0.2-11.9c0-1.6-0.1-3.1-0.1-4.7c0-1-0.1-2.1-0.1-3.1c0.6-1.1,1.5-1.5,2.7-1.1c2-0.4,4.4,0,6.5,0c1.6,0,3.3-0.3,4.9,0
		c3.1,0.6,2.9,1.4,3.2,4.5c0.2,1.9,0.3,3.8,0.5,5.7c1.3,16.1,1.6,32.3,1.4,48.5c0,0.6,0.9,0.6,0.9,0c0.3-19.7-0.5-39.5-2.3-59.1
		c0-0.3-0.2-0.5-0.5-0.5c-3.3,0-6.7,0-10,0c0,0,0,0,0,0c-0.1-1.5-0.8-5.7,0.1-6.9c1.2-1.7,5.7-0.9,7.5-0.9
		c5.2-0.1,10.5-0.3,15.7-0.7c0.1,0,0.2,0,0.2-0.1c0.1,6.6,0.2,13.3,0.3,19.9c0.2,16,0.6,32.1,1.2,48.1c0,0.5,0.8,0.5,0.8,0
		c-0.5-16-0.9-32.1-1.1-48.1c-0.2-15.9,0.3-31.8-0.2-47.6c4.4,0.9,9,0.8,13.5,0.9c2.4,0.1,4.8,0.1,7.2,0.1c1.8,0,5.6-0.8,7,0.5
		c1.3,1.3,0.8,6.2,0.9,8.1c0.1,2.5,0.2,5,0.3,7.5c0.2,5.3,0.4,10.5,0.6,15.8c0.8,20.8,1.7,41.6,2.5,62.4c0,0.6,0.9,0.6,0.9,0
		c-1.2-29-2.3-58.1-3.4-87.1c3.1,0.4,6.2,0.5,9.4,0.6c0,0,0,0,0,0c0,0.3,0.5,0.3,0.5,0c0.7,0,1.3,0,2,0c-0.4,14.5,0.2,29,0.3,43.5
		c0.1,14.6,0.1,29.2,0.3,43.8c0,0.5,0.8,0.5,0.8,0c-0.1-14.6-0.2-29.2-0.3-43.8c-0.1-14.5,0.3-29.1-0.3-43.6
		c0.1-0.1,0.1-0.3,0.1-0.4c0.6-3.9,0.7-7.9,0.6-11.8c0-0.1-0.2-0.1-0.2,0c-0.2,3.9-0.5,7.7-0.6,11.6c0,0-0.1-0.1-0.2-0.1
		c-0.8-0.1-1.6-0.1-2.4-0.2c0.1-3.8,0.1-7.6,0.1-11.3c0-0.2-0.2-0.2-0.2,0c-0.2,3.8-0.3,7.5-0.3,11.3c-0.7,0-1.5-0.1-2.2-0.1
		c0,0,0,0,0-0.1c0.2-3.9,0.2-7.8,0-11.7c0-0.2-0.4-0.2-0.4,0c-0.2,3.9-0.2,7.8,0,11.7c0,0,0,0,0,0c-0.6,0-1.1-0.1-1.7-0.1
		c0.2-2.3,0-4.7,0-7c0-2.5,0.3-4.9,0.3-7.4c0,0,0-0.1,0-0.1c6.3,0.4,12.7,0.5,19,0.3c0.1,0,0.2,0,0.2-0.1c-0.5,8.4,0.1,17,0,25.4
		c0,8.7-0.2,17.4-0.4,26.1c0,0.1,0,0.2,0.1,0.3c-0.6,0.1-1.2,0.2-1.8,0.3c-0.3,0-0.2,0.4,0,0.5c-1.3,16.7-0.6,33.9,0.2,50.6
		c0,0.5,0.8,0.5,0.8,0c-0.7-16.9-0.2-33.8-0.3-50.7c1.6,1,6.4,0.1,7.9,0c2.7-0.1,5.4-0.1,8-0.4c-0.8,17.1-0.3,34.4,0.2,51.5
		c0,0.5,0.8,0.5,0.8,0c-0.1-7.1-0.1-14.2,0-21.3c0,0,0,0,0.1,0c1.1-0.1,2.1-0.2,3.2-0.2c0,1.3,0.1,2.6,0.1,3.8c-1,0-2,0-3.1-0.1
		c-0.2,0-0.2,0.2,0,0.3c1,0.1,2,0.2,3.1,0.2c0,1.3,0.1,2.6,0.1,3.9c-0.8,0.1-1.5,0.2-2.3,0.2c-0.2,0-0.2,0.3,0,0.3
		c0.8,0,1.6,0,2.3-0.1c0,0.9,0.1,1.8,0.1,2.8c-0.7,0.1-1.4,0.1-2.1,0.1c-0.2,0-0.2,0.3,0,0.3c0.7,0,1.4,0,2.1,0
		c0,1.4,0.1,2.7,0.1,4.1c-0.8,0-1.7-0.1-2.5-0.3c-0.2,0-0.3,0.3-0.1,0.4c0.9,0.2,1.7,0.3,2.6,0.3c0,0.8,0,1.7,0.1,2.5
		c-0.5,0-1,0.1-1.5,0.1c0.1-0.1,0-0.3-0.1-0.2c-0.3,0.1-0.7,0.2-1,0.3c-0.2,0.1-0.2,0.4,0.1,0.4c0.8,0,1.7,0,2.6,0
		c0,0.3,0,0.6,0,0.9c0,0.3,0.4,0.3,0.4,0c0-0.3,0-0.6,0-0.9c1.9,0,3.8-0.1,5.6-0.5c0.2,0,0.2-0.4-0.1-0.4c-1.8,0-3.7,0.1-5.6,0.2
		c0-0.8,0-1.6,0-2.4c0.7,0,1.5,0,2.2-0.1c0,0.4,0,0.8,0,1.2c0,0.4,0.6,0.4,0.6,0c0-0.4,0-0.9,0-1.3c0.7-0.1,1.3-0.2,2-0.4
		c0.2-0.1,0.1-0.4-0.1-0.4c-0.6,0.1-1.3,0.2-1.9,0.3c0-1.4,0-2.8,0-4.2c1-0.1,2.1-0.3,3.1-0.5c0.2-0.1,0.1-0.4-0.1-0.4
		c-1,0.2-2,0.3-3,0.4c0-1,0-2,0-3c0.6-0.1,1.1-0.3,1.7-0.5c0.2-0.1,0.1-0.4-0.1-0.4c-0.5,0.1-1.1,0.2-1.6,0.3c0-1.1,0-2.3,0-3.4
		c1.1-0.1,2.3-0.4,3.4-0.7c0.2-0.1,0.1-0.4-0.1-0.4c-1.1,0.2-2.2,0.4-3.3,0.5c0-1.3,0-2.6,0-3.9c0.7-0.1,1.3-0.2,2-0.3
		c0.2,0,0.2-0.4,0-0.4c-0.7,0-1.3,0.1-2,0.1c0-1.6,0-3.3,0-4.9c0.4-0.1,0.8-0.2,1.2-0.3c0.3-0.1,0.2-0.5-0.1-0.4
		c-0.4,0.1-0.7,0.1-1.1,0.2c0-1.9,0-3.8,0-5.7c0.2,0,0.5-0.1,0.7-0.1c0.2,0,0.2-0.4,0-0.4c-0.2,0-0.4,0-0.6,0.1c0-1.5,0-2.9,0-4.4
		c0.3-0.1,0.5-0.1,0.7-0.2c0.3-0.1,0.2-0.5-0.1-0.5c-0.2,0-0.4,0.1-0.6,0.1c0-1.4,0-2.7,0-4.1c0.3,0,0.5-0.1,0.8-0.2
		c0.2-0.1,0.2-0.4,0-0.4c-0.2,0-0.5,0-0.7,0c0-1,0-2.1,0-3.1c0.2,0,0.4-0.1,0.5-0.1c0.2-0.1,0.2-0.4-0.1-0.4c-0.2,0-0.3,0-0.5,0.1
		c0-2.7-0.1-5.3-0.1-8c0.4-0.1,0.8-0.2,1.2-0.3c0.3-0.1,0.1-0.4-0.1-0.4c-0.4,0.1-0.7,0.1-1.1,0.1c0-1.5,0-3.1-0.1-4.6
		c0.2,0,0.5-0.1,0.7-0.1c0.3-0.1,0.2-0.6-0.1-0.5c-0.2,0-0.4,0-0.7,0.1c0-1.2,0-2.4-0.1-3.6c0.3,0,0.5-0.1,0.8-0.1
		c0.3,0,0.2-0.5-0.1-0.5c-0.2,0-0.5,0-0.7,0.1c0-1.3,0-2.6-0.1-4c0.2,0,0.4,0,0.6-0.1c0.3,0,0.2-0.5-0.1-0.5c-0.2,0-0.3,0-0.5,0
		c0-1.4,0-2.9-0.1-4.3c0.4-0.1,0.8-0.2,1.2-0.3c0.2-0.1,0.2-0.4-0.1-0.4c-0.4,0-0.8,0.1-1.1,0.1c0-1.8-0.1-3.6-0.1-5.4
		c0.2,0,0.5-0.1,0.7-0.1c0.3-0.1,0.2-0.5-0.1-0.5c-0.2,0-0.5,0.1-0.7,0.1c0-1.5,0-3-0.1-4.5c0.3,0,0.6-0.1,0.8-0.1
		c0.3-0.1,0.2-0.6-0.1-0.5c-0.3,0-0.5,0.1-0.8,0.1c0-1.3,0-2.7-0.1-4c0.2,0,0.4,0,0.6,0c0.4,0,0.4-0.6,0-0.6c-0.2,0-0.4,0-0.6,0
		c0-1.2,0-2.4-0.1-3.6c0.2,0,0.4,0,0.6,0c0.3,0,0.3-0.5,0-0.5c-0.2,0-0.4,0-0.6,0c0-1.1,0-2.2-0.1-3.3c0.2,0,0.5,0,0.7,0
		c0.3,0,0.3-0.5,0-0.5c-1.6-0.1-3.2-0.1-4.8-0.1c0-0.3,0-0.7,0-1c0-0.2-0.2-0.2-0.2,0c0,0.4,0,0.7,0,1.1c-1.5,0.1-2.9,0.2-4.3,0.3
		c-0.1-0.6-0.1-1.1-0.2-1.7c0-0.1-0.3-0.1-0.3,0c0,0.6,0.1,1.1,0.1,1.7c-0.3,0.1-0.3,0.5,0,0.5l0,0c0.1,2.5,0.3,4.9,0.4,7.4
		c-0.2,0-0.5,0-0.7,0c-0.2,0-0.2,0.4,0,0.4c0.2,0,0.5,0,0.7,0c0.1,1.5,0.2,3,0.3,4.6c-0.2,0-0.3,0-0.5,0c-0.2,0-0.2,0.3,0,0.4
		c0.2,0,0.3,0,0.5,0c0.1,1.5,0.2,3.1,0.2,4.6c-0.4,0-0.8,0-1.3,0c-0.2,0-0.2,0.3,0,0.3c0.4,0,0.9,0.1,1.3,0.1
		c0.1,1.8,0.2,3.6,0.2,5.4c-0.2,0-0.5,0-0.7,0c-0.2,0-0.2,0.4,0,0.4c0.2,0,0.5,0,0.7,0.1c0.1,1.5,0.1,3,0.1,4.6c-0.4,0-0.8,0-1.1,0
		c-0.2,0-0.2,0.3,0,0.3c0.4,0,0.8,0,1.2,0c0,1.4,0.1,2.8,0.1,4.2c-1.1,0.1-2.1,0.1-3.2,0.1c-0.2,0-0.2,0.3,0,0.3c1.1,0,2.1,0,3.2,0
		c0,1.3,0,2.5,0,3.8c-1,0.1-2,0.2-2.9,0.3c-0.2,0-0.3,0.4,0,0.4c1,0,1.9-0.1,2.9-0.1c0,0.8,0,1.6,0,2.4c0,0.3,0.5,0.3,0.5,0
		c0-0.8,0-1.6,0-2.4c1.1-0.1,2.2-0.2,3.2-0.3c0,1.5,0.1,3,0.1,4.5c-2.2,0.2-4.3,0.2-6.5,0c-0.2,0-0.2,0.3,0,0.4
		c2.2,0.2,4.4,0.3,6.5,0.2c0,1.5,0.1,3.1,0.1,4.6c-0.9,0.1-1.8,0.2-2.8,0.3c0-0.6,0-1.3,0-1.9c0.2-0.2,0.2-0.6-0.2-0.6
		c-1.8-0.1-3.6-0.1-5.5,0c1.7-16.4,0.7-33.7-0.5-50.1c5.2,0.8,10.5,1,15.7,0.8c-0.2,16.7,1.4,33.6,1.9,50.3
		c0.5,16.9,0.9,33.9,1.2,50.8c0,0.6,0.9,0.6,0.9,0c-0.3-16.9-0.7-33.8-1.3-50.6c5.2,0.1,10.4,0.3,15.6,0.8c0.1,0,0.2,0,0.3-0.1
		c0,0,0,0,0,0c-0.5,16.6,0.7,33.4,1.9,49.9c0,0.5,0.8,0.5,0.8,0c-1-16.6-1.1-33.3-2.1-49.9c0-0.2-0.2-0.3-0.4-0.2
		c0.1-0.3-0.1-0.6-0.4-0.6c-2.5-0.3-5.1-0.5-7.6-0.6c-0.1-4.5,0.1-8.9,0.3-13.4c0,0,0,0,0.1,0c0.1-0.1,0.1-0.1,0.2-0.2
		c0.1-0.1,0-0.2-0.1-0.1c0.3-0.2,4.5,0.4,5.2,0.4c1.9,0,3.8,0,5.6-0.1c3.8-0.1,7.7-0.4,11.5-0.9c-0.6,21.9,1,44.2,2.2,66
		c0,0.6,0.9,0.6,0.9,0c-0.5-11.1-1-22.3-1.4-33.4c-0.2-4.7-0.2-9.5-0.3-14.2c6.6,1.5,14,0.6,20.6-0.4c-0.4,16.2,0.9,32.7,1.6,48.9
		c0,0.5,0.9,0.5,0.8,0c-0.7-16.4-0.5-33-1.9-49.4c0-0.2-0.2-0.3-0.3-0.3c-0.1-0.1-0.2-0.1-0.4-0.1c-1.7,0.2-3.4,0.4-5.1,0.5
		c0,0,0,0,0-0.1c0.3-1.2,0-2.4,0-3.6c0-1.2,0-2.4,0-3.5c5.9,0,11.9-0.1,17.8-0.3c-0.4,9.2,0.3,18.6,0.7,27.8
		c0.3,9.4,0.8,18.8,1.3,28.2c0,0.6,0.9,0.6,0.9,0c-0.5-9.4-0.9-18.8-1.3-28.2c-0.4-9.4-0.1-18.8-1-28.2c0,0,0-0.1-0.1-0.1
		c0-0.1,0-0.1-0.1-0.2c-0.1-1.1-0.4-2.2-0.5-3.3c-0.1-1-0.1-1.9-0.3-2.9c0-0.1-0.2-0.1-0.2,0c-0.3,1.8-0.1,4.2,0.5,6
		c-1.4,0-2.9-0.1-4.3-0.1c0.4-3.3,0.4-6.7,0.1-10c0,0,0-0.1,0-0.1c7.2,1.6,15.6,0.6,22.8-0.1c0,0.1,0,0.2,0,0.3l0,0c0,0,0,0,0,0
		c0.8,22.1,2,44.1,2.4,66.2c0,0.5,0.8,0.5,0.8,0c-0.3-22-0.9-44.1-2.7-66c2.1-5,4.5-9.9,6.8-14.9c0.1-0.2,0-0.3-0.1-0.5
		c0.6-5.3,0.9-10.6,0.9-15.9c0,0,0,0,0,0c0.3,0,0.5,0,0.8,0c0.2,0,0.4-0.1,0.6-0.1c-0.3,5.7-0.1,11.5-0.2,17.2
		c0,0.4,0.5,0.5,0.7,0.3c2.3,4.1,5,7.9,7.3,12c0.1,0.1,0.2,0.2,0.3,0.2c-1.1,4.7-0.1,10.3,0,15.1c0.1,5.5,0.2,11.1,0.5,16.6
		c-3.4,0.2-6.8,0.7-10,1.2c-0.1,0-0.1,0.1-0.1,0.2c-0.1,0-0.3,0.1-0.3,0.3c-1.2,11.7-0.9,23.5-0.1,35.3c0,0.5,0.8,0.5,0.8,0
		c-0.8-11.8-0.6-23.5,0-35.3c0,0,0,0,0,0c4,0.1,8-0.1,12-0.4c-0.1,1.1-0.2,2.1-0.3,3.2c-1.7,0.1-3.5,0.2-5.2,0.3c0-0.1,0-0.2,0-0.3
		c0-0.2-0.3-0.2-0.3,0c0,0.1,0,0.2,0,0.3c-1.3,0.1-2.6,0.2-4,0.3c0-0.5,0-1-0.1-1.5c0-0.1-0.2-0.2-0.2,0c0,0.5,0,1,0,1.5
		c0,0,0,0-0.1,0c-0.3,0-0.3,0.4,0,0.4c0,0,0,0,0.1,0c0,2.9,0,5.8,0.1,8.7c0,0,0,0.1,0,0.1c0,1,0,1.9,0.1,2.9c-0.2,0-0.4,0-0.5,0
		c-0.3,0-0.3,0.4,0,0.4c0.2,0,0.4,0,0.5,0c0.1,3.9,0.3,7.8,0.5,11.8c-0.7,0-1.2-0.1-1.2-0.2c0-0.2-0.3-0.2-0.3,0c0,0.1,0,0.2,0,0.3
		c0,0.1,0,0.1,0.1,0.1c0.4,0.2,0.9,0.3,1.5,0.4c0.1,2.2,0.2,4.5,0.4,6.7c0,0.3,0.5,0.3,0.5,0c0-0.9-0.1-1.7-0.1-2.6
		c1.2,0.1,2.4,0.2,3.7,0.3c0,0.3,0.1,0.6,0.1,0.9c0,0.3,0.5,0.3,0.5,0c0-0.3,0-0.6-0.1-0.9c1.1,0.1,2.1,0.1,3.2,0.1
		c0,0.1,0,0.2,0,0.2c0,0.3,0.4,0.3,0.5,0c0-0.1,0-0.2,0-0.2c2.3,0,4.6-0.1,6.8-0.5c0.3,0,0.2-0.5-0.1-0.5c-1,0-2,0-2.9,0.1
		c0-0.4,0-0.8,0.1-1.3c0.6-0.1,1.2-0.2,1.8-0.2c0,0.3,0,0.6,0,0.9c0,0.4,0.5,0.3,0.6,0c0-0.3,0.1-0.7,0.1-1c0.2,0,0.4-0.1,0.6-0.1
		c0.3-0.1,0.2-0.5-0.1-0.5c-0.2,0-0.3,0-0.5,0c0.2-2.7,0.4-5.5,0.4-8.2c0,0,0.1,0,0.1,0c0.2,0,0.2-0.4-0.1-0.4c0,0,0,0,0,0
		c0.1-4.5-0.1-9.1-0.4-13.5c0.3,0,0.7,0,1-0.1c0.3,0,0.3-0.4,0-0.4c-0.4,0-0.7,0-1.1,0c-0.1-1.3-0.2-2.5-0.3-3.8
		c0.5,0,0.9-0.1,1.4-0.1c0.2,0,0.2-0.4,0-0.4c-0.5,0-1-0.1-1.5-0.1c0-0.5-0.1-0.9-0.1-1.4c0-0.1-0.1-0.1-0.1,0c0,0.5,0,0.9,0,1.4
		c-0.6,0-1.2,0-1.8,0c0-0.8,0-1.6-0.1-2.4c0-0.3-0.4-0.3-0.4,0c0,0.8,0,1.6-0.1,2.4c-0.8,0-1.6,0-2.3,0c0.1-1.1,0.1-2.1,0.2-3.2
		c3.2-0.2,6.4-0.4,9.5-0.5c0,0,0,0,0,0c-1.4,11.9-0.8,24.3,0.3,36.2c0,0.6,0.9,0.6,0.9,0c-0.9-12.1-0.6-24.2-0.7-36.3
		c0-0.1,0-0.1-0.1-0.2c0-0.2-0.1-0.4-0.4-0.5c-2.2-0.2-4.6-0.2-7-0.2c0,0,0,0,0,0c0-6.2-0.1-12.3-0.2-18.5c6,0.2,12.1,0.2,18.1,0.5
		c0.4,18.3,1.3,36.6,1.7,55c0,0.6,0.9,0.6,0.9,0c-0.4-16.1-0.6-32.2-1.4-48.3c4.2,0.3,8.3,0.4,12.5,0.2c0.6,0,0.6-1,0-1
		c-1.2,0-2.4,0.1-3.6,0.1c0,0,0,0,0,0c0-2.3,0.4-4.6,0.2-6.9c7.7,0.2,15.4-0.3,23.1-0.4c-0.1,19.1,1,38.2,1.6,57.2c0,0.6,1,0.6,1,0
		c-0.3-14.5-0.5-29.1-1.1-43.6c2,1.1,6.7,0.4,8.7,0.5c3.2,0.1,6.4,0.2,9.7,0.2c0.1,0,0.2-0.1,0.3-0.1c0.1,1.5,0.1,2.9,0.1,4.4
		c0.3,12.4,0.6,24.9,0.9,37.3c0,0.6,0.9,0.6,0.9,0c-0.3-12.4-0.5-24.9-0.8-37.3c-0.3-12,0.4-24.6-1-36.5c1.6,0.2,7.8-0.2,8.4-0.2
		c2.8,0,5.6,0.2,8.4-0.1c0,0,0,0,0,0c-0.8,12.3,0.3,25,0.6,37.3c0.3,12.5,0.7,25.1,1.1,37.6c0,0.6,0.9,0.6,0.9,0
		c-0.4-12.5-0.7-25.1-1-37.6c-0.1-4.3-0.1-8.6-0.1-12.9c4.6,0.3,9.5,0.6,14.1,0.1c0,0,0,0,0,0c0.1,6.1,0.4,12.2,0.8,18.3
		c0,0,0,0,0,0.1c-1.1,0.1-2.2,0.1-3.3,0.2c-0.1,0-0.1,0-0.1,0.1c-0.1,0-0.2,0-0.2,0.2c-0.1,10.3,0.9,20.8,1.6,31.1
		c0,0.5,0.8,0.5,0.7,0c-0.5-10.2-0.6-20.5-1.8-30.6c6-0.1,12,0,17.9,0.6c0.1,0,0.2,0,0.2,0c-0.6,5.1,0.4,10.1,1,15.1
		c0.6,5-0.4,10.3,1.2,15.1c0.2,0.5,0.9,0.3,0.7-0.2c-1.2-5.1-0.5-10.5-1.1-15.7c-0.6-5-1.2-9.9-1.2-15c0-0.3-0.4-0.4-0.5-0.1
		c-0.1-0.1-0.2-0.2-0.3-0.2c-0.4,0-0.7-0.1-1.1-0.1c-0.1-0.7-0.4-1.5-0.4-2.2c-0.1-0.8,0-1.6,0.1-2.4c0-0.2-0.3-0.2-0.3,0
		c-0.3,1.4-0.5,3.2,0.1,4.6c-0.6-0.1-1.2-0.1-1.8-0.2c-0.2-2.2-0.4-4.4-0.5-6.7c2.9,0.6,6,0.3,9,0.4c3.7,0,7.4,0.1,11.1,0.1
		c0.2,0,0.4-0.1,0.4-0.3c0.3,12.6,0.9,25.3,1.3,37.9c0,0.6,0.9,0.6,0.9,0c-0.5-17.5-0.6-35-1.7-52.4c6.2,0.7,13.1,0.3,19.3-0.1
		C558.7,228.9,558.7,228.1,558.2,228.1z M87.8,276.4c-0.8,0.1-1.6,0.3-2.4,0.4c0-0.9,0-1.8,0-2.7c0.8-0.1,1.6-0.2,2.5-0.3
		C87.8,274.7,87.7,275.6,87.8,276.4z M87.9,273c0,0.1,0,0.3,0,0.4c-0.8,0.1-1.6,0.2-2.5,0.3c0-1.3,0-2.7,0-4
		c0.9-0.1,1.7-0.3,2.6-0.5C88,270.5,87.9,271.7,87.9,273z M88,268.7c-0.9,0.2-1.7,0.3-2.6,0.5c0-0.8,0-1.7,0-2.5
		c0.9-0.1,1.7-0.2,2.6-0.4C88,267.1,88,267.9,88,268.7z M88.1,263.4c0,0.8,0,1.5-0.1,2.3c-0.9,0.1-1.7,0.2-2.6,0.3
		c0-1.1,0-2.1,0.1-3.2c0.9-0.1,1.8-0.2,2.6-0.4C88.2,262.8,88.2,263.1,88.1,263.4z M88.2,262.1c-0.9,0.1-1.8,0.2-2.6,0.3
		c0-0.9,0-1.9,0.1-2.8c0.9-0.1,1.8-0.2,2.7-0.4C88.2,260.2,88.2,261.2,88.2,262.1z M88.3,258.8c-0.9,0.1-1.8,0.2-2.7,0.3
		c0-1.3,0.1-2.6,0.1-3.9c0.9-0.1,1.8-0.1,2.7-0.2C88.4,256.3,88.3,257.6,88.3,258.8z M88.4,254.4c-0.9,0.1-1.8,0.1-2.7,0.2
		c0-1,0-2,0.1-3c0.9-0.1,1.8-0.2,2.7-0.2C88.5,252.4,88.4,253.4,88.4,254.4z M88.5,250.7c-0.9,0.1-1.8,0.2-2.7,0.2
		c0-0.8,0-1.6,0-2.5c0.9,0,1.9-0.1,2.8-0.1C88.6,249.1,88.5,249.9,88.5,250.7z M88.6,247.6c-0.9,0-1.9,0.1-2.8,0.1
		c0-0.8,0-1.6,0-2.3c1,0,1.9,0,2.9-0.1C88.7,246.1,88.7,246.9,88.6,247.6z M89.3,250.6c0-0.8,0.1-1.5,0.1-2.3c0.7,0,1.5-0.1,2.2-0.2
		c0,0.8,0,1.5,0,2.3C90.8,250.5,90,250.6,89.3,250.6z M91.5,247.6c-0.7,0-1.4,0-2.2,0c0-0.8,0-1.5,0.1-2.3c0.7,0,1.4,0,2.2,0
		C91.6,246,91.5,246.8,91.5,247.6z M81.6,242.7c3.5-0.1,7-0.4,10.4-0.8c-0.1,0.9-0.2,1.8-0.3,2.8c-0.7,0-1.5,0-2.2,0
		c0-0.6,0-1.2,0-1.8c0-0.4-0.6-0.4-0.7,0c0,0.6-0.1,1.2-0.1,1.8c-1,0-1.9,0-2.9,0.1c0-0.4,0-0.9,0-1.3c0-0.3-0.5-0.3-0.5,0
		c0,0.4-0.1,0.9-0.1,1.3c-1.2,0.1-2.5,0.1-3.7,0.2C81.6,244.2,81.6,243.4,81.6,242.7z M81.6,245.6c1.2-0.1,2.4-0.1,3.6-0.1
		c-0.1,0.8-0.1,1.6-0.2,2.3c-1.1,0.1-2.3,0.1-3.4,0.2C81.6,247.1,81.6,246.4,81.6,245.6z M81.5,248.5c1.1,0,2.3,0,3.4-0.1
		c-0.1,0.8-0.1,1.7-0.1,2.5c-1.1,0.1-2.2,0.2-3.3,0.3C81.5,250.4,81.5,249.5,81.5,248.5z M81.5,251.9c1.1-0.1,2.2-0.2,3.2-0.2
		c0,1-0.1,2-0.1,3c-1,0.1-2.1,0.2-3.1,0.3C81.5,253.9,81.5,252.9,81.5,251.9z M81.5,255.5c1-0.1,2.1-0.1,3.1-0.2
		c0,1.3-0.1,2.6-0.1,4c-1,0.1-2.1,0.2-3.1,0.3C81.5,258.2,81.5,256.9,81.5,255.5z M81.5,260.1c1-0.1,2.1-0.2,3.1-0.3
		c0,0.9,0,1.9,0,2.8c-1,0.1-2.1,0.3-3.1,0.4C81.4,262,81.5,261,81.5,260.1z M81.4,263.4c1-0.1,2.1-0.3,3.1-0.4c0,1.1,0,2.1,0,3.2
		c-1.1,0.1-2.1,0.2-3.2,0.3C81.4,265.4,81.4,264.4,81.4,263.4z M81.4,266.9c1.1,0,2.1-0.1,3.2-0.2c0,0.9,0,1.7,0.1,2.6
		c-1.1,0.2-2.2,0.4-3.3,0.5C81.3,268.9,81.3,267.9,81.4,266.9z M81.3,270.2c1.1-0.1,2.2-0.3,3.3-0.4c0,1.3,0.1,2.6,0.1,3.9
		c-1.2,0.1-2.4,0.3-3.6,0.4C81.3,272.8,81.3,271.5,81.3,270.2z M81.2,274.5c1.2-0.1,2.4-0.2,3.6-0.3c0,0.9,0.1,1.8,0.1,2.7
		c-1.2,0.2-2.5,0.3-3.8,0.4C81.2,276.3,81.2,275.4,81.2,274.5z M81.2,277.6c1.3,0,2.5-0.1,3.8-0.3c0,0.7,0.1,1.4,0.1,2.1
		c-1.3,0.1-2.6,0.1-3.9,0.1C81.1,278.9,81.1,278.3,81.2,277.6z M78.4,279.5C78.4,279.5,78.4,279.5,78.4,279.5
		c-0.1-1.6-0.1-3.3-0.2-4.9c0.8,0,1.7-0.1,2.5-0.1c0,0.9,0,1.9,0,2.8c-0.6,0-1.2,0.1-1.7,0.1c-0.2,0-0.2,0.3,0,0.3
		c0.6,0,1.2,0,1.8,0c0,0.6,0,1.3,0,1.9C80,279.5,79.2,279.5,78.4,279.5z M80.7,263.1c-0.7,0.1-1.4,0.2-2.1,0.3c-0.2,0-0.1,0.3,0,0.3
		c0.7-0.1,1.4-0.2,2-0.3c0,1,0,2,0,3c-0.8,0-1.5,0.1-2.3,0c-0.3,0-0.3,0.4,0,0.4c0.8,0,1.5,0,2.3,0c0,1,0,2,0,3
		c-0.8,0.1-1.5,0.2-2.3,0.3c-0.2,0-0.2,0.3,0,0.3c0.8-0.1,1.5-0.1,2.3-0.2c0,1.3,0,2.6,0,3.9c-0.8,0.1-1.7,0.1-2.5,0.2
		c-0.1-1.9-0.2-3.7-0.3-5.6c-0.1-2.2-0.2-4.4-0.3-6.6c0-0.4,0-1.1,0-1.8c1-0.1,2.1-0.1,3.1-0.2C80.7,261.1,80.7,262.1,80.7,263.1z
		 M78.4,245.7c0.8-0.1,1.7-0.1,2.5-0.1c0,0.8,0,1.6,0,2.4c-0.9,0-1.7,0.1-2.6,0.1C78.4,247.3,78.4,246.5,78.4,245.7z M78.3,248.6
		c0.9,0,1.7,0,2.6,0c0,1,0,1.9,0,2.9c-0.9,0.1-1.8,0.2-2.7,0.3C78.2,250.7,78.3,249.6,78.3,248.6z M78.1,252.2
		c0.9-0.1,1.8-0.1,2.7-0.2c0,1,0,2,0,3c0,0,0,0,0,0c-0.9,0.1-1.9,0.2-2.9,0.3C78,254.3,78,253.2,78.1,252.2z M75.2,252.4
		c0.8-0.1,1.5-0.1,2.3-0.2c0,1,0,2.1-0.1,3.1c-0.8,0.1-1.5,0.1-2.3,0.1C75.2,254.4,75.2,253.4,75.2,252.4z M72.1,255.3
		c0.9,0.3,1.8,0.5,2.7,0.5c0,0.6,0,1.1,0.1,1.7c0,0.2,0.2,0.2,0.2,0c0-0.6,0-1.1,0-1.7c0.8,0,1.5,0,2.3-0.1c0,0.4,0,0.8,0,1.2
		c0,0.2,0.3,0.2,0.3,0c0-0.4,0.1-0.8,0.1-1.2c0.3,0,0.7,0,1-0.1c0.7,0,1.3-0.1,2-0.1c0,1.4,0,2.8,0,4.1c-1,0.1-2.1,0.2-3.1,0.3
		c0-0.7-0.1-1.3-0.3-1.6c-0.8-1-2.8-0.5-3.8-0.4c-0.5,0-1.1,0.1-1.6,0.1C72.1,257.3,72.1,256.3,72.1,255.3z M283,235.8
		c0.9,0.1,1.8,0.1,2.8,0.1c0,0.9,0,1.8,0.1,2.8c-0.6,0-1.2-0.1-1.8-0.2c-0.2,0-0.4,0.3-0.1,0.4c0.6,0.1,1.2,0.2,1.9,0.3
		c0,1.4,0.1,2.9,0.1,4.3c-0.9,0-1.8-0.1-2.7-0.2c-0.1,0-0.1,0-0.2,0.1C283.1,240.8,283,238.3,283,235.8z M283.1,243.5
		C283.1,243.5,283.1,243.6,283.1,243.5c1,0.2,1.9,0.4,2.9,0.4c0,1.5,0.1,3,0.1,4.4c-1,0.1-2,0.1-3,0.1
		C283.1,246.8,283.1,245.2,283.1,243.5z M286.1,248.8c0.1,1.9,0.1,3.9,0.2,5.8c-1,0.1-2.1,0.2-3.1,0.2c0-2,0-4.1,0-6.1
		C284.1,248.8,285.1,248.9,286.1,248.8z M283.2,260.3C283.2,260.3,283.2,260.4,283.2,260.3c-0.1-1.7-0.1-3.4-0.1-5.2
		c1,0,2.1,0,3.1-0.1c0,1.6,0.1,3.2,0.1,4.8C285.3,260.1,284.3,260.2,283.2,260.3z M289.5,276.1c-0.7,0.1-1.5,0.1-2.2,0.1
		c0-1.4-0.1-2.8-0.1-4.1c0.7,0,1.5-0.1,2.2-0.2C289.5,273.3,289.5,274.7,289.5,276.1z M289.4,268.6c0,1,0,1.9,0.1,2.9
		c-0.7,0.1-1.5,0.2-2.2,0.2c0-0.9,0-1.8-0.1-2.8C287.9,268.8,288.7,268.7,289.4,268.6z M289.3,264.5c0,1.2,0,2.3,0.1,3.5
		c-0.7,0.1-1.5,0.3-2.2,0.4c0-1.3,0-2.5-0.1-3.8C287.9,264.6,288.6,264.6,289.3,264.5z M289.3,264c-0.7,0.1-1.5,0.1-2.2,0.2
		c0-1.3,0-2.6-0.1-3.9c0.7-0.1,1.5-0.1,2.2-0.2C289.3,261.4,289.3,262.7,289.3,264z M289.2,259.6c-0.7,0.1-1.5,0.2-2.2,0.2
		c0-1.6-0.1-3.2-0.1-4.8c0.7-0.1,1.5-0.1,2.2-0.2C289.2,256.4,289.2,258,289.2,259.6z M289.2,254.3c-0.7,0.1-1.5,0.2-2.2,0.3
		c0-1.9-0.1-3.8-0.1-5.7c0.8,0,1.5-0.1,2.3-0.2C289.1,250.5,289.1,252.4,289.2,254.3z M289.1,248.1c-0.8,0.1-1.5,0.2-2.3,0.2
		c0-1.5-0.1-2.9-0.1-4.4c0.8,0,1.5-0.1,2.3-0.2C289.1,245.2,289.1,246.7,289.1,248.1z M289,243.2c-0.8,0.1-1.5,0.2-2.3,0.2
		c0-1.4-0.1-2.8-0.1-4.3c0.8,0.1,1.6,0,2.4,0C289,240.5,289,241.8,289,243.2z M289,238.6c-0.8,0.1-1.6,0.1-2.4,0.1
		c0-0.9,0-1.9-0.1-2.8c0.8,0,1.6-0.1,2.4-0.3C289,236.6,289,237.6,289,238.6z M289,235c-0.8,0.1-1.6,0.2-2.4,0.3c0-1,0-1.9-0.1-2.9
		c0.8,0,1.6-0.1,2.4-0.2C288.9,233.1,289,234.1,289,235z M288.9,231.7c-0.8,0-1.6,0.1-2.5,0.2c0-1.5-0.1-3-0.1-4.6
		c0.8-0.1,1.7-0.2,2.5-0.3C288.9,228.6,288.9,230.2,288.9,231.7z M288.9,226.5c-0.8,0.1-1.7,0.2-2.5,0.3c0-1.5-0.1-3-0.1-4.5
		c0.9-0.1,1.8-0.2,2.6-0.3C288.9,223.4,288.9,225,288.9,226.5z M288.9,221.3c-0.9,0.1-1.8,0.2-2.6,0.3c0-1.2-0.1-2.3-0.1-3.5
		c0.9-0.1,1.8-0.2,2.7-0.3C288.9,218.9,288.9,220.1,288.9,221.3z M288.9,217.2c-0.9,0.1-1.8,0.2-2.7,0.3c0-1.3-0.1-2.6-0.1-3.9
		c0.9-0.1,1.9-0.2,2.8-0.3C288.8,214.6,288.8,215.9,288.9,217.2z M288.8,212.7c-0.9,0.1-1.9,0.2-2.8,0.3c0-1.4-0.1-2.8-0.1-4.2
		c1,0,1.9-0.1,2.9-0.3C288.8,209.9,288.8,211.3,288.8,212.7z M288.8,207.9c-1,0.1-1.9,0.2-2.9,0.3c0-1.8-0.1-3.5-0.2-5.3
		c1-0.1,2-0.1,3.1-0.3C288.8,204.3,288.8,206.1,288.8,207.9z M288.8,192.3c-1.1,0-2.2,0.1-3.4,0.1c0-1.2-0.1-2.4-0.1-3.7
		c1.2,0,2.3,0,3.5,0C288.8,189.9,288.8,191.1,288.8,192.3z M285.4,217.5c-1,0.1-2.1,0.2-3.1,0.2c0-1.4,0-2.8,0-4.1c1,0,2,0,3,0
		C285.3,214.9,285.3,216.2,285.4,217.5z M288.8,184.8c0,1.1,0,2.2,0,3.3c-1.2,0-2.3,0-3.5,0c0-1.1-0.1-2.2-0.1-3.3
		C286.3,184.8,287.6,184.8,288.8,184.8z M280.6,185c1.4-0.1,2.9-0.1,4.3-0.2c0,1.1,0,2.2,0,3.3c-1.2,0-2.4,0.1-3.6,0.1
		c-0.3,0-0.3,0.5,0,0.5c1.2,0,2.4,0.1,3.6,0.1c0,1.2,0,2.5,0,3.7c-1.2,0-2.4,0-3.6,0C281.2,189.9,280.9,187.5,280.6,185z
		 M281.4,192.9c1.2,0.1,2.4,0.1,3.5,0.1c0,1.4,0,2.8,0.1,4.3c-1.1,0.1-2.2,0.1-3.3,0.1C281.6,195.9,281.5,194.4,281.4,192.9z
		 M281.8,197.8c1.1,0,2.2,0,3.2,0c0,1.5,0,3,0.1,4.5c-1,0.1-2,0.1-3.1,0.1C281.9,200.9,281.9,199.3,281.8,197.8z M282,202.8
		c1,0,2,0,3.1,0c0,1.8,0.1,3.6,0.1,5.3c-1,0.1-2,0.1-3,0.1C282.2,206.4,282.1,204.6,282,202.8z M282.2,208.7c1,0.1,2,0.1,3,0.1
		c0,1.4,0.1,2.8,0.1,4.3c-1,0.1-2,0.1-3,0.2C282.3,211.7,282.3,210.2,282.2,208.7z M282.2,222c0-1.2,0-2.5,0-3.7
		c1,0,2.1-0.1,3.1-0.2c0,1.2,0,2.4,0.1,3.5C284.4,221.7,283.3,221.8,282.2,222z M285.6,197.2c0-1.4-0.1-2.8-0.1-4.2
		c1.1,0,2.2,0,3.3-0.1c0,1.3,0,2.7,0,4C287.7,197,286.6,197.1,285.6,197.2z M285.6,197.8c1.1-0.1,2.1-0.1,3.2-0.3c0,1.5,0,3,0,4.5
		c-1,0.1-2.1,0.2-3.1,0.3C285.7,200.8,285.6,199.3,285.6,197.8z M285.7,232.4c0,1,0,1.9,0.1,2.9c-0.9,0.1-1.8,0.1-2.8,0.1
		c0-1,0-1.9-0.1-2.9C283.9,232.5,284.8,232.5,285.7,232.4z M402.5,276.6c0-0.8,0.1-1.5,0.1-2.3c0.6-0.1,1.1-0.1,1.7-0.2
		c0,0.8,0,1.6-0.1,2.3C403.6,276.5,403.1,276.6,402.5,276.6z M404.3,273.7c-0.3,0-0.9,0-1.7,0.1c0-0.8,0-1.6,0.1-2.3
		c0.5-0.1,1.1-0.1,1.6-0.2c0,0,0.1,0,0.1,0C404.3,272.1,404.3,272.9,404.3,273.7z M404.4,261.3c-0.6,0-1.2,0.1-1.8,0.1
		c0-0.8,0-1.6,0-2.5c0.6-0.1,1.2-0.1,1.8-0.2C404.4,259.6,404.4,260.5,404.4,261.3z M404.4,261.7c0,0.9,0,1.7,0,2.6
		c-0.6,0.1-1.2,0.1-1.7,0.2c0-0.9,0-1.7,0-2.6C403.3,261.8,403.8,261.7,404.4,261.7z M404.4,258.4c-0.6,0-1.2,0.1-1.8,0.1
		c0-0.6,0-1.2,0-1.8c0.6-0.1,1.2-0.2,1.8-0.3C404.4,257.1,404.4,257.7,404.4,258.4z M404.4,270.9c0,0-0.1-0.1-0.1-0.1
		c-0.5,0-1,0-1.5,0c0-0.7,0-1.5,0-2.2c0.6-0.1,1.1-0.2,1.7-0.3C404.4,269.2,404.4,270,404.4,270.9z M402.7,268c0-1,0-2,0-3
		c0.6-0.1,1.2-0.2,1.7-0.3c0,1.1,0,2.1,0,3.2C403.8,267.9,403.3,267.9,402.7,268z M404.4,256.1c-0.6,0.1-1.2,0.1-1.8,0.2
		c0-0.6,0-1.3,0-1.9c0.6,0,1.2-0.1,1.8-0.1C404.4,254.9,404.4,255.5,404.4,256.1z M404.2,250c0,1.3,0.1,2.5,0.1,3.8
		c-0.6,0-1.2,0-1.8,0c0-1.2-0.1-2.4-0.1-3.7C403,250.1,403.6,250.1,404.2,250z M399.3,254.5c0.8,0,1.6-0.1,2.5-0.1c0,0.7,0,1.3,0,2
		c-0.8,0.1-1.7,0.2-2.5,0.3C399.2,255.9,399.3,255.2,399.3,254.5z M401.6,268.8c0,0.7,0,1.4,0,2.1c-0.9,0-1.9,0.1-2.8,0.1
		c0-0.6,0-1.3,0-1.9C399.8,269,400.7,268.9,401.6,268.8z M398.9,268.4c0-1,0.1-2.1,0.1-3.1c0.9,0,1.7-0.1,2.6-0.2c0,1,0,2,0,3
		C400.7,268.2,399.8,268.3,398.9,268.4z M401.6,271.6c0,0.8,0,1.5,0.1,2.3c-0.9,0.1-1.9,0.1-2.9,0.2c0-0.7,0-1.5,0.1-2.2
		C399.7,271.8,400.7,271.7,401.6,271.6z M401.7,274.4c0,0.8,0.1,1.5,0.1,2.2c-1.1,0.1-2.1,0.1-3.2,0.2c0-0.8,0-1.5,0.1-2.3
		C399.7,274.6,400.7,274.5,401.7,274.4z M399.2,257.1c0.8-0.1,1.7-0.2,2.5-0.3c0,0.6,0,1.2,0,1.7c-0.8,0.1-1.7,0.1-2.5,0.2
		C399.2,258.2,399.2,257.6,399.2,257.1z M399.1,259.3c0.8-0.1,1.7-0.1,2.5-0.2c0,0.8,0,1.6,0,2.4c-0.9,0-1.7,0.1-2.6,0.1
		C399.1,260.9,399.1,260.1,399.1,259.3z M401.6,262c0,0.9,0,1.7,0,2.6c-0.9,0.1-1.7,0.1-2.6,0.2c0-0.8,0-1.7,0.1-2.5
		C399.9,262.1,400.7,262.1,401.6,262z M399,250.3c-0.1,1.2-0.2,2.4-0.3,3.6c-1.6,0.1-3.2,0.1-4.8,0.2c0-1.2,0-2.5-0.1-3.7
		C395.6,250.4,397.3,250.3,399,250.3z M389.6,250.5c1.3-0.1,2.6-0.1,3.9-0.1c0,1.2-0.1,2.5-0.1,3.7c-1.2,0.1-2.4,0.1-3.7,0.2
		C389.7,253.1,389.7,251.8,389.6,250.5z M389.8,254.7c1.2,0,2.4,0,3.6,0c0,0.9,0,1.8,0,2.7c-1.1,0.2-2.3,0.3-3.4,0.5
		c0,0-0.1,0-0.1,0C389.9,256.8,389.8,255.7,389.8,254.7z M389.9,258C390,258,390,258.1,389.9,258c1.2-0.1,2.3-0.2,3.5-0.3
		c0,0.4,0,0.9,0,1.3c-1.1,0-2.3,0.1-3.4,0.1C390,258.8,390,258.4,389.9,258z M390,259.4c1.1,0.1,2.3,0.1,3.4,0.1c0,0.8,0,1.7,0,2.5
		c-1.1,0.1-2.2,0.1-3.4,0.2C390.1,261.2,390,260.3,390,259.4z M390.1,262.6c1.1,0,2.2-0.1,3.3-0.1c0,0.8,0,1.5,0.1,2.3
		c-1.1,0-2.2-0.1-3.3-0.2C390.2,263.9,390.1,263.3,390.1,262.6z M390.2,264.9c1.1,0.1,2.2,0.2,3.3,0.3c0,1.3,0.1,2.6,0.2,3.8
		c-0.8,0.1-1.6,0.2-2.5,0.3c0,0,0,0,0,0c-0.3-0.2-0.6-0.1-0.8,0.1C390.3,268,390.3,266.5,390.2,264.9z M390.4,269.9
		c1.1-0.1,2.2-0.2,3.3-0.3c0,0.6,0.1,1.3,0.1,1.9c-1,0.1-2,0.2-3,0.4c-0.2,0-0.1,0.3,0,0.3c1,0,2,0,3,0c0,0.7,0.1,1.4,0.1,2.1
		c-1.3,0.1-2.5,0.1-3.4,0.1C390.5,272.9,390.4,271.4,390.4,269.9z M390.7,278.6c0-1.2-0.1-2.4-0.1-3.6c1.1,0.1,2.4-0.1,3.5-0.2
		c0.1,0.7,0.1,1.5,0.2,2.2c-0.9,0-1.8,0-2.8,0c-0.2,0-0.2,0.3,0,0.3c0.9,0.1,1.9,0.2,2.8,0.2c0,0.4,0.1,0.8,0.1,1.2
		C393.1,278.7,391.9,278.7,390.7,278.6z M394.2,265.3c1.3,0.1,2.6,0.1,3.9,0c0,1.1-0.1,2.1-0.1,3.2c-1.2,0.2-2.4,0.3-3.6,0.5
		C394.3,267.7,394.2,266.5,394.2,265.3z M394.5,271.4c0-0.6-0.1-1.3-0.1-1.9c1.2-0.1,2.4-0.2,3.6-0.3c0,0.6,0,1.3,0,1.9
		C396.8,271.2,395.6,271.3,394.5,271.4z M394.5,272.1c1.2,0,2.3-0.1,3.5-0.2c0,0.7,0,1.4,0,2.2c-1.1,0.1-2.3,0.1-3.4,0.2
		C394.6,273.5,394.5,272.8,394.5,272.1z M394.7,274.8c0.3,0,0.6,0,0.9-0.1c0.8,0,1.6,0,2.4-0.1c0,0.8,0,1.5,0.1,2.3
		c-1.1,0.1-2.2,0.1-3.2,0.1C394.7,276.3,394.7,275.5,394.7,274.8z M394.9,278.8c0-0.4,0-0.7-0.1-1.1c1.1,0,2.2,0,3.2,0
		c0,0.4,0,0.7,0,1.1C397,278.8,396,278.8,394.9,278.8z M398.1,264.8c-1.3,0-2.6,0.1-3.9,0c0-0.8,0-1.6-0.1-2.4
		c1.4-0.1,2.7-0.1,4.1-0.2C398.2,263.1,398.1,263.9,398.1,264.8z M398.2,261.7c-1.4,0.1-2.8,0.2-4.1,0.3c0-0.8-0.1-1.6-0.1-2.4
		c1.4,0,2.9-0.1,4.3-0.1C398.3,260.1,398.3,260.9,398.2,261.7z M398.4,258.8c-1.5,0.1-2.9,0.2-4.4,0.2c0-0.4,0-0.9,0-1.3
		c1.5-0.2,3-0.3,4.5-0.5C398.5,257.7,398.4,258.2,398.4,258.8z M398.5,256.7c-1.5,0.2-3.1,0.4-4.6,0.6c0-0.9,0-1.8,0-2.7
		c1.6,0,3.2-0.1,4.8-0.1C398.6,255.2,398.6,256,398.5,256.7z M401.9,278.6c-1.1,0-2.2,0.1-3.3,0.1c0-0.4,0-0.7,0-1.1
		c1.1,0,2.1-0.1,3.2-0.2C401.9,277.8,401.9,278.2,401.9,278.6z M401.8,250.2c0,1.2-0.1,2.4-0.1,3.7c-0.8,0-1.6,0-2.4,0.1
		c0-1.2,0.1-2.4,0.2-3.6C400.3,250.3,401.1,250.2,401.8,250.2z"/>
	<path fill="#F6F6F6" d="M41.5,255c0-0.2-0.3-0.2-0.3,0c-1.1,8.5-0.5,17.6,0.3,26.1c0,0.2,0.4,0.2,0.4,0
		C41.5,272.4,41.8,263.7,41.5,255z"/>
	<path fill="#F6F6F6" d="M44.9,253.3c0-0.3-0.4-0.3-0.5,0c-1,8.7-0.9,17.9-0.5,26.6c0,0.2,0.4,0.2,0.4,0
		C44.6,271.2,45.1,262.2,44.9,253.3z"/>
	<path fill="#F6F6F6" d="M47.7,253.6c0-0.4-0.6-0.4-0.6,0c-0.3,9-0.2,18,0.6,26.9c0,0.3,0.5,0.3,0.5,0
		C47.7,271.6,47.5,262.6,47.7,253.6z"/>
	<path fill="#F6F6F6" d="M50.4,251.4c0-0.4-0.6-0.4-0.6,0c-0.2,10.3-0.1,20.7,0.2,31.1c0,0.3,0.4,0.3,0.4,0
		C50.7,272.1,50.8,261.7,50.4,251.4z"/>
	<path fill="#F6F6F6" d="M53.8,250.8c0-0.3-0.5-0.3-0.5,0c-0.4,9.9-0.2,19.8,0,29.7c0,0.2,0.4,0.2,0.4,0
		C53.7,270.7,54,260.7,53.8,250.8z"/>
	<path fill="#F6F6F6" d="M57.1,254.5c-0.8,8.6-1.1,17.2-0.8,25.8c0,0.2,0.4,0.2,0.4,0c0.1-8.6,0.4-17.2,1-25.8
		C57.8,254.1,57.1,254.1,57.1,254.5z"/>
	<path fill="#F6F6F6" d="M132.3,225c0-0.3-0.5-0.3-0.5,0c-0.2,8.5,0.3,17.4,1.1,25.9c0,0.2,0.3,0.2,0.3,0
		C133.2,242.3,132.5,233.6,132.3,225z"/>
	<path fill="#F6F6F6" d="M135.6,224.5c0-0.3-0.4-0.3-0.4,0c-0.5,8.8-0.1,17.8,0.3,26.6c0,0.2,0.3,0.2,0.3,0
		C136.1,242.3,136.2,233.3,135.6,224.5z"/>
	<path fill="#F6F6F6" d="M139.1,215.9c0-0.2-0.3-0.2-0.3,0c0.8,21.6,2.2,43.3,3.3,65c0,0.3,0.4,0.3,0.4,0
		C142.2,259.2,141.2,237.4,139.1,215.9z"/>
	<path fill="#F6F6F6" d="M143.3,217c0-0.2-0.4-0.3-0.4,0c0.7,21.2,1.9,42.4,2.8,63.6c0,0.3,0.5,0.3,0.5,0
		C145.4,259.4,144.7,238.1,143.3,217z"/>
	<path fill="#F6F6F6" d="M147.7,216.4c0-0.2-0.3-0.2-0.3,0c0.7,21.1,1.5,42.2,2,63.3c0,0.3,0.5,0.3,0.5,0
		C150.1,258.7,149.5,237.4,147.7,216.4z"/>
	<path fill="#F6F6F6" d="M150.7,206.4c0-0.2-0.3-0.2-0.3,0c0.2,25.1,2,50.4,3.1,75.5c0,0.4,0.6,0.4,0.6,0
		C153.1,256.8,152.7,231.5,150.7,206.4z"/>
	<path fill="#F6F6F6" d="M154.3,214.8c0-0.2-0.3-0.2-0.3,0c0.2,21.9,1.6,43.9,2.6,65.8c0,0.3,0.5,0.3,0.5,0
		C156.3,258.6,155.8,236.6,154.3,214.8z"/>
	<path fill="#F6F6F6" d="M157.7,215.6c0-0.2-0.3-0.2-0.3,0c0.5,21.9,2,43.9,2.5,65.8c0,0.4,0.6,0.4,0.6,0
		C160.3,259.5,160,237.3,157.7,215.6z"/>
	<path fill="#F6F6F6" d="M163.8,247.9c-0.5-10.4-1.1-20.8-2-31.2c0-0.3-0.5-0.3-0.5,0c0.6,10.4,1.3,20.8,1.8,31.2
		c0.5,10.4,0.5,20.9,1.3,31.2c0,0.3,0.5,0.3,0.5,0C165.1,268.8,164.3,258.3,163.8,247.9z"/>
	<path fill="#F6F6F6" d="M166.2,223.4c0-0.2-0.4-0.2-0.4,0c0.1,6.2,0.2,12.4,1,18.6c0,0.4,0.6,0.4,0.6,0
		C167,235.8,166.4,229.6,166.2,223.4z"/>
	<path fill="#F6F6F6" d="M170.4,224.5c0-0.4-0.6-0.4-0.6,0c0.1,4.9,0.1,9.9,0.8,14.7c0,0.4,0.6,0.4,0.6,0
		C171.3,234.3,170.8,229.3,170.4,224.5z"/>
	<path fill="#F6F6F6" d="M258.9,181.7c0-0.2-0.3-0.2-0.3,0c-0.5,32.4-0.1,65,0.7,97.4c0,0.3,0.5,0.3,0.5,0
		C259,246.7,259.6,214.2,258.9,181.7z"/>
	<path fill="#F6F6F6" d="M262.1,183.4c0-0.2-0.4-0.2-0.4,0c-1.8,32.2-1.6,64.9,1,97.1c0,0.3,0.5,0.3,0.5,0
		C261.5,248.1,261,215.9,262.1,183.4z"/>
	<path fill="#F6F6F6" d="M265,182.9c0-0.2-0.3-0.2-0.3,0c-0.4,14.2-0.9,28.8-0.3,43c0,0.3,0.5,0.3,0.5,0
		C265.7,211.6,265.3,197.1,265,182.9z"/>
	<path fill="#F6F6F6" d="M304.8,219.5c0-0.1-0.2-0.1-0.2,0c-0.3,2.8-0.2,5.9,0.4,8.6c0.1,0.2,0.4,0.2,0.4-0.1
		C305.1,225.2,304.7,222.4,304.8,219.5z"/>
	<path fill="#F6F6F6" d="M307,220.6c0-0.1-0.2-0.1-0.2,0c-0.2,2.6-0.3,5.5,0,8c0,0.3,0.4,0.3,0.4,0
		C307.4,226.1,307.2,223.2,307,220.6z"/>
	<path fill="#F6F6F6" d="M309.3,219.8c0-0.2-0.4-0.3-0.4,0c0.4,3.3,0.4,6.7,0.7,10c0,0.3,0.4,0.3,0.4,0
		C310.2,226.4,309.7,223,309.3,219.8z"/>
	<path fill="#F6F6F6" d="M312.7,218.9c0-0.2-0.3-0.2-0.3,0c0,4.1-0.3,8.1-0.4,12.2c0,0.2,0.3,0.3,0.4,0
		C313,227.2,313,222.9,312.7,218.9z"/>
	<path fill="#F6F6F6" d="M317.7,281.7c-1.3-2.7-1-6.2-1.1-9.1c-0.1-2.5-0.2-5-0.2-7.4c-0.2-5.2-0.3-10.5-0.5-15.7
		c-0.3-10.5-0.7-20.9-1.2-31.4c0-0.2-0.3-0.2-0.3,0c0.2,11.6,0.6,23.1,1,34.7c0.2,5.5,0.4,11,0.6,16.5c0.1,3.9-0.7,9.1,1.4,12.6
		C317.5,282.1,317.8,281.9,317.7,281.7z"/>
	<path fill="#F6F6F6" d="M318.9,250.5c-0.4-10.3-0.5-20.6-0.7-31c0-0.2-0.3-0.2-0.3,0c-0.2,20.5-0.2,41.6,2.1,61.9
		c0,0.2,0.4,0.2,0.4,0C320.2,271.1,319.3,260.8,318.9,250.5z"/>
	<path fill="#F6F6F6" d="M322.3,218.4c0-0.2-0.3-0.2-0.3,0c-0.2,20.8,0,41.6,0.4,62.4c0,0.4,0.6,0.4,0.6,0
		C323,260,322.8,239.2,322.3,218.4z"/>
	<path fill="#F6F6F6" d="M358.3,218.1c-0.2,2.1-0.3,4.3-0.5,6.4c0,0.3,0.4,0.3,0.4,0c0.1-2.1,0.2-4.3,0.2-6.4
		C358.5,218,358.4,218,358.3,218.1z"/>
	<path fill="#F6F6F6" d="M363.7,218.1c0-0.2-0.4-0.2-0.4,0c-0.1,21.6,0.7,43.3,1.2,64.9c0,0.3,0.4,0.3,0.4,0
		C364.6,261.4,364.6,239.7,363.7,218.1z"/>
	<path fill="#F6F6F6" d="M367.8,218.7c0-0.2-0.2-0.2-0.3,0c-0.4,21.2-0.9,42.6-0.1,63.8c0,0.2,0.4,0.2,0.4,0
		C368.6,261.3,368.1,239.8,367.8,218.7z"/>
	<path fill="#F6F6F6" d="M371,218.9c0-0.2-0.2-0.2-0.2,0c-0.1,20.5,0,41.1,0.3,61.6c0,0.3,0.5,0.3,0.5,0
		C372.3,260.1,372.1,239.3,371,218.9z"/>
	<path fill="#F6F6F6" d="M373.6,217.7c0-0.2-0.4-0.2-0.4,0c2.6,21.6-1.1,43.2,0.3,64.8c0,0.3,0.6,0.3,0.5,0
		C372.7,261,377.2,239.1,373.6,217.7z"/>
	<path fill="#F6F6F6" d="M376.4,219.5c0-0.2-0.3-0.2-0.3,0c1,20.3,1.2,40.5,0.8,60.8c0,0.4,0.6,0.4,0.6,0
		C378.6,260.1,378.1,239.6,376.4,219.5z"/>
</g>
</svg>
