<?xml version="1.0" encoding="utf-8"?>
<!-- Generator: Adobe Illustrator 18.1.1, SVG Export Plug-In . SVG Version: 6.00 Build 0)  -->
<svg version="1.1" id="Layer_1" xmlns="http://www.w3.org/2000/svg" xmlns:xlink="http://www.w3.org/1999/xlink" x="0px" y="0px"
	 viewBox="0 0 242.9 43.1" enable-background="new 0 0 242.9 43.1" xml:space="preserve">
<path fill="none" stroke="#000000" stroke-miterlimit="10" d="M37.8,29.9l-0.1,1.9h-7.1l-1.3-0.6c0,0-1.1-0.3-1.1,0.6s0,4.6,0,4.6
	s-0.1,0.6,1,0.5c1.1,0,11.8,0,11.8,0s3.2-0.6,3.6-3.3s1.8-14.9,1.8-14.9s0.3-1.5,1.1-2.8c0.8-1.3-0.8-1.1-1.3-1.1s-5.7,0-5.7,0
	s-0.8-0.2-1,1.6s-1.3,9.1-1.3,9.1s-0.1,0.1-1.3,0.1c-1.2,0-1.3,0.1-1.3,0.1l1.5-10c0,0,0.4-0.8-0.9-0.8c-1.3-0.1-6.5,0-6.5,0
	s-1,0.9,0.2,1.4l-1.3,9.8c0,0-0.2,3,1.6,3.3C32.1,30.1,37.8,29.9,37.8,29.9z"/>
<path fill="none" stroke="#000000" stroke-miterlimit="10" d="M45.2,33.3l2-14.6c0,0,0.8-3.8,3-3.8c2.2-0.1,11.3,0,11.3,0
	s2.5,0.5,2.3,3.5S62,32.5,62,32.5s-0.6,4.1-3.3,4.1s-11.4,0-11.4,0S45.2,36,45.2,33.3z"/>
<path fill="none" stroke="#000000" stroke-miterlimit="10" d="M71.5,16.8l-1.9,14.3c0,0,0,1.1,0.6,1.1c0.6,0,1.4-0.3,1.6-1.9
	c0.2-1.6,1.9-13.5,1.9-13.5l-0.2-1.4c0,0-0.1-0.5,0.9-0.5s6.6,0,6.6,0s0.8,0.7,0,1.4l-0.2,0.2l-2.2,16.5c0,0-0.5,3.3-3.9,3.7
	s-8.4,0.4-8.9,0.2c-0.5-0.2-3.7-0.7-3.4-3.8s2.2-16.2,2.2-16.2s-0.4-0.7-0.4-1s0.1-0.9,0.9-0.9s6.5,0,6.5,0s0.6,0.4,0.3,1
	S71.5,16.8,71.5,16.8z"/>
<path fill="none" stroke="#000000" stroke-miterlimit="10" d="M54.2,20.2h2.2c0,0,0,0.1,0,0.3c0,0.2-1.4,10.6-1.4,10.6h-2.6l1.3-10
	C53.7,21.1,53.6,20.2,54.2,20.2z"/>
<path fill="none" stroke="#000000" stroke-miterlimit="10" d="M80,34.6l2.4-17.5c0,0,0.1-0.6,0-0.7c-0.1-0.1-0.9-1.5,0.3-1.5
	c1.2,0,7.1,0,7.1,0l5.2,9.8l0.9-8.1c0,0-0.8-1.7,0.3-1.7c1.1,0,7.5,0,7.5,0s0.9,0.3,0.3,1.4c-0.6,1.1-0.6,1.1-0.6,1.1L101,34.6
	c0,0,0,0.5,0.1,0.8c0.1,0.3,0.7,1.4-0.6,1.4c-1.2,0-7.4,0-7.4,0s-0.8-0.5-0.3-1.4c0.6-0.9,0.6-1.8,0.6-2.1s-5-9.6-5-9.6l-1.7,11.1
	l0.3,1.1c0,0,0.3,1-0.9,1s-6.7,0-6.7,0s-0.8-0.7-0.3-1.2C79.8,35.2,79.9,34.8,80,34.6z"/>
<path fill="none" stroke="#000000" stroke-miterlimit="10" d="M108.4,30.8l1.4-10.2c0,0,0.1-0.4,0.5-0.4s6.5,0,6.5,0s0.5,0.9,1,0.8
	c0.5-0.1,0.8-1,0.8-1.4c0-0.4,0.5-4.2,0.5-4.2s0.3-0.5-0.9-0.5c-1.1-0.1-11.5,0-11.5,0s-3,0.6-3.4,4.2c-0.5,3.5-1.6,12.3-1.6,12.3
	s-0.1,2.9,0.2,3.7s1.2,1.7,2.1,1.7c0.8,0,13.4,0,13.4,0s0.6,0.2,0.7-1.6c0.1-1.8,0.9-7.4,0.8-8.2c-0.1-0.8-0.5-2-1.1-2.1
	c-0.5-0.1-7.1,0-7.1,0s-0.4,0-0.5,0.9s-0.5,3.8-0.5,3.8s-0.1,1,0.8,0.8c0.8-0.2,0.9-0.6,0.9-0.6l0.6,0l-0.1,1.5l-2.6,0
	C109.1,31.4,108.4,31.3,108.4,30.8z"/>
<path fill="none" stroke="#000000" stroke-miterlimit="10" d="M123.2,34.4l2.4-17.7c0,0-0.4-1-0.2-1.3c0.1-0.3,0.4-0.4,0.8-0.4
	s6.5,0,6.5,0s0.9,0,0.5,1c-0.4,1-0.4,1-0.4,1l-1,6.4h2.2l1-6.6l-0.4-1.1c0,0-0.4-0.6,0.7-0.8c1.1-0.2,7.1,0,7.1,0s0.6,0.9,0,1.7
	c-0.6,0.7-0.6,0.6-0.6,0.6l-2.2,17.5c0,0,0.3,1.2,0.3,1.4s0.3,0.8-1.2,0.7c-1.5,0-6.6,0-6.6,0s-0.2-0.8,0.2-1.4
	c0.4-0.7,0.5-1.1,0.5-1.1l0.5-5.5h-2.1l-0.2,0l-0.6,6.4c0,0,0.7,1.2,0.1,1.4c-0.6,0.3-7.6,0-7.6,0s-0.7-0.7,0-1.3
	C123.7,34.7,123.2,34.4,123.2,34.4z"/>
<path fill="none" stroke="#000000" stroke-miterlimit="10" d="M143.4,14.9h6.1c0,0,0.9,0.4,0.5,1.1c-0.4,0.7-0.5,0.9-0.5,0.9
	l-1.8,14.3c0,0,0.2,1.2,0.7,1.1c0.4-0.1,1.5-0.3,1.8-3c0.3-2.7,1.8-12.8,1.8-12.8l-0.4-0.9c0,0-0.1-0.7,0.7-0.7s6.9,0,6.9,0
	s0.4,0.7,0,1.1c-0.4,0.4-0.4,1-0.4,1l-2.2,16.4c0,0-0.8,2.9-4.6,3.2c-3.8,0.3-8.6,0-8.6,0s-3.5-0.6-3.1-3.9
	c0.4-3.4,2.2-16.1,2.2-16.1S141.7,14.5,143.4,14.9z"/>
<path fill="none" stroke="#000000" stroke-miterlimit="10" d="M175.1,22.2"/>
<path fill="none" stroke="#000000" stroke-miterlimit="10" d="M174.3,21.4h2.3l-1.7,13.5c0,0-1,1.2-0.7,1.6c0.4,0.4,7.1,0.4,7.1,0.4
	s0.9,0.1,0.7-0.9c-0.2-1-0.2-1.9-0.2-1.9l1.7-12.6l0.7-0.1c0,0,1.3-0.6,1.4-1c0.1-0.4,0.6-3.8,0.6-3.8l-0.9-1.4h-11.5
	c0,0-0.7,0.1-0.7,0.3s-0.8,6.8-0.7,6.8s0.8,0.8,1.4,0C174.3,21.4,174.3,21.4,174.3,21.4z"/>
<path fill="none" stroke="#000000" stroke-miterlimit="10" d="M191.3,31l1.9-14.2c0,0,1.1-1.4,0.3-1.7s-6.7-0.3-6.7-0.3l-2.5,15.2
	l-0.5,4.9c0,0-0.2,1.7,1.5,1.8c1.7,0.1,11,0,11,0s0.9,0.1,0.9-1.7s0.3-2.9,0.3-2.9s0-1-1.2-0.7c-1.2,0.3-2.6,0.9-3,0.9
	C192.8,32.4,191.7,32.8,191.3,31z"/>
<path fill="none" stroke="#000000" stroke-miterlimit="10" d="M194.9,41.2l7.4-16.4l3.9-8.5l6.8-4.4c0,0,0.7-0.1,0.8,0.6
	s1.6,23,1.6,23s0.5,0.1,0.3,0.6c-0.1,0.5-0.3,0.5-0.5,0.6c-0.3,0.1-7.6,0.3-7.6,0.3s-1.1-0.4-0.2-1.5l0.4-0.1l-0.4-1.8l-4.9-0.1
	l-3.4,8l-0.1,1.6c0,0,0.1,0.4-1.1,0.5c-1.2,0.1-3.8,0-3.8,0s-0.9-0.5-0.3-1.1C194.5,41.9,194.9,41.2,194.9,41.2z"/>
<polygon fill="none" stroke="#000000" stroke-miterlimit="10" points="204.1,29.7 207.3,29.7 206.9,24.3 "/>
<path fill="none" stroke="#FFFFFF" stroke-miterlimit="10" d="M37.8,29.9l-0.1,1.9h-7.1l-1.3-0.6c0,0-1.1-0.3-1.1,0.6s0,4.6,0,4.6
	s-0.1,0.6,1,0.5c1.1,0,11.8,0,11.8,0s3.2-0.6,3.6-3.3s1.8-14.9,1.8-14.9s0.3-1.5,1.1-2.8c0.8-1.3-0.8-1.1-1.3-1.1s-5.7,0-5.7,0
	s-0.8-0.2-1,1.6s-1.3,9.1-1.3,9.1s-0.1,0.1-1.3,0.1c-1.2,0-1.3,0.1-1.3,0.1l1.5-10c0,0,0.4-0.8-0.9-0.8c-1.3-0.1-6.5,0-6.5,0
	s-1,0.9,0.2,1.4l-1.3,9.8c0,0-0.2,3,1.6,3.3C32.1,30.1,37.8,29.9,37.8,29.9z"/>
<path fill="none" stroke="#FFFFFF" stroke-miterlimit="10" d="M45.2,33.3l2-14.6c0,0,0.8-3.8,3-3.8c2.2-0.1,11.3,0,11.3,0
	s2.5,0.5,2.3,3.5S62,32.5,62,32.5s-0.6,4.1-3.3,4.1s-11.4,0-11.4,0S45.2,36,45.2,33.3z"/>
<path fill="none" stroke="#FFFFFF" stroke-miterlimit="10" d="M71.5,16.8l-1.9,14.3c0,0,0,1.1,0.6,1.1c0.6,0,1.4-0.3,1.6-1.9
	c0.2-1.6,1.9-13.5,1.9-13.5l-0.2-1.4c0,0-0.1-0.5,0.9-0.5s6.6,0,6.6,0s0.8,0.7,0,1.4l-0.2,0.2l-2.2,16.5c0,0-0.5,3.3-3.9,3.7
	s-8.4,0.4-8.9,0.2c-0.5-0.2-3.7-0.7-3.4-3.8s2.2-16.2,2.2-16.2s-0.4-0.7-0.4-1s0.1-0.9,0.9-0.9s6.5,0,6.5,0s0.6,0.4,0.3,1
	S71.5,16.8,71.5,16.8z"/>
<path fill="none" stroke="#FFFFFF" stroke-miterlimit="10" d="M54.2,20.2h2.2c0,0,0,0.1,0,0.3c0,0.2-1.4,10.6-1.4,10.6h-2.6l1.3-10
	C53.7,21.1,53.6,20.2,54.2,20.2z"/>
<path fill="none" stroke="#FFFFFF" stroke-miterlimit="10" d="M80,34.6l2.4-17.5c0,0,0.1-0.6,0-0.7c-0.1-0.1-0.9-1.5,0.3-1.5
	c1.2,0,7.1,0,7.1,0l5.2,9.8l0.9-8.1c0,0-0.8-1.7,0.3-1.7c1.1,0,7.5,0,7.5,0s0.9,0.3,0.3,1.4c-0.6,1.1-0.6,1.1-0.6,1.1L101,34.6
	c0,0,0,0.5,0.1,0.8c0.1,0.3,0.7,1.4-0.6,1.4c-1.2,0-7.4,0-7.4,0s-0.8-0.5-0.3-1.4c0.6-0.9,0.6-1.8,0.6-2.1s-5-9.6-5-9.6l-1.7,11.1
	l0.3,1.1c0,0,0.3,1-0.9,1s-6.7,0-6.7,0s-0.8-0.7-0.3-1.2C79.8,35.2,79.9,34.8,80,34.6z"/>
<path fill="none" stroke="#FFFFFF" stroke-miterlimit="10" d="M108.4,30.8l1.4-10.2c0,0,0.1-0.4,0.5-0.4s6.5,0,6.5,0s0.5,0.9,1,0.8
	c0.5-0.1,0.8-1,0.8-1.4c0-0.4,0.5-4.2,0.5-4.2s0.3-0.5-0.9-0.5c-1.1-0.1-11.5,0-11.5,0s-3,0.6-3.4,4.2c-0.5,3.5-1.6,12.3-1.6,12.3
	s-0.1,2.9,0.2,3.7s1.2,1.7,2.1,1.7c0.8,0,13.4,0,13.4,0s0.6,0.2,0.7-1.6c0.1-1.8,0.9-7.4,0.8-8.2c-0.1-0.8-0.5-2-1.1-2.1
	c-0.5-0.1-7.1,0-7.1,0s-0.4,0-0.5,0.9s-0.5,3.8-0.5,3.8s-0.1,1,0.8,0.8c0.8-0.2,0.9-0.6,0.9-0.6l0.6,0l-0.1,1.5l-2.6,0
	C109.1,31.4,108.4,31.3,108.4,30.8z"/>
<path fill="none" stroke="#FFFFFF" stroke-miterlimit="10" d="M123.2,34.4l2.4-17.7c0,0-0.4-1-0.2-1.3c0.1-0.3,0.4-0.4,0.8-0.4
	s6.5,0,6.5,0s0.9,0,0.5,1c-0.4,1-0.4,1-0.4,1l-1,6.4h2.2l1-6.6l-0.4-1.1c0,0-0.4-0.6,0.7-0.8c1.1-0.2,7.1,0,7.1,0s0.6,0.9,0,1.7
	c-0.6,0.7-0.6,0.6-0.6,0.6l-2.2,17.5c0,0,0.3,1.2,0.3,1.4s0.3,0.8-1.2,0.7c-1.5,0-6.6,0-6.6,0s-0.2-0.8,0.2-1.4
	c0.4-0.7,0.5-1.1,0.5-1.1l0.5-5.5h-2.1l-0.2,0l-0.6,6.4c0,0,0.7,1.2,0.1,1.4c-0.6,0.3-7.6,0-7.6,0s-0.7-0.7,0-1.3
	C123.7,34.7,123.2,34.4,123.2,34.4z"/>
<path fill="none" stroke="#FFFFFF" stroke-miterlimit="10" d="M143.4,14.9h6.1c0,0,0.9,0.4,0.5,1.1c-0.4,0.7-0.5,0.9-0.5,0.9
	l-1.8,14.3c0,0,0.2,1.2,0.7,1.1c0.4-0.1,1.5-0.3,1.8-3c0.3-2.7,1.8-12.8,1.8-12.8l-0.4-0.9c0,0-0.1-0.7,0.7-0.7s6.9,0,6.9,0
	s0.4,0.7,0,1.1c-0.4,0.4-0.4,1-0.4,1l-2.2,16.4c0,0-0.8,2.9-4.6,3.2c-3.8,0.3-8.6,0-8.6,0s-3.5-0.6-3.1-3.9
	c0.4-3.4,2.2-16.1,2.2-16.1S141.7,14.5,143.4,14.9z"/>
<path fill="none" stroke="#FFFFFF" stroke-miterlimit="10" d="M175.1,22.2"/>
<path fill="none" stroke="#FFFFFF" stroke-miterlimit="10" d="M174.3,21.4h2.3l-1.7,13.5c0,0-1,1.2-0.7,1.6c0.4,0.4,7.1,0.4,7.1,0.4
	s0.9,0.1,0.7-0.9c-0.2-1-0.2-1.9-0.2-1.9l1.7-12.6l0.7-0.1c0,0,1.3-0.6,1.4-1c0.1-0.4,0.6-3.8,0.6-3.8l-0.9-1.4h-11.5
	c0,0-0.7,0.1-0.7,0.3s-0.8,6.8-0.7,6.8s0.8,0.8,1.4,0C174.3,21.4,174.3,21.4,174.3,21.4z"/>
<path fill="none" stroke="#FFFFFF" stroke-miterlimit="10" d="M191.3,31l1.9-14.2c0,0,1.1-1.4,0.3-1.7s-6.7-0.3-6.7-0.3l-2.5,15.2
	l-0.5,4.9c0,0-0.2,1.7,1.5,1.8c1.7,0.1,11,0,11,0s0.9,0.1,0.9-1.7s0.3-2.9,0.3-2.9s0-1-1.2-0.7c-1.2,0.3-2.6,0.9-3,0.9
	C192.8,32.4,191.7,32.8,191.3,31z"/>
<path fill="none" stroke="#FFFFFF" stroke-miterlimit="10" d="M194.9,41.2l7.4-16.4l3.9-8.5l6.8-4.4c0,0,0.7-0.1,0.8,0.6
	s1.6,23,1.6,23s0.5,0.1,0.3,0.6c-0.1,0.5-0.3,0.5-0.5,0.6c-0.3,0.1-7.6,0.3-7.6,0.3s-1.1-0.4-0.2-1.5l0.4-0.1l-0.4-1.8l-4.9-0.1
	l-3.4,8l-0.1,1.6c0,0,0.1,0.4-1.1,0.5c-1.2,0.1-3.8,0-3.8,0s-0.9-0.5-0.3-1.1C194.5,41.9,194.9,41.2,194.9,41.2z"/>
<polygon fill="none" stroke="#FFFFFF" stroke-miterlimit="10" points="204.1,29.7 207.3,29.7 206.9,24.3 "/>
<text transform="matrix(1 0 0 1 156.0941 34.38)" fill="#D6D6D6" font-family="'ComicSansMS-Bold'" font-size="28.2224">$</text>
</svg>
