<?xml version="1.0" encoding="utf-8"?>
<!-- Generator: Adobe Illustrator 18.1.1, SVG Export Plug-In . SVG Version: 6.00 Build 0)  -->
<svg version="1.1" id="Layer_1" xmlns="http://www.w3.org/2000/svg" xmlns:xlink="http://www.w3.org/1999/xlink" x="0px" y="0px"
	 viewBox="0 354 612 134" enable-background="new 0 354 612 134" xml:space="preserve">
<path fill="none" stroke="#000000" stroke-miterlimit="10" d="M221.2,434.7l-0.3,3.9h-15.1l-2.7-1.2c0,0-2.4-0.7-2.4,1.2
	c0,1.9,0,9.8,0,9.8s-0.2,1.2,2.1,1.2c2.4,0,25.2,0,25.2,0s6.9-1.4,7.7-7s3.8-31.5,3.8-31.5s0.7-3.3,2.4-5.8c1.7-2.7-1.7-2.2-2.9-2.2
	s-12.2,0-12.2,0s-1.7-0.5-2.1,3.4c-0.3,3.9-2.7,19.4-2.7,19.4s-0.2,0.2-2.7,0.2s-2.9,0.3-2.9,0.3l3.1-21.1c0,0,0.9-1.5-1.9-1.7
	c-2.7-0.2-13.7,0-13.7,0s-2.1,1.9,0.3,3.1l-2.7,20.7c0,0-0.5,6.3,3.3,7C209,435,221.2,434.7,221.2,434.7z"/>
<path fill="none" stroke="#000000" stroke-miterlimit="10" d="M236.8,442.1l4.3-31c0,0,1.7-8.1,6.5-8.2c4.8-0.2,24,0,24,0
	s5.1,1.2,4.8,7.4s-3.9,30-3.9,30s-1.2,8.6-6.9,8.6c-5.8,0-24.2,0-24.2,0S236.8,447.7,236.8,442.1z"/>
<path fill="none" stroke="#000000" stroke-miterlimit="10" d="M292.6,406.9l-3.9,30.3c0,0,0,2.4,1.4,2.2c1.2,0,2.9-0.7,3.4-4.1
	c0.5-3.4,4.1-28.6,4.1-28.6l-0.3-2.9c0,0-0.3-1,1.9-1c2.1,0,13.9,0,13.9,0s1.7,1.4,0,2.9l-0.5,0.3l-4.8,35c0,0-1,7-8.4,7.9
	c-7.2,0.9-17.8,0.9-18.9,0.3c-1-0.3-7.9-1.5-7.2-7.9c0.7-6.3,4.6-34.4,4.6-34.4s-0.9-1.5-0.9-2.1c0-0.7,0.2-1.9,1.9-1.9
	c1.5,0,13.9,0,13.9,0s1.4,1,0.7,2.2C292.6,406.2,292.6,406.9,292.6,406.9z"/>
<path fill="none" stroke="#000000" stroke-miterlimit="10" d="M255.9,414.3h4.8c0,0,0,0.3,0,0.7s-3.1,22.5-3.1,22.5h-5.5l2.7-21.3
	C254.9,416.2,254.6,414.3,255.9,414.3z"/>
<path fill="none" stroke="#000000" stroke-miterlimit="10" d="M310.6,444.6l5-37.2c0,0,0.2-1.2,0-1.4c-0.2-0.2-2.1-3.1,0.5-3.3
	c2.6-0.2,15.1,0,15.1,0l11,20.9l2.1-17.1c0,0-1.7-3.8,0.5-3.8s15.9,0,15.9,0s1.9,0.7,0.5,2.9c-1.4,2.2-1.2,2.2-1.2,2.2l-5,36.5
	c0,0,0,1,0.2,1.7c0.2,0.7,1.4,2.9-1.2,3.1c-2.6,0-15.6,0-15.6,0s-1.7-1-0.5-3.1c1.2-1.9,1.4-3.9,1.4-4.5s-10.6-20.4-10.6-20.4
	l-3.6,23.5l0.5,2.4c0,0,0.7,2.1-2.1,2.1s-14.2,0-14.2,0s-1.7-1.4-0.5-2.4C309.9,445.8,310.4,445.1,310.6,444.6z"/>
<path fill="none" stroke="#000000" stroke-miterlimit="10" d="M370.9,436.7l3.1-21.6c0,0,0.2-0.9,1-0.9c0.7,0,13.7,0,13.7,0
	s1,1.9,2.1,1.7c1-0.2,1.7-2.1,1.5-2.9c0-0.9,1-8.9,1-8.9s0.7-1-1.9-1.2c-2.4-0.2-24.3,0-24.3,0s-6.3,1.4-7.2,8.9
	c-1,7.5-3.4,26.1-3.4,26.1s-0.3,6.2,0.3,7.9c0.7,1.7,2.6,3.6,4.5,3.8c1.7,0,28.5,0,28.5,0s1.2,0.5,1.5-3.4
	c0.3-3.9,1.9-15.6,1.5-17.3c-0.2-1.7-1.2-4.3-2.2-4.5c-1.2-0.2-15.1,0-15.1,0s-0.9,0-1,2.1c-0.2,1.9-1,8.1-1,8.1s-0.2,2.2,1.7,1.7
	c1.7-0.3,1.9-1.2,1.9-1.2h1.2l-0.3,3.3h-5.5C372.3,437.9,370.8,437.8,370.9,436.7z"/>
<path fill="none" stroke="#000000" stroke-miterlimit="10" d="M402.3,444.3l5.1-37.5c0,0-0.9-2.2-0.5-2.9s0.9-1,1.7-1s13.9,0,13.9,0
	s1.9,0,1,2.2c-0.9,2.1-0.9,2.1-0.9,2.1l-2.2,13.7h4.8l2.1-13.9l-1-2.2c0,0-0.9-1.2,1.5-1.7s15.1,0,15.1,0s1.2,2.1,0,3.6
	c-1.2,1.5-1.4,1.2-1.4,1.2l-4.3,37.2c0,0,0.5,2.6,0.5,2.9s0.7,1.7-2.4,1.5c-3.1,0-14.1,0-14.1,0s-0.5-1.7,0.3-3.1s1-2.2,1-2.2
	l1-11.7h-4.5h-0.5l-1.4,13.5c0,0,1.5,2.6,0.3,3.1c-1.2,0.5-16.1,0-16.1,0s-1.5-1.4,0-2.7C403.3,445,402.3,444.3,402.3,444.3z"/>
<path fill="none" stroke="#000000" stroke-miterlimit="10" d="M445.2,402.8H458c0,0,2.1,0.9,1,2.4c-1,1.5-1,1.9-1,1.9l-3.8,30.2
	c0,0,0.5,2.6,1.4,2.4c1-0.2,3.1-0.5,3.8-6.3c0.7-5.8,3.8-27.3,3.8-27.3l-0.9-1.9c0,0-0.3-1.5,1.5-1.5c1.9,0,14.6,0,14.6,0
	s0.9,1.5,0,2.4c-0.9,0.9-0.9,2.2-0.9,2.2l-4.5,35c0,0-1.7,6.2-9.8,6.9s-18.3,0-18.3,0s-7.5-1.2-6.7-8.4s4.6-34.1,4.6-34.1
	S441.6,401.9,445.2,402.8z"/>
<path fill="none" stroke="#000000" stroke-miterlimit="10" d="M512.3,418.2"/>
<path fill="none" stroke="#000000" stroke-miterlimit="10" d="M510.8,416.7h4.8l-3.8,28.6c0,0-2.2,2.4-1.4,3.3s15.1,0.9,15.1,0.9
	s2.1,0.2,1.5-2.1c-0.3-2.1-0.5-3.9-0.5-3.9l3.6-26.7l1.4-0.3c0,0,2.7-1.2,2.9-2.1c0.2-0.9,1.2-7.9,1.2-7.9l-1.9-2.9h-24.5
	c0,0-1.5,0.2-1.5,0.5s-1.7,14.4-1.5,14.4c0.2,0,1.7,1.7,2.9,0C510.3,416.7,510.8,416.7,510.8,416.7z"/>
<path fill="none" stroke="#000000" stroke-miterlimit="10" d="M546.8,437.1l3.9-30.2c0,0,2.4-2.9,0.7-3.6s-14.2-0.5-14.2-0.5
	l-5.3,32.2l-1,10.5c0,0-0.5,3.6,3.1,3.8c3.6,0.2,23.5,0,23.5,0s1.9,0.2,2.1-3.6c0.2-3.8,0.5-6,0.5-6s0-2.2-2.6-1.5
	c-2.6,0.7-5.7,1.9-6.5,1.9C549.9,440,547.7,440.9,546.8,437.1z"/>
<path fill="none" stroke="#000000" stroke-miterlimit="10" d="M554.3,458.7l15.8-34.8l8.2-18l14.4-9.4c0,0,1.5-0.2,1.7,1.4
	c0.2,1.5,3.4,48.8,3.4,48.8s1,0.3,0.7,1.4c-0.3,1-0.5,1-1,1.4c-0.5,0.3-16.1,0.5-16.1,0.5s-2.4-1-0.3-3.3l0.9-0.3l-0.9-3.9
	l-10.3-0.2l-7.2,17l-0.3,3.3c0,0,0.2,1-2.2,1c-2.4,0.2-7.9,0-7.9,0s-1.9-1-0.7-2.2C553.6,460,554.3,458.7,554.3,458.7z"/>
<polygon fill="none" stroke="#000000" stroke-miterlimit="10" points="573.9,434.2 580.6,434.2 579.9,422.9 "/>
<path fill="none" stroke="#FFFFFF" stroke-miterlimit="10" d="M221.2,434.7l-0.3,3.9h-15.1l-2.7-1.2c0,0-2.4-0.7-2.4,1.2
	c0,1.9,0,9.8,0,9.8s-0.2,1.2,2.1,1.2c2.4,0,25.2,0,25.2,0s6.9-1.4,7.7-7s3.8-31.5,3.8-31.5s0.7-3.3,2.4-5.8c1.7-2.7-1.7-2.2-2.9-2.2
	s-12.2,0-12.2,0s-1.7-0.5-2.1,3.4c-0.3,3.9-2.7,19.4-2.7,19.4s-0.2,0.2-2.7,0.2s-2.9,0.3-2.9,0.3l3.1-21.1c0,0,0.9-1.5-1.9-1.7
	c-2.7-0.2-13.7,0-13.7,0s-2.1,1.9,0.3,3.1l-2.7,20.7c0,0-0.5,6.3,3.3,7C209,435,221.2,434.7,221.2,434.7z"/>
<path fill="none" stroke="#FFFFFF" stroke-miterlimit="10" d="M236.8,442.1l4.3-31c0,0,1.7-8.1,6.5-8.2c4.8-0.2,24,0,24,0
	s5.1,1.2,4.8,7.4s-3.9,30-3.9,30s-1.2,8.6-6.9,8.6c-5.8,0-24.2,0-24.2,0S236.8,447.7,236.8,442.1z"/>
<path fill="none" stroke="#FFFFFF" stroke-miterlimit="10" d="M292.6,406.9l-3.9,30.3c0,0,0,2.4,1.4,2.2c1.2,0,2.9-0.7,3.4-4.1
	c0.5-3.4,4.1-28.6,4.1-28.6l-0.3-2.9c0,0-0.3-1,1.9-1c2.1,0,13.9,0,13.9,0s1.7,1.4,0,2.9l-0.5,0.3l-4.8,35c0,0-1,7-8.4,7.9
	c-7.2,0.9-17.8,0.9-18.9,0.3c-1-0.3-7.9-1.5-7.2-7.9c0.7-6.3,4.6-34.4,4.6-34.4s-0.9-1.5-0.9-2.1c0-0.7,0.2-1.9,1.9-1.9
	c1.5,0,13.9,0,13.9,0s1.4,1,0.7,2.2C292.6,406.2,292.6,406.9,292.6,406.9z"/>
<path fill="none" stroke="#FFFFFF" stroke-miterlimit="10" d="M255.9,414.3h4.8c0,0,0,0.3,0,0.7s-3.1,22.5-3.1,22.5h-5.5l2.7-21.3
	C254.9,416.2,254.6,414.3,255.9,414.3z"/>
<path fill="none" stroke="#FFFFFF" stroke-miterlimit="10" d="M310.6,444.6l5-37.2c0,0,0.2-1.2,0-1.4c-0.2-0.2-2.1-3.1,0.5-3.3
	c2.6-0.2,15.1,0,15.1,0l11,20.9l2.1-17.1c0,0-1.7-3.8,0.5-3.8s15.9,0,15.9,0s1.9,0.7,0.5,2.9c-1.4,2.2-1.2,2.2-1.2,2.2l-5,36.5
	c0,0,0,1,0.2,1.7c0.2,0.7,1.4,2.9-1.2,3.1c-2.6,0-15.6,0-15.6,0s-1.7-1-0.5-3.1c1.2-1.9,1.4-3.9,1.4-4.5s-10.6-20.4-10.6-20.4
	l-3.6,23.5l0.5,2.4c0,0,0.7,2.1-2.1,2.1s-14.2,0-14.2,0s-1.7-1.4-0.5-2.4C309.9,445.8,310.4,445.1,310.6,444.6z"/>
<path fill="none" stroke="#FFFFFF" stroke-miterlimit="10" d="M370.9,436.7l3.1-21.6c0,0,0.2-0.9,1-0.9c0.7,0,13.7,0,13.7,0
	s1,1.9,2.1,1.7c1-0.2,1.7-2.1,1.5-2.9c0-0.9,1-8.9,1-8.9s0.7-1-1.9-1.2c-2.4-0.2-24.3,0-24.3,0s-6.3,1.4-7.2,8.9
	c-1,7.5-3.4,26.1-3.4,26.1s-0.3,6.2,0.3,7.9c0.7,1.7,2.6,3.6,4.5,3.8c1.7,0,28.5,0,28.5,0s1.2,0.5,1.5-3.4
	c0.3-3.9,1.9-15.6,1.5-17.3c-0.2-1.7-1.2-4.3-2.2-4.5c-1.2-0.2-15.1,0-15.1,0s-0.9,0-1,2.1c-0.2,1.9-1,8.1-1,8.1s-0.2,2.2,1.7,1.7
	c1.7-0.3,1.9-1.2,1.9-1.2h1.2l-0.3,3.3h-5.5C372.3,437.9,370.8,437.8,370.9,436.7z"/>
<path fill="none" stroke="#FFFFFF" stroke-miterlimit="10" d="M402.3,444.3l5.1-37.5c0,0-0.9-2.2-0.5-2.9s0.9-1,1.7-1s13.9,0,13.9,0
	s1.9,0,1,2.2c-0.9,2.1-0.9,2.1-0.9,2.1l-2.2,13.7h4.8l2.1-13.9l-1-2.2c0,0-0.9-1.2,1.5-1.7s15.1,0,15.1,0s1.2,2.1,0,3.6
	c-1.2,1.5-1.4,1.2-1.4,1.2l-4.3,37.2c0,0,0.5,2.6,0.5,2.9s0.7,1.7-2.4,1.5c-3.1,0-14.1,0-14.1,0s-0.5-1.7,0.3-3.1s1-2.2,1-2.2
	l1-11.7h-4.5h-0.5l-1.4,13.5c0,0,1.5,2.6,0.3,3.1c-1.2,0.5-16.1,0-16.1,0s-1.5-1.4,0-2.7C403.3,445,402.3,444.3,402.3,444.3z"/>
<path fill="none" stroke="#FFFFFF" stroke-miterlimit="10" d="M445.2,402.8H458c0,0,2.1,0.9,1,2.4c-1,1.5-1,1.9-1,1.9l-3.8,30.2
	c0,0,0.5,2.6,1.4,2.4c1-0.2,3.1-0.5,3.8-6.3c0.7-5.8,3.8-27.3,3.8-27.3l-0.9-1.9c0,0-0.3-1.5,1.5-1.5c1.9,0,14.6,0,14.6,0
	s0.9,1.5,0,2.4c-0.9,0.9-0.9,2.2-0.9,2.2l-4.5,35c0,0-1.7,6.2-9.8,6.9s-18.3,0-18.3,0s-7.5-1.2-6.7-8.4s4.6-34.1,4.6-34.1
	S441.6,401.9,445.2,402.8z"/>
<path fill="none" stroke="#FFFFFF" stroke-miterlimit="10" d="M512.3,418.2"/>
<path fill="none" stroke="#FFFFFF" stroke-miterlimit="10" d="M510.8,416.7h4.8l-3.8,28.6c0,0-2.2,2.4-1.4,3.3s15.1,0.9,15.1,0.9
	s2.1,0.2,1.5-2.1c-0.3-2.1-0.5-3.9-0.5-3.9l3.6-26.7l1.4-0.3c0,0,2.7-1.2,2.9-2.1c0.2-0.9,1.2-7.9,1.2-7.9l-1.9-2.9h-24.5
	c0,0-1.5,0.2-1.5,0.5s-1.7,14.4-1.5,14.4c0.2,0,1.7,1.7,2.9,0C510.3,416.7,510.8,416.7,510.8,416.7z"/>
<path fill="none" stroke="#FFFFFF" stroke-miterlimit="10" d="M546.8,437.1l3.9-30.2c0,0,2.4-2.9,0.7-3.6s-14.2-0.5-14.2-0.5
	l-5.3,32.2l-1,10.5c0,0-0.5,3.6,3.1,3.8c3.6,0.2,23.5,0,23.5,0s1.9,0.2,2.1-3.6c0.2-3.8,0.5-6,0.5-6s0-2.2-2.6-1.5
	c-2.6,0.7-5.7,1.9-6.5,1.9C549.9,440,547.7,440.9,546.8,437.1z"/>
<path fill="none" stroke="#FFFFFF" stroke-miterlimit="10" d="M554.3,458.7l15.8-34.8l8.2-18l14.4-9.4c0,0,1.5-0.2,1.7,1.4
	c0.2,1.5,3.4,48.8,3.4,48.8s1,0.3,0.7,1.4c-0.3,1-0.5,1-1,1.4c-0.5,0.3-16.1,0.5-16.1,0.5s-2.4-1-0.3-3.3l0.9-0.3l-0.9-3.9
	l-10.3-0.2l-7.2,17l-0.3,3.3c0,0,0.2,1-2.2,1c-2.4,0.2-7.9,0-7.9,0s-1.9-1-0.7-2.2C553.6,460,554.3,458.7,554.3,458.7z"/>
<polygon fill="none" stroke="#FFFFFF" stroke-miterlimit="10" points="573.9,434.2 580.6,434.2 579.9,422.9 "/>
<text transform="matrix(1 0 0 1 472.0664 444.2188)" fill="#FFFFFF" font-family="'ComicSansMS-Bold'" font-size="59.8655">$</text>
<text transform="matrix(1 0 0 1 228.0127 396.5352)" fill="#FFFFFF" font-family="'Helvetica-Light'" font-size="11.9971">LOADING</text>
</svg>
